<svg xmlns="http://www.w3.org/2000/svg" width="37" height="37" viewBox="0 0 37 37" fill="none"><path fill-rule="evenodd" clip-rule="evenodd" d="M18.5 37C28.7173 37 37 28.7173 37 18.5C37 8.28273 28.7173 0 18.5 0C8.28273 0 0 8.28273 0 18.5C0 28.7173 8.28273 37 18.5 37ZM19.5813 24.5123L29.313 15.3321C29.9102 14.7688 29.9102 13.8554 29.313 13.2921C28.7158 12.7287 27.7476 12.7287 27.1504 13.2921L18.5348 21.4422V21.509L9.84962 13.2921C9.25243 12.7287 8.2842 12.7287 7.68702 13.2921C7.08983 13.8554 7.08983 14.7688 7.68702 15.3321L17.4187 24.5123C18.0159 25.0756 18.9841 25.0756 19.5813 24.5123Z" fill="black"></path></svg>