<svg xmlns="http://www.w3.org/2000/svg" width="75" height="75" viewBox="0 0 75 75" fill="none"><circle cx="37.5" cy="37.5" r="37.5" fill="#FFF1E4"></circle><rect x="11" y="31" width="52" height="31" fill="#A64142"></rect><rect x="28" y="31" width="18" height="31" fill="#FFF1E4"></rect><path d="M13.0182 14.0783C8.4153 13.4395 4 16.9182 4 21.6879V59.3187C4 64.085 8.4153 67.5605 13.0148 66.925C13.6748 66.8323 14.3884 66.7396 15.1455 66.6469C22.5624 65.7522 30.028 65.3101 37.5 65.3229C48.1865 65.3229 56.7022 66.1935 61.9885 66.925C66.5847 67.5605 71 64.085 71 59.3154V21.6879C71 16.9182 66.5847 13.4395 61.9818 14.075C56.7022 14.8098 48.1898 15.677 37.5 15.677C26.8102 15.677 18.2978 14.8098 13.0182 14.0783ZM60.95 61.778C57.055 61.2906 53.1444 60.9329 49.225 60.7056V50.4315H57.6C58.4885 50.4315 59.3406 50.7802 59.9688 51.4009C60.5971 52.0217 60.95 52.8636 60.95 53.7414V61.778ZM44.2 60.4706C39.7346 60.3211 35.2654 60.3211 30.8 60.4706V50.4315C30.8 49.5536 31.1529 48.7117 31.7812 48.091C32.4094 47.4703 33.2615 47.1215 34.15 47.1215H40.85C41.7385 47.1215 42.5906 47.4703 43.2188 48.091C43.8471 48.7117 44.2 49.5536 44.2 50.4315V60.4706ZM25.775 60.7023C21.8556 60.9307 17.945 61.2895 14.05 61.778V53.7414C14.05 52.8636 14.4029 52.0217 15.0312 51.4009C15.6594 50.7802 16.5115 50.4315 17.4 50.4315H25.775V60.7023ZM37.5 43.8116C36.1673 43.8116 34.8892 43.2885 33.9468 42.3574C33.0044 41.4263 32.475 40.1634 32.475 38.8466C32.475 37.5299 33.0044 36.267 33.9468 35.3359C34.8892 34.4048 36.1673 33.8817 37.5 33.8817C38.8327 33.8817 40.1108 34.4048 41.0532 35.3359C41.9956 36.267 42.525 37.5299 42.525 38.8466C42.525 40.1634 41.9956 41.4263 41.0532 42.3574C40.1108 43.2885 38.8327 43.8116 37.5 43.8116ZM25.775 42.1566C25.775 42.8086 25.645 43.4542 25.3925 44.0566C25.14 44.659 24.7698 45.2063 24.3032 45.6673C23.8366 46.1284 23.2826 46.4941 22.673 46.7436C22.0633 46.9931 21.4099 47.1215 20.75 47.1215C20.0901 47.1215 19.4367 46.9931 18.827 46.7436C18.2174 46.4941 17.6634 46.1284 17.1968 45.6673C16.7302 45.2063 16.36 44.659 16.1075 44.0566C15.855 43.4542 15.725 42.8086 15.725 42.1566C15.725 40.8398 16.2544 39.577 17.1968 38.6459C18.1392 37.7148 19.4173 37.1917 20.75 37.1917C22.0827 37.1917 23.3608 37.7148 24.3032 38.6459C25.2456 39.577 25.775 40.8398 25.775 42.1566ZM59.275 42.1566C59.275 43.4734 58.7456 44.7362 57.8032 45.6673C56.8608 46.5984 55.5827 47.1215 54.25 47.1215C52.9173 47.1215 51.6392 46.5984 50.6968 45.6673C49.7544 44.7362 49.225 43.4734 49.225 42.1566C49.225 40.8398 49.7544 39.577 50.6968 38.6459C51.6392 37.7148 52.9173 37.1917 54.25 37.1917C55.5827 37.1917 56.8608 37.7148 57.8032 38.6459C58.7456 39.577 59.275 40.8398 59.275 42.1566Z" fill="black"></path></svg>