<svg xmlns="http://www.w3.org/2000/svg" width="75" height="75" viewBox="0 0 75 75" fill="none"><circle cx="37.5" cy="37.5" r="37.5" fill="white"></circle><path fill-rule="evenodd" clip-rule="evenodd" d="M14.6304 27.1411C16.0712 26.6609 17.6286 27.4395 18.1089 28.8804L22.375 41.6788L26.6411 28.8804C27.1214 27.4395 28.6788 26.6609 30.1196 27.1411C31.5605 27.6214 32.3392 29.1788 31.8589 30.6196L26.3589 47.1196C25.9846 48.2426 24.9337 49 23.75 49H21C19.8163 49 18.7654 48.2426 18.3911 47.1196L12.8911 30.6196C12.4109 29.1788 13.1895 27.6214 14.6304 27.1411ZM37.5 27C39.0188 27 40.25 28.2312 40.25 29.75V46.25C40.25 47.7688 39.0188 49 37.5 49C35.9812 49 34.75 47.7688 34.75 46.25V29.75C34.75 28.2312 35.9812 27 37.5 27ZM45.75 29.75C45.75 28.2312 46.9812 27 48.5 27H54C56.1881 27 58.2865 27.8692 59.8336 29.4164C61.3808 30.9636 62.25 33.062 62.25 35.25C62.25 37.4381 61.3808 39.5365 59.8336 41.0836C58.2865 42.6308 56.1881 43.5 54 43.5H51.25V46.25C51.25 47.7688 50.0188 49 48.5 49C46.9812 49 45.75 47.7688 45.75 46.25V29.75ZM51.25 38H54C54.7294 38 55.4288 37.7103 55.9446 37.1946C56.4603 36.6788 56.75 35.9794 56.75 35.25C56.75 34.5207 56.4603 33.8212 55.9446 33.3055C55.4288 32.7897 54.7294 32.5 54 32.5H51.25V38Z" fill="black"></path><path d="M10 18.75C10 17.2312 11.2312 16 12.75 16H62.25C63.7688 16 65 17.2312 65 18.75C65 20.2688 63.7688 21.5 62.25 21.5H12.75C11.2312 21.5 10 20.2688 10 18.75Z" fill="#B74A4B"></path><path d="M10 57.25C10 55.7312 11.2312 54.5 12.75 54.5H62.25C63.7688 54.5 65 55.7312 65 57.25C65 58.7688 63.7688 60 62.25 60H12.75C11.2312 60 10 58.7688 10 57.25Z" fill="#B74A4B"></path></svg>