<svg xmlns="http://www.w3.org/2000/svg" width="112" height="25" viewBox="0 0 112 25" fill="none"><rect width="112" height="25" rx="2.74667" fill="#A64142"></rect><path opacity="0.5" d="M36.7679 13.2321C38.0949 13.4131 39.042 13.7991 39.609 14.3902C40.176 14.9693 40.4595 15.669 40.4595 16.4894C40.4595 17.177 40.2846 17.7863 39.9347 18.3171C39.5848 18.8479 39.0842 19.2641 38.4327 19.5657C37.7813 19.8552 37.0092 20 36.1164 20C35.7907 20 35.5132 19.994 35.284 19.9819C34.5119 19.9578 33.7519 19.9457 33.0039 19.9457C32.0147 19.9457 31.2667 19.9638 30.76 20V19.6381C31.1943 19.614 31.508 19.5657 31.701 19.4933C31.9061 19.4209 32.0448 19.2822 32.1172 19.0771C32.1896 18.872 32.2258 18.5403 32.2258 18.0818V9.10621C32.2258 8.64778 32.1896 8.31602 32.1172 8.11093C32.0448 7.90585 31.9061 7.76711 31.701 7.69473C31.508 7.62234 31.1943 7.57409 30.76 7.54996V7.18804C31.2667 7.22423 32.0026 7.24233 32.9677 7.24233L34.9221 7.22423C35.1513 7.21217 35.4107 7.20613 35.7002 7.20613C36.9308 7.20613 37.8718 7.46551 38.5232 7.98426C39.1867 8.50301 39.5185 9.19066 39.5185 10.0472C39.5185 10.7469 39.2953 11.3742 38.8489 11.9292C38.4146 12.4841 37.721 12.9064 36.7679 13.1959V13.2321ZM35.2478 7.54996C34.8739 7.54996 34.5903 7.59218 34.3973 7.67663C34.2164 7.76108 34.0897 7.91188 34.0173 8.12903C33.9449 8.34618 33.9087 8.67191 33.9087 9.10621V13.1959H35.1212C36.1104 13.1959 36.7981 12.9305 37.1841 12.3997C37.5822 11.8568 37.7813 11.139 37.7813 10.2463C37.7813 9.34146 37.5822 8.66588 37.1841 8.21951C36.786 7.77314 36.1406 7.54996 35.2478 7.54996ZM35.2659 19.5838C37.5219 19.5838 38.6499 18.5282 38.6499 16.417C38.6499 15.4639 38.3905 14.7401 37.8718 14.2455C37.3651 13.7509 36.5507 13.5035 35.4288 13.5035H33.9087V18.0818C33.9087 18.5161 33.9449 18.8358 34.0173 19.0409C34.0897 19.246 34.2164 19.3908 34.3973 19.4752C34.5903 19.5476 34.8799 19.5838 35.2659 19.5838ZM47.9883 6.93469C49.1343 6.93469 50.1357 7.19407 50.9922 7.71282C51.8608 8.23157 52.5304 8.98557 53.0009 9.97482C53.4834 10.952 53.7247 12.1222 53.7247 13.4854C53.7247 14.8125 53.4774 15.9887 52.9828 17.0142C52.5002 18.0396 51.8186 18.8358 50.9379 19.4028C50.0693 19.9698 49.0801 20.2533 47.9702 20.2533C46.8241 20.2533 45.8167 19.994 44.9481 19.4752C44.0916 18.9565 43.422 18.2085 42.9395 17.2313C42.469 16.2421 42.2337 15.0658 42.2337 13.7026C42.2337 12.3756 42.475 11.1993 42.9576 10.1739C43.4522 9.14844 44.1338 8.35221 45.0024 7.78521C45.8831 7.2182 46.8784 6.93469 47.9883 6.93469ZM47.9159 7.26042C47.1438 7.26042 46.4622 7.53186 45.871 8.07474C45.292 8.60556 44.8396 9.35352 44.5138 10.3186C44.2002 11.2838 44.0433 12.3876 44.0433 13.6302C44.0433 14.8849 44.2183 15.9887 44.5681 16.9418C44.93 17.8948 45.4126 18.6307 46.0158 19.1495C46.619 19.6682 47.2946 19.9276 48.0426 19.9276C48.8146 19.9276 49.4902 19.6622 50.0693 19.1314C50.6604 18.5885 51.1128 17.8345 51.4265 16.8694C51.7522 15.9043 51.9151 14.8004 51.9151 13.5578C51.9151 12.3032 51.7341 11.1993 51.3722 10.2463C51.0224 9.2932 50.5458 8.5573 49.9426 8.03855C49.3394 7.5198 48.6638 7.26042 47.9159 7.26042ZM48.1149 3.42407C48.4045 3.89457 48.8448 4.34697 49.4359 4.78127C50.0391 5.20351 50.7268 5.54733 51.4989 5.81274L51.4084 6.06609C50.6846 5.90925 49.9668 5.71623 49.255 5.48701C48.5553 5.2578 48.0003 5.02858 47.5902 4.79937C47.2524 5.02858 46.7939 5.2578 46.2149 5.48701C45.6478 5.71623 45.0748 5.90925 44.4957 6.06609L44.4053 5.81274C45.1774 5.54733 45.859 5.20351 46.4501 4.78127C47.0533 4.34697 47.4997 3.89457 47.7892 3.42407H48.1149ZM66.6705 7.54996C66.2483 7.57409 65.9346 7.64044 65.7295 7.74901C65.5245 7.84553 65.3857 8.01442 65.3133 8.2557C65.241 8.48492 65.2048 8.82874 65.2048 9.28717V20.0905H64.7886L57.1882 8.34618V17.9009C57.1882 18.3714 57.2244 18.7212 57.2968 18.9504C57.3813 19.1796 57.5381 19.3485 57.7673 19.4571C57.9965 19.5536 58.3524 19.614 58.835 19.6381V20C58.4007 19.9638 57.7854 19.9457 56.9892 19.9457C56.2653 19.9457 55.7044 19.9638 55.3063 20V19.6381C55.7285 19.614 56.0422 19.5536 56.2472 19.4571C56.4523 19.3485 56.5911 19.1796 56.6635 18.9504C56.7358 18.7092 56.772 18.3593 56.772 17.9009V9.10621C56.772 8.64778 56.7358 8.31602 56.6635 8.11093C56.5911 7.90585 56.4523 7.76711 56.2472 7.69473C56.0542 7.62234 55.7406 7.57409 55.3063 7.54996V7.18804C55.7044 7.22423 56.2653 7.24233 56.9892 7.24233C57.5321 7.24233 58.0026 7.22423 58.4007 7.18804L64.7886 17.0323V9.28717C64.7886 8.81668 64.7463 8.46682 64.6619 8.23761C64.5895 8.00839 64.4387 7.84553 64.2095 7.74901C63.9803 7.64044 63.6244 7.57409 63.1418 7.54996V7.18804C63.5761 7.22423 64.1914 7.24233 64.9876 7.24233C65.7114 7.24233 66.2724 7.22423 66.6705 7.18804V7.54996ZM79.1759 7.54996C78.7536 7.57409 78.44 7.64044 78.2349 7.74901C78.0298 7.84553 77.891 8.01442 77.8187 8.2557C77.7463 8.48492 77.7101 8.82874 77.7101 9.28717V14.7341C77.7101 15.6027 77.6498 16.3506 77.5291 16.978C77.4205 17.5932 77.2336 18.124 76.9681 18.5704C76.6665 19.0892 76.2202 19.4993 75.629 19.8009C75.05 20.1025 74.3925 20.2533 73.6566 20.2533C72.3295 20.2533 71.3162 19.9276 70.6165 19.2762C70.0856 18.7815 69.7297 18.2206 69.5488 17.5932C69.3678 16.9659 69.2773 16.0309 69.2773 14.7884V9.10621C69.2773 8.64778 69.2412 8.31602 69.1688 8.11093C69.0964 7.90585 68.9577 7.76711 68.7526 7.69473C68.5595 7.62234 68.2459 7.57409 67.8116 7.54996V7.18804C68.3183 7.22423 69.0904 7.24233 70.1279 7.24233C71.105 7.24233 71.8711 7.22423 72.4261 7.18804V7.54996C71.9917 7.57409 71.6721 7.62234 71.467 7.69473C71.2739 7.76711 71.1412 7.90585 71.0689 8.11093C70.9965 8.31602 70.9603 8.64778 70.9603 9.10621V15.096C70.9603 16.0611 71.0266 16.8634 71.1593 17.5028C71.292 18.1421 71.5635 18.6549 71.9737 19.0409C72.3959 19.427 73.0112 19.62 73.8194 19.62C75.0982 19.62 75.997 19.2098 76.5157 18.3895C77.0345 17.5691 77.2939 16.417 77.2939 14.9331V9.28717C77.2939 8.63572 77.1732 8.18935 76.932 7.94807C76.7027 7.70679 76.2745 7.57409 75.6471 7.54996V7.18804C76.0814 7.22423 76.6967 7.24233 77.4929 7.24233C78.2168 7.24233 78.7777 7.22423 79.1759 7.18804V7.54996ZM84.2905 6.98898C84.8213 6.98898 85.2375 7.0493 85.5391 7.16994C85.8528 7.27852 86.1725 7.44138 86.4982 7.65853C86.7636 7.82743 86.9687 7.91188 87.1135 7.91188C87.2221 7.91188 87.3065 7.85156 87.3668 7.73092C87.4272 7.59821 87.4754 7.39313 87.5116 7.11565H87.9278C87.8675 7.81537 87.8373 9.04589 87.8373 10.8072H87.4211C87.3487 9.83005 87.0652 9.0097 86.5706 8.34618C86.0881 7.6706 85.3823 7.33281 84.4534 7.33281C83.8019 7.33281 83.2711 7.53186 82.8609 7.92997C82.4508 8.31602 82.2457 8.81668 82.2457 9.43194C82.2457 9.89037 82.3482 10.2885 82.5533 10.6263C82.7705 10.9641 83.0419 11.2536 83.3676 11.4949C83.6933 11.7362 84.1578 12.0438 84.761 12.4178L85.2858 12.7435C86.0458 13.214 86.643 13.6302 87.0773 13.9921C87.5237 14.342 87.8796 14.7461 88.145 15.2046C88.4104 15.663 88.5431 16.1998 88.5431 16.8151C88.5431 17.9129 88.1812 18.7634 87.4573 19.3666C86.7335 19.9578 85.8166 20.2533 84.7067 20.2533C84.1277 20.2533 83.6511 20.193 83.2771 20.0724C82.9152 19.9517 82.5654 19.7889 82.2276 19.5838C81.9622 19.4149 81.7571 19.3304 81.6123 19.3304C81.5037 19.3304 81.4193 19.3968 81.359 19.5295C81.2986 19.6501 81.2504 19.8492 81.2142 20.1267H80.798C80.8462 19.4632 80.8704 18.0155 80.8704 15.7836H81.2866C81.371 17.0021 81.6726 17.9913 82.1914 18.7514C82.7101 19.5114 83.5064 19.8914 84.5801 19.8914C85.2315 19.8914 85.7865 19.6924 86.2449 19.2943C86.7033 18.8841 86.9325 18.2809 86.9325 17.4847C86.9325 16.8091 86.7033 16.236 86.2449 15.7655C85.7985 15.295 85.0867 14.7642 84.1096 14.1731C83.3978 13.7388 82.8187 13.3527 82.3723 13.0149C81.938 12.6772 81.5822 12.273 81.3047 11.8025C81.0272 11.32 80.8885 10.759 80.8885 10.1196C80.8885 9.10621 81.2142 8.33412 81.8657 7.8033C82.5171 7.26042 83.3254 6.98898 84.2905 6.98898ZM98.0446 10.4272C98.8046 10.4272 99.4259 10.6142 99.9085 10.9882C100.403 11.3622 100.65 11.8628 100.65 12.4902C100.65 13.1537 100.385 13.7509 99.8542 14.2817C99.3355 14.8125 98.7021 15.2106 97.9541 15.476C98.8831 15.5001 99.6732 15.7474 100.325 16.2179C100.976 16.6884 101.302 17.358 101.302 18.2266C101.302 19.0952 100.964 19.8733 100.289 20.561C99.625 21.2486 98.7745 21.7794 97.737 22.1534C96.7115 22.5395 95.668 22.7325 94.6064 22.7325V22.4068C95.4629 22.3826 96.2712 22.2017 97.0312 21.8639C97.7913 21.5382 98.4065 21.0616 98.877 20.4343C99.3475 19.819 99.5828 19.0831 99.5828 18.2266C99.5828 17.5148 99.4078 16.9297 99.058 16.4713C98.7081 16.0008 98.2437 15.7414 97.6646 15.6932C97.6163 15.7173 97.4897 15.7716 97.2846 15.856C97.0915 15.9284 96.9347 15.9646 96.8141 15.9646C96.6211 15.9646 96.5245 15.8862 96.5245 15.7293C96.5245 15.6208 96.5668 15.5363 96.6512 15.476C96.7477 15.4157 96.8623 15.3855 96.995 15.3855C97.0674 15.3855 97.1639 15.3976 97.2846 15.4217C97.4173 15.4338 97.5319 15.4458 97.6284 15.4579C98.0989 15.096 98.4487 14.6918 98.678 14.2455C98.9072 13.7991 99.0218 13.3346 99.0218 12.8521C99.0218 12.2971 98.8831 11.887 98.6056 11.6216C98.3281 11.3561 97.9421 11.2234 97.4474 11.2234C96.9407 11.2234 96.4823 11.3622 96.0721 11.6397C95.662 11.9051 95.3181 12.3032 95.0407 12.834L94.733 12.6892C95.4327 11.1812 96.5366 10.4272 98.0446 10.4272Z" fill="#FFF1E4"></path><path d="M16.966 6.97317C15.8859 6.96745 14.8344 8.00755 15.3144 9.29911H13.5028C13.1997 9.29911 12.909 9.41953 12.6946 9.63388C12.4803 9.84822 12.3599 10.1389 12.3599 10.4421V11.585C12.3599 11.7366 12.4201 11.882 12.5272 11.9891C12.6344 12.0963 12.7798 12.1565 12.9313 12.1565H18.0747V10.4421H19.2177V12.1565H24.361C24.5126 12.1565 24.658 12.0963 24.7651 11.9891C24.8723 11.882 24.9325 11.7366 24.9325 11.585V10.4421C24.9325 10.1389 24.8121 9.84822 24.5977 9.63388C24.3834 9.41953 24.0927 9.29911 23.7895 9.29911H21.9779C22.6466 7.43036 20.132 6.11023 18.9719 7.72181L18.6462 8.15614L18.3204 7.71038C17.9604 7.20176 17.4632 6.97888 16.966 6.97317ZM16.9317 8.15614C17.4404 8.15614 17.6975 8.77334 17.3375 9.13338C16.9775 9.49341 16.3603 9.23624 16.3603 8.72762C16.3602 8.57606 16.4205 8.4307 16.5276 8.32352C16.6348 8.21635 16.7802 8.15614 16.9317 8.15614ZM20.3606 8.15614C20.8693 8.15614 21.1264 8.77334 20.7664 9.13338C20.4064 9.49341 19.7892 9.23624 19.7892 8.72762C19.7892 8.57606 19.8494 8.4307 19.9565 8.32352C20.0637 8.21635 20.2091 8.15614 20.3606 8.15614ZM12.9313 12.728V17.2999C12.9313 17.603 13.0518 17.8937 13.2661 18.1081C13.4805 18.3224 13.7712 18.4429 14.0743 18.4429H23.2181C23.5212 18.4429 23.8119 18.3224 24.0263 18.1081C24.2406 17.8937 24.361 17.603 24.361 17.2999V12.728H19.2177V17.2999H18.0747V12.728H12.9313Z" fill="#FFF1E4"></path></svg>