<svg xmlns="http://www.w3.org/2000/svg" width="71" height="97" viewBox="0 0 71 97" fill="none"><path d="M34.6288 60.9053L35.5498 60.9053L35.5498 0.999958L34.6289 0.999958L34.6288 60.9053Z" fill="black" stroke="black"></path><path d="M26.8456 52.4202L35.0698 60.6567L43.3062 52.4325L43.957 53.0833L35.0698 61.9583L26.1948 53.0711L26.8456 52.4202Z" fill="black" stroke="black"></path><path d="M35.0581 27.0202L35.0765 27.0202C36.8785 27.0202 38.6867 27.1614 40.4518 27.4377L40.3106 28.3463C38.5915 28.0762 36.8325 27.9411 35.0765 27.9411L35.0581 27.0202ZM29.6643 27.4438L29.8086 28.3525C28.0741 28.6257 26.3519 29.0401 24.6881 29.5804L24.4026 28.7055C26.1125 28.1499 27.8838 27.7262 29.6643 27.4438ZM45.7166 28.6932C47.4296 29.2489 49.1119 29.9457 50.7205 30.7623L50.303 31.582C48.7405 30.7838 47.1011 30.1084 45.4342 29.5682L45.7166 28.6932ZM19.4048 30.7807L19.8254 31.6004C18.2659 32.3955 16.7586 33.3226 15.3403 34.3571L14.797 33.6112C16.2552 32.549 17.8054 31.5973 19.4048 30.7807ZM57.4889 35.3527C58.944 36.4118 58.1711 35.8337 59.4481 37.1047L58.7973 37.7555C57.5571 36.5153 56.2094 35.3641 54.7912 34.3356L55.3315 33.5897L57.4889 35.3527ZM10.6834 37.1292L11.3342 37.78C10.0939 39.0203 8.94274 40.3679 7.91127 41.7831L7.16529 41.2428C8.22439 39.7877 9.40629 38.4032 10.6803 37.1292L10.6834 37.1292ZM62.9662 41.2183C64.0284 42.6734 64.98 44.2237 65.7997 45.8261L64.98 46.2467C64.1819 44.6872 63.2548 43.1799 62.2202 41.7617L62.9631 41.2183L62.9662 41.2183ZM4.33794 45.8568L5.1576 46.2743C4.35943 47.8369 3.681 49.4731 3.1407 51.1401L2.26579 50.8546C2.82143 49.1416 3.51829 47.4593 4.33794 45.8538L4.33794 45.8568ZM67.8749 50.8177C68.4336 52.5277 68.8573 54.299 69.1397 56.0795L68.231 56.2238C67.9578 54.4893 67.5434 52.7671 67 51.1032L67.8749 50.8177ZM1.00407 56.1163L1.91275 56.2575C1.6426 57.9828 1.50446 59.748 1.50446 61.507L1.50446 61.5807L0.583499 61.5807L0.583499 61.507C0.583499 59.7019 0.724712 57.8846 1.00407 56.1133L1.00407 56.1163ZM69.5664 61.4732L69.5664 61.5224C69.5664 63.306 69.4283 65.108 69.152 66.867L68.2433 66.7258C68.5104 65.0128 68.6454 63.2599 68.6455 61.5101L69.5664 61.4732ZM1.92503 66.8332C2.20132 68.5646 2.61575 70.2868 3.16219 71.9507L2.28727 72.2362C1.72856 70.5263 1.30184 68.755 1.01634 66.9775L1.92503 66.8332ZM67.0246 71.8463L67.8995 72.1287C67.3469 73.8417 66.65 75.524 65.8335 77.1326L65.0138 76.7151C65.8089 75.1495 66.4873 73.5133 67.0246 71.8463ZM5.1883 76.8103C5.98646 78.3667 6.91662 79.8771 7.95117 81.2923L7.20826 81.8356C6.14609 80.3805 5.19136 78.8333 4.36864 77.2308L5.1883 76.8103ZM62.2601 81.2094L63.0061 81.7497C61.9501 83.2048 60.7682 84.5924 59.4942 85.8664L58.8434 85.2156C60.0836 83.9753 61.2317 82.6246 62.2601 81.2063L62.2601 81.2094ZM11.3802 85.2892C12.6235 86.5264 13.9712 87.6776 15.3895 88.706L14.8492 89.452C13.391 88.3959 12.0065 87.214 10.7294 85.9431L11.3802 85.2923L11.3802 85.2892ZM54.8433 88.6446L55.3867 89.3875C53.9316 90.4497 52.3813 91.4044 50.7819 92.2241L50.3613 91.4044C51.9178 90.6062 53.4281 89.6761 54.8433 88.6446ZM19.8837 91.4535C21.4494 92.2486 23.0856 92.924 24.7556 93.4612L24.4732 94.3392C22.7602 93.7866 21.0748 93.0928 19.4693 92.2732L19.8868 91.4535L19.8837 91.4535ZM45.4987 93.4275L45.7842 94.3024C44.0743 94.8611 42.3029 95.2878 40.5224 95.5702L40.3781 94.6615C42.1095 94.3852 43.8317 93.9708 45.4956 93.4275L45.4987 93.4275ZM29.8792 94.6769C31.5861 94.9409 33.3328 95.076 35.0765 95.076L35.1317 95.076L35.1317 96L35.0765 96C33.2868 96 31.4909 95.8619 29.738 95.5886L29.8792 94.68L29.8792 94.6769Z" fill="black" stroke="black"></path></svg>