<svg xmlns="http://www.w3.org/2000/svg" width="112" height="25" viewBox="0 0 112 25" fill="none"><rect width="112" height="25" rx="2.74667" fill="#A64142"></rect><path d="M36.2723 12.9186C37.5993 13.0996 38.5464 13.4856 39.1134 14.0768C39.6804 14.6558 39.9639 15.3555 39.9639 16.1759C39.9639 16.8635 39.7889 17.4728 39.4391 18.0036C39.0892 18.5344 38.5886 18.9506 37.9371 19.2522C37.2857 19.5418 36.5136 19.6865 35.6208 19.6865C35.2951 19.6865 35.0176 19.6805 34.7884 19.6684C34.0163 19.6443 33.2563 19.6322 32.5083 19.6322C31.5191 19.6322 30.7711 19.6503 30.2644 19.6865V19.3246C30.6987 19.3005 31.0124 19.2522 31.2054 19.1798C31.4105 19.1075 31.5492 18.9687 31.6216 18.7636C31.694 18.5585 31.7302 18.2268 31.7302 17.7683V8.79274C31.7302 8.3343 31.694 8.00254 31.6216 7.79746C31.5492 7.59237 31.4105 7.45363 31.2054 7.38125C31.0124 7.30886 30.6987 7.26061 30.2644 7.23648V6.87456C30.7711 6.91075 31.507 6.92885 32.4721 6.92885L34.4265 6.91075C34.6557 6.89869 34.9151 6.89266 35.2046 6.89266C36.4352 6.89266 37.3762 7.15203 38.0276 7.67078C38.6911 8.18954 39.0229 8.87718 39.0229 9.73373C39.0229 10.4334 38.7997 11.0608 38.3533 11.6157C37.919 12.1707 37.2254 12.5929 36.2723 12.8824V12.9186ZM34.7522 7.23648C34.3782 7.23648 34.0947 7.2787 33.9017 7.36315C33.7208 7.4476 33.5941 7.5984 33.5217 7.81555C33.4493 8.0327 33.4131 8.35843 33.4131 8.79274V12.8824H34.6256C35.6148 12.8824 36.3025 12.617 36.6885 12.0862C37.0866 11.5433 37.2857 10.8255 37.2857 9.93278C37.2857 9.02798 37.0866 8.3524 36.6885 7.90603C36.2904 7.45967 35.645 7.23648 34.7522 7.23648ZM34.7703 19.2703C37.0263 19.2703 38.1543 18.2147 38.1543 16.1035C38.1543 15.1505 37.8949 14.4266 37.3762 13.932C36.8695 13.4374 36.0551 13.1901 34.9332 13.1901H33.4131V17.7683C33.4131 18.2027 33.4493 18.5223 33.5217 18.7274C33.5941 18.9325 33.7208 19.0773 33.9017 19.1617C34.0947 19.2341 34.3843 19.2703 34.7703 19.2703ZM47.4927 6.62122C48.6387 6.62122 49.64 6.88059 50.4966 7.39935C51.3652 7.9181 52.0348 8.6721 52.5052 9.66134C52.9878 10.6385 53.2291 11.8087 53.2291 13.172C53.2291 14.499 52.9818 15.6752 52.4872 16.7007C52.0046 17.7261 51.323 18.5223 50.4423 19.0894C49.5737 19.6564 48.5844 19.9399 47.4746 19.9399C46.3285 19.9399 45.3211 19.6805 44.4525 19.1617C43.596 18.643 42.9264 17.895 42.4439 16.9178C41.9734 15.9286 41.7381 14.7523 41.7381 13.3891C41.7381 12.0621 41.9794 10.8858 42.462 9.8604C42.9566 8.83496 43.6382 8.03874 44.5068 7.47173C45.3875 6.90472 46.3828 6.62122 47.4927 6.62122ZM47.4203 6.94694C46.6482 6.94694 45.9666 7.21838 45.3754 7.76126C44.7964 8.29208 44.344 9.04005 44.0182 10.0052C43.7046 10.9703 43.5477 12.0741 43.5477 13.3167C43.5477 14.5714 43.7227 15.6752 44.0725 16.6283C44.4344 17.5814 44.917 18.3173 45.5202 18.836C46.1234 19.3548 46.799 19.6141 47.5469 19.6141C48.319 19.6141 48.9946 19.3487 49.5737 18.8179C50.1648 18.275 50.6172 17.521 50.9309 16.5559C51.2566 15.5908 51.4195 14.4869 51.4195 13.2444C51.4195 11.9897 51.2385 10.8858 50.8766 9.93278C50.5268 8.97973 50.0502 8.24382 49.447 7.72507C48.8438 7.20632 48.1682 6.94694 47.4203 6.94694ZM47.6193 3.11059C47.9089 3.58109 48.3492 4.03349 48.9403 4.46779C49.5435 4.89003 50.2312 5.23386 51.0033 5.49927L50.9128 5.75261C50.189 5.59578 49.4712 5.40275 48.7594 5.17354C48.0597 4.94432 47.5047 4.71511 47.0945 4.48589C46.7568 4.71511 46.2983 4.94432 45.7193 5.17354C45.1522 5.40275 44.5792 5.59578 44.0001 5.75261L43.9097 5.49927C44.6817 5.23386 45.3634 4.89003 45.9545 4.46779C46.5577 4.03349 47.0041 3.58109 47.2936 3.11059H47.6193ZM66.1749 7.23648C65.7527 7.26061 65.439 7.32696 65.2339 7.43554C65.0289 7.53205 64.8901 7.70094 64.8177 7.94222C64.7453 8.17144 64.7092 8.51526 64.7092 8.9737V19.777H64.2929L56.6926 8.0327V17.5874C56.6926 18.0579 56.7288 18.4077 56.8012 18.637C56.8857 18.8662 57.0425 19.0351 57.2717 19.1436C57.5009 19.2402 57.8568 19.3005 58.3394 19.3246V19.6865C57.9051 19.6503 57.2898 19.6322 56.4936 19.6322C55.7697 19.6322 55.2088 19.6503 54.8106 19.6865V19.3246C55.2329 19.3005 55.5466 19.2402 55.7516 19.1436C55.9567 19.0351 56.0955 18.8662 56.1678 18.637C56.2402 18.3957 56.2764 18.0458 56.2764 17.5874V8.79274C56.2764 8.3343 56.2402 8.00254 56.1678 7.79746C56.0955 7.59237 55.9567 7.45363 55.7516 7.38125C55.5586 7.30886 55.245 7.26061 54.8106 7.23648V6.87456C55.2088 6.91075 55.7697 6.92885 56.4936 6.92885C57.0365 6.92885 57.507 6.91075 57.9051 6.87456L64.2929 16.7188V8.9737C64.2929 8.5032 64.2507 8.15334 64.1663 7.92413C64.0939 7.69491 63.9431 7.53205 63.7139 7.43554C63.4847 7.32696 63.1288 7.26061 62.6462 7.23648V6.87456C63.0805 6.91075 63.6958 6.92885 64.492 6.92885C65.2158 6.92885 65.7768 6.91075 66.1749 6.87456V7.23648ZM78.6803 7.23648C78.258 7.26061 77.9443 7.32696 77.7393 7.43554C77.5342 7.53205 77.3954 7.70094 77.3231 7.94222C77.2507 8.17144 77.2145 8.51526 77.2145 8.9737V14.4206C77.2145 15.2892 77.1542 16.0372 77.0335 16.6645C76.9249 17.2798 76.7379 17.8106 76.4725 18.2569C76.1709 18.7757 75.7246 19.1859 75.1334 19.4875C74.5544 19.7891 73.8969 19.9399 73.161 19.9399C71.8339 19.9399 70.8206 19.6141 70.1208 18.9627C69.59 18.4681 69.2341 17.9071 69.0532 17.2798C68.8722 16.6524 68.7817 15.7175 68.7817 14.4749V8.79274C68.7817 8.3343 68.7456 8.00254 68.6732 7.79746C68.6008 7.59237 68.462 7.45363 68.257 7.38125C68.0639 7.30886 67.7503 7.26061 67.316 7.23648V6.87456C67.8227 6.91075 68.5948 6.92885 69.6323 6.92885C70.6094 6.92885 71.3755 6.91075 71.9304 6.87456V7.23648C71.4961 7.26061 71.1764 7.30886 70.9714 7.38125C70.7783 7.45363 70.6456 7.59237 70.5732 7.79746C70.5009 8.00254 70.4647 8.3343 70.4647 8.79274V14.7825C70.4647 15.7476 70.531 16.5499 70.6637 17.1893C70.7964 17.8287 71.0679 18.3414 71.478 18.7274C71.9003 19.1135 72.5156 19.3065 73.3238 19.3065C74.6026 19.3065 75.5014 18.8963 76.0201 18.076C76.5389 17.2556 76.7983 16.1035 76.7983 14.6196V8.9737C76.7983 8.32224 76.6776 7.87587 76.4363 7.63459C76.2071 7.39331 75.7789 7.26061 75.1515 7.23648V6.87456C75.5858 6.91075 76.2011 6.92885 76.9973 6.92885C77.7212 6.92885 78.2821 6.91075 78.6803 6.87456V7.23648ZM83.7949 6.67551C84.3257 6.67551 84.7419 6.73582 85.0435 6.85646C85.3572 6.96504 85.6769 7.1279 86.0026 7.34506C86.268 7.51395 86.4731 7.5984 86.6179 7.5984C86.7265 7.5984 86.8109 7.53808 86.8712 7.41744C86.9316 7.28474 86.9798 7.07965 87.016 6.80218H87.4322C87.3719 7.50189 87.3417 8.73242 87.3417 10.4938H86.9255C86.8531 9.51658 86.5696 8.69622 86.075 8.0327C85.5924 7.35712 84.8867 7.01933 83.9578 7.01933C83.3063 7.01933 82.7755 7.21838 82.3653 7.6165C81.9552 8.00254 81.7501 8.5032 81.7501 9.11846C81.7501 9.5769 81.8526 9.97501 82.0577 10.3128C82.2748 10.6506 82.5463 10.9401 82.872 11.1814C83.1977 11.4227 83.6622 11.7303 84.2654 12.1043L84.7902 12.43C85.5502 12.9005 86.1474 13.3167 86.5817 13.6787C87.0281 14.0285 87.384 14.4327 87.6494 14.8911C87.9148 15.3495 88.0475 15.8864 88.0475 16.5016C88.0475 17.5995 87.6856 18.45 86.9617 19.0532C86.2379 19.6443 85.321 19.9399 84.2111 19.9399C83.632 19.9399 83.1555 19.8795 82.7815 19.7589C82.4196 19.6383 82.0698 19.4754 81.732 19.2703C81.4666 19.1014 81.2615 19.017 81.1167 19.017C81.0081 19.017 80.9237 19.0833 80.8634 19.216C80.803 19.3367 80.7548 19.5357 80.7186 19.8132H80.3024C80.3506 19.1497 80.3748 17.702 80.3748 15.4702H80.791C80.8754 16.6886 81.177 17.6779 81.6958 18.4379C82.2145 19.1979 83.0108 19.5779 84.0844 19.5779C84.7359 19.5779 85.2908 19.3789 85.7493 18.9808C86.2077 18.5706 86.4369 17.9674 86.4369 17.1712C86.4369 16.4956 86.2077 15.9226 85.7493 15.4521C85.3029 14.9816 84.5911 14.4507 83.614 13.8596C82.9022 13.4253 82.3231 13.0393 81.8767 12.7015C81.4424 12.3637 81.0865 11.9595 80.8091 11.489C80.5316 11.0065 80.3929 10.4455 80.3929 9.80611C80.3929 8.79274 80.7186 8.02064 81.37 7.48982C82.0215 6.94695 82.8298 6.67551 83.7949 6.67551ZM98.0195 17.8226C98.0195 18.3896 98.1462 18.7817 98.3995 18.9989C98.6649 19.204 99.1173 19.3065 99.7567 19.3065V19.6865C98.4538 19.6383 97.6214 19.6141 97.2595 19.6141C96.9217 19.6141 96.1375 19.6322 94.907 19.6684L94.4727 19.6865V19.3065C95.1121 19.3065 95.5886 19.1979 95.9023 18.9808C96.228 18.7636 96.3909 18.3776 96.3909 17.8226V13.4434C96.3909 12.8643 96.3305 12.4421 96.2099 12.1767C96.0893 11.8992 95.8842 11.7183 95.5946 11.6338C95.3172 11.5373 94.8829 11.489 94.2917 11.489V11.0909C95.1724 11.0668 95.8962 10.9884 96.4632 10.8557C97.0423 10.723 97.5611 10.4938 98.0195 10.168V17.8226Z" fill="#FFF1E4"></path><path d="M16.966 6.97317C15.8859 6.96745 14.8344 8.00755 15.3144 9.29911H13.5028C13.1997 9.29911 12.909 9.41953 12.6946 9.63388C12.4803 9.84822 12.3599 10.1389 12.3599 10.4421V11.585C12.3599 11.7366 12.4201 11.882 12.5272 11.9891C12.6344 12.0963 12.7798 12.1565 12.9313 12.1565H18.0747V10.4421H19.2177V12.1565H24.361C24.5126 12.1565 24.658 12.0963 24.7651 11.9891C24.8723 11.882 24.9325 11.7366 24.9325 11.585V10.4421C24.9325 10.1389 24.8121 9.84822 24.5977 9.63388C24.3834 9.41953 24.0927 9.29911 23.7895 9.29911H21.9779C22.6466 7.43036 20.132 6.11023 18.9719 7.72181L18.6462 8.15614L18.3204 7.71038C17.9604 7.20176 17.4632 6.97888 16.966 6.97317ZM16.9317 8.15614C17.4404 8.15614 17.6975 8.77334 17.3375 9.13338C16.9775 9.49341 16.3603 9.23624 16.3603 8.72762C16.3602 8.57606 16.4205 8.4307 16.5276 8.32352C16.6348 8.21635 16.7802 8.15614 16.9317 8.15614ZM20.3606 8.15614C20.8693 8.15614 21.1264 8.77334 20.7664 9.13338C20.4064 9.49341 19.7892 9.23624 19.7892 8.72762C19.7892 8.57606 19.8494 8.4307 19.9565 8.32352C20.0637 8.21635 20.2091 8.15614 20.3606 8.15614ZM12.9313 12.728V17.2999C12.9313 17.603 13.0518 17.8937 13.2661 18.1081C13.4805 18.3224 13.7712 18.4429 14.0743 18.4429H23.2181C23.5212 18.4429 23.8119 18.3224 24.0263 18.1081C24.2406 17.8937 24.361 17.603 24.361 17.2999V12.728H19.2177V17.2999H18.0747V12.728H12.9313Z" fill="#FFF1E4"></path></svg>