<svg xmlns="http://www.w3.org/2000/svg" width="304" height="33" viewBox="0 0 304 33" fill="none"><path d="M153.033 27.4722C155.314 27.4722 157.257 26.6567 158.547 25.1452L156.881 23.5541C155.869 24.6679 154.619 25.2049 153.172 25.2049C150.295 25.2049 148.213 23.1762 148.213 20.3123C148.213 17.4483 150.295 15.4197 153.172 15.4197C154.619 15.4197 155.869 15.9566 156.881 17.0505L158.547 15.4793C157.257 13.9678 155.314 13.1523 153.053 13.1523C148.788 13.1523 145.615 16.1555 145.615 20.3123C145.615 24.469 148.788 27.4722 153.033 27.4722Z" fill="black"></path><path d="M165.152 27.4125C168.445 27.4125 170.805 25.1452 170.805 21.963C170.805 18.7808 168.445 16.5334 165.152 16.5334C161.899 16.5334 159.519 18.7808 159.519 21.963C159.519 25.1452 161.899 27.4125 165.152 27.4125ZM165.152 25.2844C163.367 25.2844 162.018 23.9917 162.018 21.963C162.018 19.9344 163.367 18.6416 165.152 18.6416C166.957 18.6416 168.306 19.9344 168.306 21.963C168.306 23.9917 166.957 25.2844 165.152 25.2844Z" fill="black"></path><path d="M186.545 16.5334C184.859 16.5334 183.431 17.2096 182.578 18.3035C181.844 17.1102 180.555 16.5334 179.007 16.5334C177.56 16.5334 176.33 17.0505 175.536 18.0052V16.6527H173.176V27.2733H175.655V21.8835C175.655 19.7753 176.766 18.7013 178.412 18.7013C179.92 18.7013 180.793 19.6162 180.793 21.5056V27.2733H183.272V21.8835C183.272 19.7753 184.402 18.7013 186.029 18.7013C187.536 18.7013 188.409 19.6162 188.409 21.5056V27.2733H190.888V21.1874C190.888 17.9853 189.103 16.5334 186.545 16.5334Z" fill="black"></path><path d="M199.928 16.5334C198.48 16.5334 197.25 17.0306 196.417 18.045V16.6527H194.057V31.1317H196.536V25.9805C197.389 26.9551 198.579 27.4125 199.928 27.4125C203.022 27.4125 205.303 25.2645 205.303 21.963C205.303 18.6814 203.022 16.5334 199.928 16.5334ZM199.65 25.2844C197.865 25.2844 196.496 23.9917 196.496 21.963C196.496 19.9344 197.865 18.6416 199.65 18.6416C201.435 18.6416 202.784 19.9344 202.784 21.963C202.784 23.9917 201.435 25.2844 199.65 25.2844Z" fill="black"></path><path d="M210.015 18.2041V16.6527H207.654V27.2733H210.134V22.1221C210.134 19.9543 211.324 18.8405 213.208 18.8405C213.387 18.8405 213.565 18.8604 213.783 18.9002V16.5334C212.018 16.5334 210.729 17.0903 210.015 18.2041Z" fill="black"></path><path d="M219.875 16.5334C218.169 16.5334 216.523 16.971 215.392 17.8461L216.364 19.6559C217.157 18.9996 218.387 18.6018 219.577 18.6018C221.342 18.6018 222.215 19.4571 222.215 20.9089V21.068H219.478C216.265 21.068 215.075 22.4602 215.075 24.2303C215.075 26.08 216.602 27.4125 219.022 27.4125C220.609 27.4125 221.759 26.8954 222.354 25.9805V27.2733H224.694V21.0481C224.694 17.9853 222.929 16.5334 219.875 16.5334ZM219.537 25.6026C218.268 25.6026 217.514 25.0259 217.514 24.1309C217.514 23.3552 217.971 22.7188 219.656 22.7188H222.215V23.9519C221.799 25.0458 220.747 25.6026 219.537 25.6026Z" fill="black"></path><path d="M238.976 27.4722C242.784 27.4722 244.589 25.5629 244.589 23.3353C244.589 18.224 236.358 20.1532 236.358 17.1897C236.358 16.1356 237.23 15.3003 239.373 15.3003C240.582 15.3003 241.951 15.6583 243.201 16.3942L244.014 14.3854C242.804 13.5899 241.058 13.1523 239.392 13.1523C235.584 13.1523 233.799 15.0617 233.799 17.3091C233.799 22.4801 242.05 20.5112 242.05 23.5143C242.05 24.5486 241.138 25.3242 238.976 25.3242C237.27 25.3242 235.505 24.6878 234.394 23.7928L233.501 25.8015C234.652 26.796 236.814 27.4722 238.976 27.4722Z" fill="black"></path><path d="M256.865 22.0227C256.865 18.7013 254.604 16.5334 251.51 16.5334C248.356 16.5334 246.035 18.8007 246.035 21.963C246.035 25.1253 248.336 27.4125 251.886 27.4125C253.711 27.4125 255.199 26.8159 256.151 25.6822L254.822 24.1508C254.068 24.9264 253.136 25.3043 251.946 25.3043C250.101 25.3043 248.812 24.3099 248.514 22.7586H256.825C256.845 22.5199 256.865 22.2216 256.865 22.0227ZM251.51 18.5223C253.136 18.5223 254.306 19.5764 254.505 21.1078H248.495C248.733 19.5565 249.903 18.5223 251.51 18.5223Z" fill="black"></path><path d="M267.398 16.6527V18.0648C266.526 17.0107 265.217 16.5334 263.729 16.5334C260.694 16.5334 258.374 18.5621 258.374 21.6448C258.374 24.7275 260.694 26.796 263.729 26.796C265.157 26.796 266.407 26.3385 267.279 25.3839V25.9408C267.279 28.0887 266.248 29.1627 263.908 29.1627C262.44 29.1627 260.932 28.6655 260 27.8898L258.889 29.7594C260.099 30.7538 262.063 31.2709 264.046 31.2709C267.756 31.2709 269.759 29.5207 269.759 25.6623V16.6527H267.398ZM264.106 24.6878C262.222 24.6878 260.873 23.4547 260.873 21.6448C260.873 19.8548 262.222 18.6416 264.106 18.6416C265.97 18.6416 267.319 19.8548 267.319 21.6448C267.319 23.4547 265.97 24.6878 264.106 24.6878Z" fill="black"></path><path d="M280.794 16.6527V22.0227C280.794 24.1508 279.623 25.2248 277.898 25.2248C276.331 25.2248 275.418 24.3099 275.418 22.3807V16.6527H272.939V22.7188C272.939 25.9209 274.784 27.4125 277.501 27.4125C278.87 27.4125 280.119 26.8954 280.913 25.9209V27.2733H283.273V16.6527H280.794Z" fill="black"></path><path d="M288.879 18.2041V16.6527H286.519V27.2733H288.998V22.1221C288.998 19.9543 290.189 18.8405 292.073 18.8405C292.251 18.8405 292.43 18.8604 292.648 18.9002V16.5334C290.883 16.5334 289.594 17.0903 288.879 18.2041Z" fill="black"></path><path d="M298.739 16.5334C297.034 16.5334 295.387 16.971 294.257 17.8461L295.229 19.6559C296.022 18.9996 297.252 18.6018 298.442 18.6018C300.207 18.6018 301.08 19.4571 301.08 20.9089V21.068H298.343C295.13 21.068 293.939 22.4602 293.939 24.2303C293.939 26.08 295.467 27.4125 297.887 27.4125C299.473 27.4125 300.624 26.8954 301.219 25.9805V27.2733H303.559V21.0481C303.559 17.9853 301.794 16.5334 298.739 16.5334ZM298.402 25.6026C297.133 25.6026 296.379 25.0259 296.379 24.1309C296.379 23.3552 296.835 22.7188 298.521 22.7188H301.08V23.9519C300.663 25.0458 299.612 25.6026 298.402 25.6026Z" fill="black"></path><rect x="134.868" y="9.62891" width="1.7613" height="21.1356" fill="black"></rect><path d="M32.5006 29.646V11.2402C32.4998 11.2178 32.5037 11.1956 32.5118 11.1747C32.5201 11.1539 32.5326 11.135 32.5484 11.1192C32.5643 11.1034 32.5832 11.0908 32.6041 11.0827C32.625 11.0745 32.6474 11.0707 32.6697 11.0714H36.2124C36.2574 11.0714 36.3005 11.0892 36.3322 11.1208C36.3639 11.1525 36.3817 11.1954 36.3817 11.2402V17.8728H36.4364C36.9128 17.3062 37.5138 16.8567 38.1925 16.5592C38.8713 16.2618 39.6096 16.1242 40.3503 16.1574C43.1396 16.1574 44.0349 17.9763 44.0349 20.3886V29.646C44.0349 29.6908 44.0171 29.7337 43.9854 29.7653C43.9536 29.797 43.9105 29.8147 43.8657 29.8147H40.3229C40.278 29.8147 40.235 29.797 40.2033 29.7653C40.1716 29.7337 40.1537 29.6908 40.1537 29.646V20.7317C40.1537 19.6861 39.062 19.3649 38.3633 19.3649C37.6645 19.3649 36.3817 19.8223 36.3817 21.1291V29.646C36.3817 29.6908 36.3639 29.7337 36.3322 29.7653C36.3005 29.797 36.2574 29.8147 36.2124 29.8147H32.6697C32.6248 29.8147 32.5818 29.797 32.5501 29.7653C32.5184 29.7337 32.5006 29.6908 32.5006 29.646Z" fill="black"></path><path d="M60.2503 25.7641V19.4474H58.6212C58.5766 19.4474 58.5338 19.4298 58.5021 19.3982C58.4706 19.3668 58.4529 19.3241 58.4529 19.2795V17.013C58.4533 16.9783 58.4645 16.9445 58.4848 16.9163C58.5052 16.8881 58.5339 16.867 58.5668 16.8557L60.7391 16.2215L61.8958 12.605C61.9071 12.5814 61.9239 12.5608 61.9446 12.5448C61.9653 12.5288 61.9896 12.5178 62.0152 12.5128H63.9159C63.9382 12.512 63.9605 12.5159 63.9813 12.5241C64.0021 12.5322 64.0209 12.5445 64.0367 12.5604C64.0524 12.5761 64.0648 12.595 64.0731 12.6157C64.0812 12.6365 64.0851 12.6586 64.0842 12.6809V16.2486H66.9353C66.9574 16.2486 66.9793 16.2529 66.9998 16.2613C67.0201 16.2697 67.0387 16.2822 67.0543 16.2978C67.0699 16.3134 67.0823 16.332 67.0908 16.3523C67.0992 16.3726 67.1037 16.3946 67.1037 16.4166V19.312C67.1037 19.3338 67.0992 19.3554 67.0907 19.3754C67.0822 19.3955 67.0698 19.4138 67.054 19.4289C67.0383 19.4441 67.0197 19.456 66.9993 19.4639C66.9788 19.4717 66.9571 19.4754 66.9353 19.4746H64.0842V25.3629C64.0842 25.9756 64.4318 26.3497 65.2844 26.3497H66.9136C66.9582 26.3497 67.001 26.3673 67.0325 26.3989C67.0642 26.4304 67.0819 26.4732 67.0819 26.5178C67.0819 26.5611 67.0819 28.5565 67.0819 29.0607C67.0812 29.0946 67.0705 29.1276 67.0512 29.1555C67.032 29.1834 67.0048 29.2051 66.9733 29.2179C66.1217 29.6094 65.1955 29.8128 64.258 29.8143C61.4179 29.8143 60.2503 28.1334 60.2503 25.7641Z" fill="black"></path><path d="M115.031 25.7692V19.4604H113.409C113.364 19.4604 113.322 19.4427 113.29 19.4113C113.259 19.3799 113.241 19.3371 113.241 19.2925V17.029C113.242 16.9942 113.253 16.9605 113.273 16.9325C113.293 16.9043 113.322 16.8832 113.355 16.872L115.518 16.2384L116.669 12.6266C116.68 12.5936 116.701 12.5651 116.729 12.5446C116.758 12.5243 116.791 12.5132 116.826 12.5128H118.718C118.74 12.512 118.763 12.5158 118.783 12.524C118.804 12.5322 118.823 12.5445 118.838 12.5602C118.854 12.576 118.866 12.5949 118.875 12.6156C118.883 12.6362 118.887 12.6584 118.886 12.6806V16.2438H121.724C121.746 16.2438 121.768 16.2482 121.788 16.2566C121.809 16.265 121.827 16.2774 121.843 16.2931C121.858 16.3086 121.871 16.3271 121.879 16.3475C121.888 16.3678 121.892 16.3896 121.892 16.4117V19.3033C121.892 19.3251 121.888 19.3468 121.879 19.3669C121.871 19.3869 121.858 19.405 121.843 19.4202C121.827 19.4354 121.808 19.4473 121.788 19.4551C121.768 19.4629 121.746 19.4665 121.724 19.4658H118.886V25.3683C118.886 25.9803 119.232 26.354 120.081 26.354H121.703C121.747 26.354 121.79 26.3716 121.821 26.4032C121.853 26.4346 121.87 26.4773 121.87 26.5218C121.87 26.5651 121.87 28.5579 121.87 29.0615C121.87 29.0955 121.859 29.1284 121.84 29.1563C121.82 29.1842 121.794 29.2059 121.762 29.2186C120.914 29.6096 119.992 29.8128 119.059 29.8143C116.193 29.8143 115.031 28.1356 115.031 25.7692Z" fill="black"></path><path d="M69.9873 29.6366V15.8672C69.9873 15.82 70.0047 15.7748 70.0358 15.7416C70.0668 15.7081 70.1088 15.6893 70.1527 15.6893H73.2783C73.3126 15.6898 73.3457 15.7017 73.3735 15.7232C73.4012 15.7447 73.422 15.775 73.433 15.8098L73.7958 17.2098H73.8491C74.3102 16.6133 74.8936 16.1397 75.5534 15.8261C76.2132 15.5126 76.9316 15.3675 77.6522 15.4025C79.5137 15.4025 80.4097 16.3032 80.9111 17.6975H81.0179C81.4531 16.9576 82.0632 16.3553 82.7856 15.9522C83.5082 15.5489 84.3174 15.3592 85.1302 15.4025C87.8559 15.4025 88.7307 17.3187 88.7307 19.8604V29.6137C88.7307 29.6607 88.7132 29.7061 88.6822 29.7393C88.6512 29.7728 88.6092 29.7914 88.5653 29.7914H85.093C85.0491 29.7914 85.007 29.7728 84.9759 29.7393C84.945 29.7061 84.9276 29.6607 84.9276 29.6137V20.3079C84.9276 19.2063 83.9621 18.7818 83.2794 18.7818C82.49 18.7818 81.3165 19.3211 81.2632 20.5602V29.6366C81.2639 29.6601 81.2602 29.6835 81.2522 29.7055C81.2441 29.7274 81.2319 29.7474 81.2164 29.764C81.2009 29.7808 81.1824 29.7939 81.162 29.8025C81.1416 29.8112 81.1198 29.8152 81.0979 29.8144H77.6148C77.5719 29.8129 77.5312 29.7936 77.5014 29.7603C77.4715 29.7271 77.4548 29.6827 77.4548 29.6366V20.3079C77.4548 19.2063 76.4307 18.7818 75.684 18.7818C75.1945 18.7784 74.7232 18.9802 74.3697 19.3443C74.0162 19.7085 73.8084 20.2063 73.7904 20.7324V29.6366C73.7904 29.6827 73.7737 29.7271 73.7439 29.7603C73.714 29.7936 73.6733 29.8129 73.6304 29.8144H70.158C70.1358 29.8152 70.1138 29.8111 70.0931 29.8026C70.0724 29.794 70.0535 29.7809 70.0376 29.7644C70.0217 29.7478 70.0091 29.7279 70.0003 29.7059C69.9917 29.684 69.9873 29.6604 69.9873 29.6366Z" fill="black"></path><path d="M91.002 18.7177V16.2027C91.0034 16.163 91.0176 16.1248 91.0421 16.0942C91.0666 16.0636 91.1001 16.0423 91.1374 16.0337C92.8304 15.6511 94.5547 15.4377 96.2868 15.3965C99.6961 15.3965 101.707 16.2535 101.707 20.0822V29.3634C101.707 29.4097 101.689 29.4542 101.658 29.4869C101.626 29.5198 101.584 29.5381 101.539 29.5381H98.173C98.1366 29.538 98.1014 29.525 98.0729 29.5016C98.0443 29.4781 98.0243 29.4452 98.0158 29.4084L97.6527 28.0383H97.8044C96.845 29.4253 95.5713 29.8145 94.0102 29.8145C91.5061 29.8145 90.1726 27.7902 90.1726 25.405C90.1726 21.802 92.704 21.0802 94.5956 21.0802H97.8477V20.1668C97.8477 19.039 97.0347 18.7854 93.9452 18.7854C92.6388 18.7854 91.235 18.8924 91.1754 18.8924C91.1303 18.8925 91.087 18.8742 91.0546 18.8416C91.0223 18.8089 91.0034 18.7645 91.002 18.7177ZM97.8423 23.5444H95.7285C94.6065 23.5444 93.8801 23.9898 93.8801 25.2358C93.8801 26.5779 94.8069 26.8823 95.6959 26.8823C95.9848 26.8987 96.2737 26.8514 96.5438 26.7439C96.8139 26.6363 97.0592 26.4707 97.2638 26.258C97.4683 26.0452 97.6275 25.79 97.7309 25.509C97.8344 25.2279 97.8796 24.9273 97.864 24.627V23.4992L97.8423 23.5444Z" fill="black"></path><path d="M103.148 29.6587V15.8577C103.148 15.8114 103.166 15.7668 103.199 15.7336C103.231 15.7004 103.274 15.6808 103.32 15.6794H106.645C106.687 15.6788 106.726 15.6931 106.758 15.7194C106.789 15.7457 106.811 15.7825 106.817 15.8232L107.213 17.9681H107.27C107.686 17.1768 108.314 16.5172 109.082 16.0632C109.851 15.6091 110.73 15.3787 111.622 15.3976C111.669 15.3976 111.714 15.4164 111.747 15.4499C111.781 15.4833 111.799 15.5286 111.799 15.5759V19.4172C111.799 19.4645 111.781 19.5098 111.747 19.5433C111.714 19.5767 111.669 19.5955 111.622 19.5955H110.67C108.107 19.5955 107.23 20.6248 107.23 21.8956V29.6357C107.23 29.682 107.212 29.7264 107.18 29.7598C107.148 29.793 107.104 29.8124 107.058 29.814H103.338C103.292 29.8173 103.247 29.8031 103.212 29.7742C103.177 29.7453 103.154 29.704 103.148 29.6587Z" fill="black"></path><path d="M45.4766 22.6054C45.4766 18.1944 47.1644 15.3965 51.9509 15.3965C56.7374 15.3965 58.4528 18.2169 58.4528 22.6054C58.4528 26.994 56.7651 29.8145 51.9509 29.8145C47.1367 29.8145 45.4766 27.0448 45.4766 22.6054ZM49.7264 22.6054C49.7264 24.9916 50.0695 26.4525 51.9398 26.4525C53.8101 26.4525 54.1919 24.9916 54.1919 22.6054C54.1919 20.2194 53.8434 18.781 51.9398 18.781C50.0362 18.781 49.7264 20.2194 49.7264 22.6054Z" fill="black"></path><path d="M22.384 21.2111C22.5194 18.3828 21.5872 13.7576 19.3724 9.97382C19.3126 9.87661 19.213 9.91454 19.2329 10.0161C19.3803 10.591 19.4162 11.6352 18.5558 11.5719C17.0261 11.4619 18.6076 7.98675 15.2494 5.57695C15.2369 5.56442 15.2206 5.55707 15.2034 5.55624C15.1862 5.5554 15.1693 5.56115 15.1558 5.57241C15.1423 5.58369 15.133 5.59974 15.1297 5.61765C15.1265 5.63555 15.1293 5.65412 15.1379 5.66997C15.3689 6.13501 15.5043 7.58512 14.9745 8.07977C14.5483 8.4772 13.7794 8.37148 13.0107 7.06512C12.4993 6.164 12.2355 5.12914 12.2488 4.07735C12.2621 3.02554 12.5523 1.99863 13.0863 1.11249C13.15 1.00255 13.0625 0.960281 12.9907 0.985653C8.3698 2.60487 7.44561 8.38838 6.46167 10.4938C6.29835 10.8489 6.15494 11.0307 5.87211 11.0139C5.03159 10.9546 5.63709 9.04786 5.92788 8.38417C5.93423 8.36805 5.93517 8.35013 5.93053 8.33337C5.9259 8.31661 5.91599 8.30205 5.90244 8.29215C5.8889 8.28223 5.87256 8.27756 5.85615 8.27893C5.83975 8.28028 5.82429 8.28758 5.81235 8.29961C3.11526 11.4453 1.39011 15.3918 0.868779 19.6088C0.868779 19.5115 0.82894 19.9554 0.805037 20.2809C0.805037 20.4078 0.797069 20.536 0.781134 20.6657C0.781134 20.8179 0.781134 20.9702 0.781134 21.1265C0.757366 24.1702 1.87382 27.0993 3.88492 29.2692C5.896 31.4392 8.63698 32.6726 11.5048 32.6977C14.3727 32.723 17.1326 31.5381 19.1773 29.4038C21.222 27.2694 22.3841 24.3604 22.4078 21.3167C22.3879 21.2787 22.384 21.245 22.384 21.2111ZM11.5327 26.5422C10.5401 26.5363 9.57153 26.218 8.74955 25.6275C7.92754 25.037 7.28913 24.201 6.91514 23.2251C6.54115 22.2493 6.44839 21.1777 6.64862 20.1459C6.84886 19.1142 7.33307 18.1685 8.03995 17.429C8.74683 16.6895 9.64458 16.1892 10.6195 15.9915C11.5945 15.7939 12.6028 15.9075 13.5169 16.3184C14.4309 16.7292 15.2094 17.4187 15.754 18.2995C16.2985 19.1802 16.5846 20.2126 16.5759 21.266C16.5644 22.6747 16.027 24.0211 15.0816 25.0102C14.1363 25.9992 12.8601 26.5501 11.5327 26.5422Z" fill="black"></path></svg>