<svg xmlns="http://www.w3.org/2000/svg" width="237" height="143" viewBox="0 0 237 143" fill="none"><path d="M60.243 39.1607C59.7234 44.4315 59.4636 49.1826 59.4636 53.4141C59.4636 57.1259 59.5749 60.1696 59.7976 62.5452H57.2365C56.6426 56.829 55.9002 52.5975 55.0094 49.8508C54.1185 47.0298 52.5595 44.9883 50.3325 43.7262C48.1054 42.39 44.6905 41.7218 40.0878 41.7218H33.0724C30.3999 41.7218 28.4326 41.9445 27.1706 42.39C25.9828 42.7612 25.1662 43.5778 24.7208 44.8398C24.2754 46.1018 24.0527 48.1433 24.0527 50.9643V78.3576H32.1816C34.7799 78.3576 36.7843 77.7637 38.1948 76.5759C39.6053 75.3139 40.5332 73.8663 40.9786 72.2331C41.4983 70.5257 41.9066 68.4099 42.2035 65.8859L42.5376 63.6588H45.0988C44.8761 66.7767 44.7647 70.2658 44.7647 74.1261V79.4712C44.7647 83.2572 44.9874 88.528 45.4328 95.2836H42.8717C42.7974 94.7639 42.5747 92.9822 42.2035 89.9385C41.8324 86.8206 40.793 84.4822 39.0856 82.9232C37.4524 81.3642 35.1511 80.5847 32.1816 80.5847H24.0527V106.196C24.0527 109.017 24.3496 111.059 24.9435 112.321C25.5374 113.583 26.5767 114.437 28.0615 114.882C29.5462 115.327 31.9589 115.624 35.2995 115.773V118C31.4392 117.777 25.9828 117.666 18.9303 117.666C12.546 117.666 7.79485 117.777 4.67691 118V115.773C7.34943 115.624 9.27958 115.327 10.4674 114.882C11.7294 114.437 12.5831 113.583 13.0285 112.321C13.474 111.059 13.6967 109.017 13.6967 106.196V50.9643C13.6967 48.1433 13.474 46.1018 13.0285 44.8398C12.5831 43.5778 11.7294 42.724 10.4674 42.2786C9.27958 41.8332 7.34943 41.5362 4.67691 41.3878V39.1607C11.9521 39.3834 22.7164 39.4947 36.9699 39.4947C47.8826 39.4947 55.6404 39.3834 60.243 39.1607ZM121.426 108.646C123.207 113.249 125.768 115.624 129.109 115.773V118C126.14 117.777 122.168 117.666 117.194 117.666C110.81 117.666 106.059 117.777 102.941 118V115.773C105.762 115.624 107.766 115.29 108.954 114.771C110.216 114.177 110.847 113.137 110.847 111.653C110.847 110.391 110.401 108.646 109.511 106.419L102.718 88.1569H75.7701L71.2045 99.9605C69.7198 103.969 68.9774 107.013 68.9774 109.092C68.9774 111.393 69.7569 113.063 71.3159 114.103C72.9491 115.142 75.3989 115.699 78.6653 115.773V118C74.4338 117.777 70.1652 117.666 65.8595 117.666C62.5189 117.666 59.735 117.777 57.5079 118V115.773C61.2197 114.882 64.1521 111.653 66.3049 106.085L92.4733 38.6039H94.255L121.426 108.646ZM101.827 85.9298L89.3554 52.6346L76.6609 85.9298H101.827ZM212.304 121.229C210.671 126.871 208.333 131.103 205.289 133.924C201.651 137.264 196.64 138.935 190.256 138.935C186.841 138.935 183.501 138.415 180.234 137.376C176.968 136.336 172.848 134.703 167.874 132.476C162.38 130.101 157.889 128.319 154.4 127.131L151.727 126.352C148.535 127.465 145.454 128.022 142.485 128.022C139.07 128.022 137.362 127.28 137.362 125.795C137.362 124.236 139.367 123.456 143.376 123.456C145.974 123.456 148.758 123.753 151.727 124.347C154.103 123.679 156.85 122.64 159.968 121.229C161.898 120.338 163.345 119.707 164.31 119.336C158 118.742 152.507 116.775 147.83 113.434C143.227 110.094 139.627 105.528 137.028 99.7378C134.504 93.8731 133.242 87.0433 133.242 79.2485C133.242 71.0824 134.727 63.8444 137.697 57.5342C140.74 51.2241 144.935 46.3245 150.28 42.8354C155.699 39.3463 161.823 37.6017 168.653 37.6017C175.706 37.6017 181.867 39.1978 187.138 42.39C192.483 45.5821 196.603 50.2219 199.499 56.3093C202.468 62.3225 203.953 69.5235 203.953 77.9122C203.953 85.6328 202.616 92.5368 199.944 98.6242C197.271 104.637 193.522 109.463 188.697 113.1C183.872 116.664 178.341 118.742 172.105 119.336V119.448C170.324 119.67 168.765 119.967 167.428 120.338C166.166 120.784 164.459 121.452 162.306 122.343C159.633 123.531 157.406 124.384 155.625 124.904C163.865 126.537 170.843 127.836 176.559 128.801C182.35 129.767 187.138 130.249 190.924 130.249C196.195 130.249 200.352 129.47 203.396 127.911C206.514 126.426 208.927 123.976 210.634 120.561L212.304 121.229ZM144.378 78.803C144.378 86.5237 145.454 93.3163 147.607 99.181C149.834 105.046 152.804 109.574 156.516 112.766C160.227 115.958 164.385 117.555 168.987 117.555C173.738 117.555 177.896 115.921 181.459 112.655C185.097 109.314 187.88 104.675 189.811 98.7356C191.815 92.7967 192.817 86.004 192.817 78.3576C192.817 70.637 191.704 63.8444 189.477 57.9797C187.324 52.115 184.391 47.5865 180.68 44.3944C176.968 41.2022 172.81 39.6061 168.208 39.6061C163.457 39.6061 159.262 41.2764 155.625 44.6171C152.061 47.8835 149.277 52.4862 147.273 58.4251C145.343 64.364 144.378 71.1567 144.378 78.803Z" fill="black"></path><path d="M222.404 44.75C222.404 45.1265 222.292 45.4946 222.083 45.8077C221.874 46.1208 221.576 46.3648 221.229 46.5089C220.881 46.653 220.498 46.6907 220.129 46.6173C219.759 46.5438 219.42 46.3625 219.154 46.0962C218.888 45.83 218.706 45.4907 218.633 45.1214C218.559 44.7521 218.597 44.3693 218.741 44.0214C218.885 43.6735 219.129 43.3762 219.442 43.167C219.755 42.9578 220.123 42.8461 220.5 42.8461C221.005 42.8461 221.489 43.0467 221.846 43.4038C222.203 43.7608 222.404 44.2451 222.404 44.75ZM220.5 27.6154C217 27.6154 214.154 30.1776 214.154 33.3269V33.9615C214.154 34.2982 214.288 34.621 214.526 34.859C214.764 35.097 215.086 35.2308 215.423 35.2308C215.76 35.2308 216.083 35.097 216.321 34.859C216.559 34.621 216.692 34.2982 216.692 33.9615V33.3269C216.692 31.5817 218.401 30.1538 220.5 30.1538C222.599 30.1538 224.308 31.5817 224.308 33.3269C224.308 35.0721 222.599 36.5 220.5 36.5C220.163 36.5 219.841 36.6337 219.603 36.8717C219.364 37.1098 219.231 37.4326 219.231 37.7692V39.0385C219.231 39.3751 219.364 39.6979 219.603 39.9359C219.841 40.174 220.163 40.3077 220.5 40.3077C220.837 40.3077 221.159 40.174 221.397 39.9359C221.636 39.6979 221.769 39.3751 221.769 39.0385V38.9242C224.663 38.3927 226.846 36.0843 226.846 33.3269C226.846 30.1776 224 27.6154 220.5 27.6154ZM237 36.5C237 39.7634 236.032 42.9535 234.219 45.6669C232.406 48.3803 229.829 50.4952 226.814 51.744C223.799 52.9929 220.482 53.3196 217.281 52.6829C214.08 52.0463 211.14 50.4748 208.833 48.1673C206.525 45.8597 204.954 42.9197 204.317 39.719C203.68 36.5183 204.007 33.2007 205.256 30.1857C206.505 27.1707 208.62 24.5938 211.333 22.7808C214.047 20.9677 217.237 20 220.5 20C224.875 20.0046 229.069 21.7445 232.162 24.8378C235.256 27.9312 236.995 32.1253 237 36.5ZM234.462 36.5C234.462 33.7387 233.643 31.0393 232.109 28.7434C230.574 26.4474 228.394 24.6579 225.843 23.6012C223.292 22.5445 220.485 22.268 217.776 22.8067C215.068 23.3454 212.58 24.6751 210.628 26.6277C208.675 28.5803 207.345 31.068 206.807 33.7762C206.268 36.4845 206.545 39.2917 207.601 41.8428C208.658 44.394 210.447 46.5745 212.743 48.1086C215.039 49.6427 217.739 50.4615 220.5 50.4615C224.202 50.4573 227.75 48.985 230.368 46.3677C232.985 43.7503 234.457 40.2015 234.462 36.5Z" fill="black"></path></svg>