<svg xmlns="http://www.w3.org/2000/svg" width="87" height="87" viewBox="0 0 87 87" fill="none"><path d="M86.9565 19.7794C86.9203 17.9132 86.7706 16.0509 86.5084 14.2027C86.1959 12.5589 85.6649 10.9642 84.9294 9.46125C83.3193 6.28271 80.7381 3.7 77.5605 2.088C76.0672 1.35595 74.4828 0.826379 72.8494 0.5133C70.9872 0.245699 69.1103 0.0931598 67.2292 0.05655C66.4332 0.0261 65.4022 0.0130501 64.9237 0.0130501L22.0849 0C21.6065 0 20.5755 0.01305 19.7794 0.0435C17.9132 0.0794597 16.0508 0.229087 14.2027 0.49155C12.5589 0.804053 10.9642 1.33512 9.46125 2.0706C6.28289 3.68097 3.70025 6.26209 2.088 9.4395C1.35614 10.9329 0.82658 12.5172 0.5133 14.1505C0.244484 16.0127 0.0904935 17.8897 0.0522004 19.7708C0.0261004 20.5668 0.00870041 21.5977 0.00870041 22.0762L0 64.915C0 65.3935 0.01305 66.4245 0.0435 67.2205C0.0794597 69.0868 0.229087 70.9492 0.49155 72.7972C0.804103 74.4411 1.33516 76.0357 2.0706 77.5387C3.68097 80.7171 6.26209 83.2998 9.4395 84.912C10.933 85.6438 12.5172 86.1733 14.1505 86.4867C16.0128 86.7543 17.8897 86.9069 19.7708 86.9434C20.5668 86.9739 21.5977 86.9869 22.0762 86.9869L64.915 86.9957C65.3935 86.9957 66.4245 86.9826 67.2205 86.9521C69.0868 86.916 70.9492 86.7664 72.7972 86.5041C74.4411 86.1914 76.0357 85.6603 77.5387 84.925C80.7187 83.3154 83.303 80.7342 84.9164 77.5562C85.6483 76.0628 86.1779 74.4785 86.491 72.8451C86.76 70.9829 86.914 69.106 86.9521 67.2249C86.9782 66.4288 86.9957 65.3979 86.9957 64.9194L87 22.0849C87 21.6065 86.9869 20.5755 86.9565 19.7794ZM44.444 73.763H44.4309C39.2529 73.7619 34.1577 72.4638 29.6105 69.9872L13.1674 74.298L17.5697 58.2334C14.1612 52.3188 12.7993 45.4449 13.6951 38.6775C14.5909 31.9101 17.6943 25.6273 22.5242 20.8031C27.3541 15.979 33.6406 12.8831 40.4091 11.9953C47.1775 11.1076 54.0498 12.4777 59.9604 15.8931C65.8709 19.3086 70.4896 24.5786 73.1002 30.8861C75.7109 37.1936 76.1676 44.1863 74.3997 50.7798C72.6319 57.3733 68.738 63.1994 63.322 67.3548C57.906 71.5101 51.2704 73.7626 44.444 73.763Z" fill="#FFF1E4"></path><path d="M44.458 16.9711C39.8517 16.9698 35.3291 18.2025 31.3607 20.5411C27.3922 22.8797 24.1227 26.2388 21.8923 30.2691C19.6618 34.2993 18.5517 38.8535 18.6776 43.458C18.8035 48.0626 20.1606 52.5494 22.6079 56.4517L23.2213 57.4262L20.6156 66.9352L30.3727 64.3775L31.3123 64.9343C35.2842 67.2866 39.8156 68.5276 44.4319 68.5274H44.4449C51.2823 68.5285 57.84 65.8135 62.6756 60.9796C67.5111 56.1456 70.2284 49.5888 70.2295 42.7514C70.2307 35.9141 67.5157 29.3563 62.6817 24.5207C57.8478 19.6852 51.291 16.968 44.4536 16.9668L44.458 16.9711ZM59.6134 53.8157C59.0432 54.7573 58.2843 55.5708 57.3844 56.2048C56.4846 56.8389 55.4632 57.2799 54.3847 57.5001C52.7562 57.7794 51.0851 57.6751 49.504 57.1956C48.0045 56.7283 46.5307 56.1824 45.0887 55.56C39.737 52.8743 35.1755 48.8434 31.8517 43.8629C30.0385 41.5572 28.9379 38.7724 28.6849 35.8501C28.664 34.644 28.8945 33.4466 29.3619 32.3345C29.8292 31.2223 30.5231 30.2196 31.3993 29.3904C31.6582 29.095 31.9754 28.8563 32.331 28.6894C32.6866 28.5225 33.0728 28.4309 33.4655 28.4203C33.9788 28.4203 34.4965 28.4203 34.9489 28.4464C35.4274 28.4682 36.0625 28.2637 36.6889 29.7775C37.3414 31.3261 38.89 35.1411 39.0814 35.5282C39.2042 35.7312 39.2745 35.9616 39.2859 36.1986C39.2973 36.4356 39.2494 36.6716 39.1466 36.8854C38.9515 37.3508 38.6907 37.7859 38.3723 38.1774C37.9808 38.6298 37.5589 39.1866 37.2109 39.5346C36.8194 39.9217 36.4192 40.3393 36.8672 41.1136C38.0309 43.1062 39.4837 44.9152 41.1781 46.4816C43.0165 48.116 45.126 49.4173 47.4116 50.327C48.1859 50.7184 48.6383 50.6488 49.0907 50.1312C49.5431 49.6135 51.0265 47.8692 51.5441 47.0949C52.0618 46.3206 52.5751 46.4511 53.2841 46.7078C53.9932 46.9644 57.8081 48.8393 58.5824 49.2308C59.3567 49.6222 59.8744 49.8093 60.0658 50.1312C60.2779 51.3772 60.1206 52.658 59.6134 53.8157Z" fill="#FFF1E4"></path></svg>