<svg xmlns="http://www.w3.org/2000/svg" width="175" height="31" viewBox="0 0 175 31" fill="none"><path d="M15.4955 18C15.1589 18.0022 14.8328 18.1017 14.5692 18.2825C14.3057 18.4634 14.1199 18.7152 14.0415 18.9978C13.963 19.2805 13.9965 19.5776 14.1365 19.842C14.2765 20.1063 14.515 20.3225 14.814 20.4561V22H16.0645V20.5047C16.3874 20.3905 16.6543 20.1831 16.8198 19.9179C16.9852 19.6527 17.039 19.3462 16.9718 19.0506C16.9047 18.755 16.7208 18.4887 16.4516 18.2971C16.1823 18.1055 15.8444 18.0005 15.4955 18Z" fill="black"></path><path d="M21.0909 13.5904V11.0202C21.1182 9.71826 20.5979 8.45909 19.6438 7.51825C18.6898 6.57741 17.3796 6.03151 16 6C14.6204 6.03151 13.3102 6.57741 12.3562 7.51825C11.4021 8.45909 10.8818 9.71826 10.9091 11.0202V13.5904H9V23.799C9 24.1175 9.13409 24.423 9.37277 24.6482C9.61146 24.8735 9.93518 25 10.2727 25H21.7273C22.0648 25 22.3885 24.8735 22.6272 24.6482C22.8659 24.423 23 24.1175 23 23.799V13.5904H21.0909ZM12.1818 11.0202C12.1544 10.0367 12.5406 9.08299 13.256 8.36736C13.9714 7.65173 14.958 7.23241 16 7.20101C17.042 7.23241 18.0286 7.65173 18.744 8.36736C19.4594 9.08299 19.8456 10.0367 19.8182 11.0202V13.5904H12.1818V11.0202ZM10.2727 23.799L22 24.0172L21.7273 14.7914V23.799H10.2727Z" fill="black"></path><path d="M46.5579 8.23029H44.7618C44.7289 7.99799 44.662 7.79166 44.5608 7.61129C44.4597 7.42818 44.3298 7.27241 44.1712 7.14396C44.0127 7.01551 43.8295 6.91713 43.6217 6.84881C43.4167 6.78048 43.1938 6.74632 42.9533 6.74632C42.5186 6.74632 42.1399 6.85427 41.8173 7.07017C41.4947 7.28334 41.2446 7.59489 41.0669 8.00482C40.8891 8.41203 40.8003 8.90668 40.8003 9.48879C40.8003 10.0873 40.8891 10.5901 41.0669 10.9973C41.2473 11.4046 41.4988 11.712 41.8214 11.9197C42.144 12.1274 42.5172 12.2313 42.941 12.2313C43.1788 12.2313 43.3989 12.1998 43.6012 12.137C43.8062 12.0741 43.9881 11.9826 44.1466 11.8623C44.3052 11.7393 44.4364 11.5904 44.5403 11.4155C44.6469 11.2406 44.7207 11.0411 44.7618 10.817L46.5579 10.8252C46.5115 11.2105 46.3953 11.5822 46.2094 11.9402C46.0262 12.2955 45.7788 12.6139 45.4671 12.8953C45.1582 13.1741 44.7891 13.3955 44.3599 13.5594C43.9334 13.7207 43.4508 13.8013 42.9123 13.8013C42.1632 13.8013 41.4933 13.6319 40.9028 13.293C40.315 12.9541 39.8503 12.4635 39.5085 11.8213C39.1695 11.1791 39 10.4016 39 9.48879C39 8.57327 39.1722 7.79439 39.5167 7.15216C39.8612 6.50993 40.3287 6.02074 40.9192 5.68459C41.5097 5.34571 42.1741 5.17627 42.9123 5.17627C43.3989 5.17627 43.85 5.24459 44.2655 5.38124C44.6838 5.51788 45.0543 5.71739 45.3769 5.97974C45.6995 6.23937 45.962 6.55775 46.1643 6.93489C46.3693 7.31203 46.5005 7.74383 46.5579 8.23029Z" fill="black"></path><path d="M55.5492 9.48879C55.5492 10.4043 55.3756 11.1832 55.0283 11.8254C54.6839 12.4676 54.2136 12.9582 53.6176 13.2971C53.0244 13.6332 52.3573 13.8013 51.6164 13.8013C50.87 13.8013 50.2002 13.6319 49.607 13.293C49.0137 12.9541 48.5448 12.4635 48.2004 11.8213C47.8559 11.1791 47.6836 10.4016 47.6836 9.48879C47.6836 8.57327 47.8559 7.79439 48.2004 7.15216C48.5448 6.50993 49.0137 6.02074 49.607 5.68459C50.2002 5.34571 50.87 5.17627 51.6164 5.17627C52.3573 5.17627 53.0244 5.34571 53.6176 5.68459C54.2136 6.02074 54.6839 6.50993 55.0283 7.15216C55.3756 7.79439 55.5492 8.57327 55.5492 9.48879ZM53.7489 9.48879C53.7489 8.89575 53.66 8.39563 53.4823 7.98843C53.3073 7.58122 53.0599 7.27241 52.74 7.06197C52.4202 6.85154 52.0456 6.74632 51.6164 6.74632C51.1872 6.74632 50.8126 6.85154 50.4928 7.06197C50.1729 7.27241 49.9241 7.58122 49.7464 7.98843C49.5714 8.39563 49.4839 8.89575 49.4839 9.48879C49.4839 10.0818 49.5714 10.5819 49.7464 10.9892C49.9241 11.3964 50.1729 11.7052 50.4928 11.9156C50.8126 12.126 51.1872 12.2313 51.6164 12.2313C52.0456 12.2313 52.4202 12.126 52.74 11.9156C53.0599 11.7052 53.3073 11.3964 53.4823 10.9892C53.66 10.5819 53.7489 10.0818 53.7489 9.48879Z" fill="black"></path><path d="M56.8645 5.29105H59.0544L61.3673 10.9318H61.4657L63.7786 5.29105H65.9685V13.6865H64.2461V8.22209H64.1764L62.0029 13.6455H60.8301L58.6566 8.20159H58.5869V13.6865H56.8645V5.29105Z" fill="black"></path><path d="M67.4315 13.6865V5.29105H70.745C71.382 5.29105 71.9247 5.41267 72.3731 5.6559C72.8214 5.89639 73.1632 6.23117 73.3983 6.66024C73.6362 7.08657 73.7551 7.57849 73.7551 8.136C73.7551 8.69351 73.6348 9.18544 73.3942 9.61177C73.1536 10.0381 72.805 10.3701 72.3485 10.6079C71.8946 10.8457 71.3451 10.9646 70.6999 10.9646H68.588V9.54208H70.4129C70.7546 9.54208 71.0362 9.48332 71.2576 9.36581C71.4818 9.24556 71.6486 9.08022 71.7579 8.86979C71.87 8.65662 71.9261 8.41203 71.9261 8.136C71.9261 7.85725 71.87 7.61402 71.7579 7.40632C71.6486 7.19588 71.4818 7.03328 71.2576 6.9185C71.0335 6.80098 70.7491 6.74222 70.4046 6.74222H69.2072V13.6865H67.4315Z" fill="black"></path><path d="M74.9085 13.6865V5.29105H78.222C78.8562 5.29105 79.3976 5.40447 79.8459 5.6313C80.297 5.8554 80.6401 6.17378 80.8753 6.58645C81.1131 6.99638 81.232 7.47874 81.232 8.03352C81.232 8.59103 81.1117 9.07065 80.8712 9.47239C80.6306 9.87139 80.282 10.1775 79.8254 10.3906C79.3716 10.6038 78.8221 10.7104 78.1769 10.7104H75.9583V9.28382H77.8898C78.2288 9.28382 78.5104 9.23736 78.7346 9.14444C78.9588 9.05152 79.1255 8.91215 79.2349 8.72631C79.347 8.54047 79.403 8.30954 79.403 8.03352C79.403 7.75476 79.347 7.51973 79.2349 7.32843C79.1255 7.13713 78.9574 6.99228 78.7305 6.8939C78.5063 6.79278 78.2233 6.74222 77.8816 6.74222H76.6841V13.6865H74.9085ZM79.444 9.86593L81.5314 13.6865H79.5712L77.5289 9.86593H79.444Z" fill="black"></path><path d="M83.9345 13.6865H82.0317L84.931 5.29105H87.2193L90.1146 13.6865H88.2118L86.108 7.20955H86.0424L83.9345 13.6865ZM83.8156 10.3865H88.3102V11.7721H83.8156V10.3865Z" fill="black"></path><path d="M97.4029 5.29105V13.6865H95.6272V6.97589H95.578L93.6547 8.1811V6.60695L95.7338 5.29105H97.4029Z" fill="black"></path><path d="M102.692 13.871C101.987 13.8683 101.38 13.6947 100.871 13.3504C100.365 13.006 99.9758 12.5073 99.7025 11.8541C99.4318 11.2009 99.2978 10.4152 99.3006 9.49699C99.3006 8.58147 99.4359 7.80122 99.7066 7.15626C99.98 6.51129 100.37 6.02074 100.875 5.68459C101.384 5.34571 101.989 5.17627 102.692 5.17627C103.395 5.17627 103.999 5.34571 104.505 5.68459C105.013 6.02347 105.404 6.51539 105.677 7.16036C105.951 7.80259 106.086 8.58147 106.083 9.49699C106.083 10.418 105.947 11.205 105.673 11.8582C105.403 12.5114 105.014 13.0101 104.509 13.3545C104.003 13.6988 103.397 13.871 102.692 13.871ZM102.692 12.3993C103.173 12.3993 103.557 12.1575 103.844 11.6737C104.131 11.19 104.274 10.4644 104.271 9.49699C104.271 8.86022 104.205 8.33004 104.074 7.90644C103.946 7.48284 103.762 7.16446 103.524 6.95129C103.289 6.73812 103.012 6.63154 102.692 6.63154C102.214 6.63154 101.831 6.87067 101.544 7.34893C101.257 7.82718 101.112 8.5432 101.109 9.49699C101.109 10.142 101.173 10.6803 101.302 11.1121C101.433 11.5412 101.618 11.8637 101.855 12.0796C102.093 12.2927 102.372 12.3993 102.692 12.3993Z" fill="black"></path><path d="M110.643 13.871C109.937 13.8683 109.33 13.6947 108.822 13.3504C108.316 13.006 107.926 12.5073 107.653 11.8541C107.382 11.2009 107.248 10.4152 107.251 9.49699C107.251 8.58147 107.387 7.80122 107.657 7.15626C107.931 6.51129 108.32 6.02074 108.826 5.68459C109.334 5.34571 109.94 5.17627 110.643 5.17627C111.345 5.17627 111.949 5.34571 112.455 5.68459C112.964 6.02347 113.355 6.51539 113.628 7.16036C113.901 7.80259 114.037 8.58147 114.034 9.49699C114.034 10.418 113.897 11.205 113.624 11.8582C113.353 12.5114 112.965 13.0101 112.459 13.3545C111.954 13.6988 111.348 13.871 110.643 13.871ZM110.643 12.3993C111.124 12.3993 111.508 12.1575 111.795 11.6737C112.082 11.19 112.224 10.4644 112.221 9.49699C112.221 8.86022 112.156 8.33004 112.025 7.90644C111.896 7.48284 111.713 7.16446 111.475 6.95129C111.24 6.73812 110.962 6.63154 110.643 6.63154C110.164 6.63154 109.781 6.87067 109.494 7.34893C109.207 7.82718 109.062 8.5432 109.06 9.49699C109.06 10.142 109.124 10.6803 109.252 11.1121C109.384 11.5412 109.568 11.8637 109.806 12.0796C110.044 12.2927 110.323 12.3993 110.643 12.3993Z" fill="black"></path><path d="M119.897 12.1124V11.6696C119.897 11.3335 119.968 11.0247 120.111 10.7432C120.255 10.459 120.465 10.2321 120.738 10.0627C121.014 9.89052 121.35 9.80444 121.747 9.80444C122.149 9.80444 122.486 9.88916 122.76 10.0586C123.036 10.228 123.244 10.4549 123.383 10.7391C123.525 11.0206 123.596 11.3308 123.596 11.6696V12.1124C123.596 12.4485 123.525 12.7587 123.383 13.0429C123.241 13.3244 123.032 13.5499 122.756 13.7193C122.48 13.8915 122.143 13.9776 121.747 13.9776C121.345 13.9776 121.007 13.8915 120.734 13.7193C120.461 13.5499 120.253 13.3244 120.111 13.0429C119.968 12.7587 119.897 12.4485 119.897 12.1124ZM121.091 11.6696V12.1124C121.091 12.3064 121.137 12.4895 121.23 12.6617C121.326 12.8339 121.498 12.9199 121.747 12.9199C121.996 12.9199 122.165 12.8352 122.255 12.6658C122.348 12.4963 122.395 12.3119 122.395 12.1124V11.6696C122.395 11.4701 122.351 11.2843 122.264 11.1121C122.176 10.94 122.004 10.8539 121.747 10.8539C121.501 10.8539 121.33 10.94 121.234 11.1121C121.139 11.2843 121.091 11.4701 121.091 11.6696ZM115.587 7.30793V6.8652C115.587 6.52632 115.66 6.21614 115.805 5.93465C115.95 5.65043 116.159 5.4236 116.432 5.25416C116.708 5.08472 117.042 5 117.433 5C117.837 5 118.176 5.08472 118.45 5.25416C118.723 5.4236 118.931 5.65043 119.073 5.93465C119.215 6.21614 119.286 6.52632 119.286 6.8652V7.30793C119.286 7.64681 119.214 7.957 119.069 8.23849C118.927 8.51997 118.718 8.74544 118.441 8.91488C118.168 9.08159 117.832 9.16494 117.433 9.16494C117.034 9.16494 116.696 9.08022 116.42 8.91078C116.146 8.73861 115.939 8.51314 115.796 8.23439C115.657 7.9529 115.587 7.64408 115.587 7.30793ZM116.789 6.8652V7.30793C116.789 7.50744 116.835 7.69191 116.928 7.86135C117.024 8.03079 117.192 8.11551 117.433 8.11551C117.684 8.11551 117.855 8.03079 117.945 7.86135C118.038 7.69191 118.085 7.50744 118.085 7.30793V6.8652C118.085 6.6657 118.041 6.47987 117.953 6.30769C117.866 6.13552 117.692 6.04943 117.433 6.04943C117.189 6.04943 117.021 6.13689 116.928 6.31179C116.835 6.4867 116.789 6.67117 116.789 6.8652ZM116.129 13.6865L121.903 5.29105H122.977L117.203 13.6865H116.129Z" fill="black"></path><path d="M132.502 7.70557C132.47 7.37489 132.329 7.118 132.08 6.93489C131.831 6.75179 131.494 6.66024 131.067 6.66024C130.777 6.66024 130.533 6.70123 130.333 6.78322C130.133 6.86247 129.98 6.97315 129.874 7.11526C129.77 7.25738 129.718 7.41862 129.718 7.59899C129.712 7.7493 129.744 7.88048 129.812 7.99253C129.883 8.10457 129.98 8.20159 130.103 8.28358C130.226 8.36283 130.369 8.43252 130.53 8.49265C130.691 8.55004 130.863 8.59923 131.047 8.64022L131.801 8.82059C132.168 8.90258 132.504 9.0119 132.81 9.14854C133.116 9.28519 133.381 9.45326 133.606 9.65276C133.83 9.85226 134.003 10.0873 134.126 10.3579C134.252 10.6284 134.316 10.9386 134.319 11.2884C134.316 11.8022 134.185 12.2477 133.925 12.6248C133.668 12.9992 133.297 13.2903 132.81 13.498C132.326 13.7029 131.742 13.8054 131.059 13.8054C130.381 13.8054 129.79 13.7016 129.287 13.4939C128.787 13.2862 128.396 12.9787 128.114 12.5715C127.836 12.1616 127.689 11.6546 127.676 11.0506H129.394C129.413 11.3321 129.494 11.5672 129.636 11.7557C129.781 11.9416 129.974 12.0823 130.214 12.178C130.457 12.2709 130.732 12.3173 131.038 12.3173C131.339 12.3173 131.6 12.2736 131.822 12.1862C132.046 12.0987 132.219 11.9771 132.343 11.8213C132.466 11.6655 132.527 11.4865 132.527 11.2843C132.527 11.0957 132.471 10.9372 132.359 10.8088C132.25 10.6803 132.088 10.571 131.875 10.4808C131.664 10.3906 131.406 10.3087 131.1 10.2349L130.185 10.0053C129.477 9.83313 128.918 9.56394 128.508 9.19773C128.098 8.83153 127.894 8.33824 127.897 7.71787C127.894 7.20955 128.03 6.76545 128.303 6.38558C128.579 6.00571 128.958 5.70919 129.439 5.49602C129.92 5.28286 130.467 5.17627 131.079 5.17627C131.703 5.17627 132.247 5.28286 132.712 5.49602C133.179 5.70919 133.543 6.00571 133.802 6.38558C134.062 6.76545 134.196 7.20545 134.204 7.70557H132.502Z" fill="black"></path><path d="M135.514 13.6865V5.29105H141.173V6.75452H137.289V8.755H140.882V10.2185H137.289V12.2231H141.189V13.6865H135.514Z" fill="black"></path><path d="M148.153 8.00482C148.096 7.80532 148.015 7.62905 147.912 7.47601C147.808 7.32023 147.681 7.18905 147.53 7.08247C147.383 6.97315 147.213 6.8898 147.022 6.83241C146.833 6.77502 146.624 6.74632 146.394 6.74632C145.965 6.74632 145.588 6.85291 145.262 7.06607C144.94 7.27924 144.688 7.58942 144.508 7.99662C144.327 8.40109 144.237 8.89575 144.237 9.48059C144.237 10.0654 144.326 10.5628 144.504 10.9728C144.681 11.3827 144.933 11.6956 145.258 11.9115C145.584 12.1247 145.968 12.2313 146.411 12.2313C146.812 12.2313 147.156 12.1602 147.44 12.0181C147.727 11.8732 147.946 11.6696 148.096 11.4073C148.249 11.1449 148.326 10.8347 148.326 10.4767L148.687 10.53H146.521V9.19363H150.036V10.2513C150.036 10.9892 149.88 11.6232 149.568 12.1534C149.257 12.6808 148.827 13.088 148.281 13.375C147.734 13.6592 147.108 13.8013 146.402 13.8013C145.615 13.8013 144.923 13.6278 144.327 13.2807C143.731 12.9309 143.267 12.4349 142.933 11.7926C142.602 11.1477 142.437 10.3824 142.437 9.49699C142.437 8.81649 142.535 8.20979 142.732 7.67688C142.932 7.14123 143.211 6.68757 143.569 6.31589C143.927 5.94422 144.344 5.66136 144.819 5.46733C145.295 5.27329 145.811 5.17627 146.366 5.17627C146.841 5.17627 147.284 5.24596 147.694 5.38534C148.104 5.52198 148.468 5.71602 148.785 5.96745C149.105 6.21887 149.366 6.51813 149.568 6.8652C149.771 7.20955 149.9 7.58942 149.958 8.00482H148.153Z" fill="black"></path><path d="M156.557 5.29105H158.333V10.7432C158.333 11.3554 158.187 11.891 157.894 12.3501C157.604 12.8093 157.198 13.1673 156.676 13.4242C156.154 13.6783 155.546 13.8054 154.851 13.8054C154.154 13.8054 153.544 13.6783 153.022 13.4242C152.5 13.1673 152.094 12.8093 151.804 12.3501C151.515 11.891 151.37 11.3554 151.37 10.7432V5.29105H153.145V10.5915C153.145 10.9113 153.215 11.1955 153.354 11.4442C153.497 11.6929 153.696 11.8883 153.953 12.0304C154.21 12.1725 154.51 12.2436 154.851 12.2436C155.196 12.2436 155.495 12.1725 155.749 12.0304C156.006 11.8883 156.205 11.6929 156.344 11.4442C156.486 11.1955 156.557 10.9113 156.557 10.5915V5.29105Z" fill="black"></path><path d="M159.794 13.6865V5.29105H163.107C163.742 5.29105 164.283 5.40447 164.731 5.6313C165.182 5.8554 165.526 6.17378 165.761 6.58645C165.999 6.99638 166.117 7.47874 166.117 8.03352C166.117 8.59103 165.997 9.07065 165.757 9.47239C165.516 9.87139 165.167 10.1775 164.711 10.3906C164.257 10.6038 163.708 10.7104 163.062 10.7104H160.844V9.28382H162.775C163.114 9.28382 163.396 9.23736 163.62 9.14444C163.844 9.05152 164.011 8.91215 164.12 8.72631C164.232 8.54047 164.288 8.30954 164.288 8.03352C164.288 7.75476 164.232 7.51973 164.12 7.32843C164.011 7.13713 163.843 6.99228 163.616 6.8939C163.392 6.79278 163.109 6.74222 162.767 6.74222H161.57V13.6865H159.794ZM164.329 9.86593L166.417 13.6865H164.457L162.414 9.86593H164.329Z" fill="black"></path><path d="M168.82 13.6865H166.917L169.816 5.29105H172.105L175 13.6865H173.097L170.993 7.20955H170.928L168.82 13.6865ZM168.701 10.3865H173.196V11.7721H168.701V10.3865Z" fill="black"></path><path d="M39.5946 27.8565L43.4208 20.203V20.1497H39.0123V19.4611H44.2245V20.1825L40.4025 27.8565H39.5946Z" fill="black"></path><path d="M51.7487 27.8565H49.2881V19.4611H51.8963C52.6973 19.4611 53.3822 19.6278 53.9508 19.9612C54.5222 20.2946 54.9597 20.7728 55.2631 21.3959C55.5666 22.0191 55.7183 22.7665 55.7183 23.6383C55.7183 24.5183 55.5625 25.2739 55.2508 25.9052C54.9419 26.5338 54.4908 27.0162 53.8975 27.3523C53.307 27.6884 52.5907 27.8565 51.7487 27.8565ZM50.055 27.1678H51.7035C52.4253 27.1678 53.0295 27.0257 53.5161 26.7415C54.0028 26.4573 54.3678 26.0514 54.6111 25.524C54.8544 24.9965 54.9761 24.368 54.9761 23.6383C54.9733 22.9141 54.853 22.291 54.6152 21.769C54.3801 21.247 54.0301 20.8466 53.5654 20.5679C53.1033 20.2891 52.5319 20.1497 51.8512 20.1497H50.055V27.1678Z" fill="black"></path><path d="M58.3439 19.4611V27.8565H57.577V19.4611H58.3439Z" fill="black"></path><path d="M60.5892 27.8565H59.7854L62.8405 19.4611H63.6607L66.7159 27.8565H65.9121L63.2793 20.4572H63.2219L60.5892 27.8565ZM61.1674 24.6385H65.3339V25.3272H61.1674V24.6385Z" fill="black"></path><path d="M72.7155 21.5599C72.669 21.0926 72.4626 20.7209 72.0963 20.4449C71.7299 20.1689 71.2692 20.0309 70.7143 20.0309C70.3233 20.0309 69.9788 20.0978 69.6808 20.2317C69.3856 20.3656 69.1532 20.5515 68.9837 20.7892C68.8169 21.0243 68.7335 21.2921 68.7335 21.5927C68.7335 21.8141 68.7814 22.0081 68.8771 22.1748C68.9728 22.3415 69.1012 22.485 69.2625 22.6053C69.4266 22.7228 69.607 22.8239 69.8039 22.9086C70.0034 22.9933 70.2044 23.0644 70.4067 23.1218L71.2925 23.3759C71.5604 23.4497 71.8283 23.544 72.0963 23.6588C72.3642 23.7736 72.6089 23.9184 72.8303 24.0933C73.0545 24.2655 73.2336 24.4773 73.3675 24.7287C73.5042 24.9774 73.5726 25.2767 73.5726 25.6265C73.5726 26.0747 73.4564 26.4778 73.224 26.8358C72.9916 27.1938 72.6581 27.478 72.2234 27.6884C71.7887 27.8962 71.2679 28 70.6609 28C70.0896 28 69.5934 27.9057 69.1723 27.7171C68.7513 27.5258 68.4205 27.2621 68.1799 26.926C67.9393 26.5898 67.804 26.2004 67.7739 25.7577H68.5613C68.5886 26.0883 68.698 26.3685 68.8894 26.598C69.0807 26.8276 69.3295 27.0025 69.6357 27.1227C69.9419 27.2403 70.2837 27.299 70.6609 27.299C71.0792 27.299 71.4511 27.2293 71.7764 27.0899C72.1045 26.9478 72.3615 26.7511 72.5474 26.4996C72.736 26.2455 72.8303 25.9503 72.8303 25.6142C72.8303 25.33 72.7565 25.0922 72.6089 24.9009C72.4612 24.7069 72.2548 24.5442 71.9896 24.4131C71.7272 24.2819 71.4224 24.1657 71.0751 24.0646L70.0704 23.7695C69.4115 23.5727 68.9003 23.3008 68.5367 22.9537C68.1731 22.6066 67.9913 22.1639 67.9913 21.6255C67.9913 21.1746 68.1116 20.7783 68.3521 20.4367C68.5955 20.0924 68.9235 19.8245 69.3364 19.6332C69.7519 19.4392 70.2181 19.3422 70.7348 19.3422C71.2569 19.3422 71.719 19.4378 72.1209 19.6291C72.5228 19.8204 72.8413 20.0842 73.0764 20.4203C73.3142 20.7537 73.4414 21.1336 73.4578 21.5599H72.7155Z" fill="black"></path><path d="M81.1264 27.8565H78.6659V19.4611H81.2741C82.0751 19.4611 82.76 19.6278 83.3286 19.9612C83.9 20.2946 84.3374 20.7728 84.6409 21.3959C84.9444 22.0191 85.0961 22.7665 85.0961 23.6383C85.0961 24.5183 84.9403 25.2739 84.6286 25.9052C84.3197 26.5338 83.8686 27.0162 83.2753 27.3523C82.6848 27.6884 81.9685 27.8565 81.1264 27.8565ZM79.4328 27.1678H81.0813C81.8031 27.1678 82.4073 27.0257 82.8939 26.7415C83.3806 26.4573 83.7455 26.0514 83.9889 25.524C84.2322 24.9965 84.3538 24.368 84.3538 23.6383C84.3511 22.9141 84.2308 22.291 83.993 21.769C83.7578 21.247 83.4079 20.8466 82.9431 20.5679C82.4811 20.2891 81.9097 20.1497 81.229 20.1497H79.4328V27.1678Z" fill="black"></path><path d="M86.9548 27.8565V19.4611H91.8267V20.1497H87.7217V23.3103H91.5683V23.999H87.7217V27.1678H91.9087V27.8565H86.9548Z" fill="black"></path><path d="M102.87 22.0846C102.794 21.8059 102.682 21.5449 102.534 21.3017C102.386 21.0557 102.203 20.8412 101.985 20.6581C101.769 20.4722 101.518 20.3274 101.234 20.2235C100.953 20.1197 100.638 20.0678 100.291 20.0678C99.7442 20.0678 99.2548 20.2099 98.8228 20.4941C98.3909 20.7783 98.0491 21.1882 97.7976 21.7239C97.5488 22.2595 97.4244 22.9045 97.4244 23.6588C97.4244 24.4103 97.5502 25.0539 97.8017 25.5896C98.0532 26.1252 98.3977 26.5365 98.8351 26.8235C99.2753 27.1077 99.7783 27.2498 100.344 27.2498C100.861 27.2498 101.318 27.135 101.714 26.9055C102.11 26.6759 102.419 26.348 102.641 25.9216C102.865 25.4953 102.974 24.9883 102.969 24.4008L103.215 24.4787H100.525V23.79H103.715V24.4787C103.715 25.1947 103.57 25.8137 103.28 26.3357C102.991 26.8576 102.593 27.2608 102.087 27.545C101.581 27.8292 101 27.9713 100.344 27.9713C99.6116 27.9713 98.9705 27.795 98.4209 27.4425C97.8714 27.0872 97.4436 26.5871 97.1373 25.9421C96.8339 25.2944 96.6821 24.5333 96.6821 23.6588C96.6821 23.0002 96.7696 22.4058 96.9446 21.8756C97.1196 21.3454 97.367 20.8917 97.6869 20.5146C98.0095 20.1374 98.3909 19.8491 98.831 19.6496C99.2712 19.4474 99.7578 19.3463 100.291 19.3463C100.75 19.3463 101.17 19.4187 101.55 19.5635C101.933 19.7084 102.269 19.9079 102.559 20.162C102.851 20.4135 103.09 20.7045 103.276 21.0352C103.465 21.3632 103.592 21.713 103.658 22.0846H102.87Z" fill="black"></path><path d="M105.372 27.8565H104.568L107.623 19.4611H108.444L111.499 27.8565H110.695L108.062 20.4572H108.005L105.372 27.8565ZM105.95 24.6385H110.117V25.3272H105.95V24.6385Z" fill="black"></path><path d="M112.938 27.8565V19.4611H115.649C116.245 19.4611 116.742 19.569 117.142 19.7849C117.543 19.9981 117.845 20.2946 118.048 20.6745C118.253 21.0516 118.355 21.4848 118.355 21.974C118.355 22.4631 118.253 22.8949 118.048 23.2694C117.845 23.6438 117.545 23.9362 117.146 24.1466C116.746 24.357 116.252 24.4623 115.661 24.4623H113.352V23.7613H115.641C116.078 23.7613 116.442 23.6889 116.731 23.544C117.024 23.3992 117.241 23.1928 117.383 22.925C117.528 22.6572 117.601 22.3402 117.601 21.974C117.601 21.6077 117.528 21.288 117.383 21.0147C117.239 20.7387 117.02 20.5255 116.727 20.3752C116.438 20.2249 116.071 20.1497 115.628 20.1497H113.705V27.8565H112.938ZM116.641 24.0687L118.708 27.8565H117.822L115.776 24.0687H116.641Z" fill="black"></path><path d="M120.236 27.8565H119.432L122.487 19.4611H123.307L126.362 27.8565H125.559L122.926 20.4572H122.868L120.236 27.8565ZM120.814 24.6385H124.98V25.3272H120.814V24.6385Z" fill="black"></path><path d="M134.343 19.4611V27.8565H133.596L128.634 20.8261H128.569V27.8565H127.802V19.4611H128.544L133.523 26.4996H133.588V19.4611H134.343Z" fill="black"></path><path d="M136.067 20.1497V19.4611H142.157V20.1497H139.495V27.8565H138.729V20.1497H136.067Z" fill="black"></path><path d="M144.65 19.4611V27.8565H143.883V19.4611H144.65Z" fill="black"></path><path d="M146.896 27.8565H146.092L149.147 19.4611H149.967L153.022 27.8565H152.218L149.586 20.4572H149.528L146.896 27.8565ZM147.474 24.6385H151.64V25.3272H147.474V24.6385Z" fill="black"></path><path fill-rule="evenodd" clip-rule="evenodd" d="M16 29.3393C23.3967 29.3393 29.3929 23.1432 29.3929 15.5C29.3929 7.85677 23.3967 1.66071 16 1.66071C8.60333 1.66071 2.60714 7.85677 2.60714 15.5C2.60714 23.1432 8.60333 29.3393 16 29.3393ZM16 31C24.2843 31 31 24.0604 31 15.5C31 6.93959 24.2843 0 16 0C7.71573 0 1 6.93959 1 15.5C1 24.0604 7.71573 31 16 31Z" fill="black"></path><path fill-rule="evenodd" clip-rule="evenodd" d="M15.5 0.704545C7.3287 0.704545 0.704545 7.3287 0.704545 15.5C0.704545 23.6713 7.3287 30.2955 15.5 30.2955C23.6713 30.2955 30.2955 23.6713 30.2955 15.5C30.2955 7.3287 23.6713 0.704545 15.5 0.704545ZM0 15.5C0 6.93959 6.93959 0 15.5 0C24.0604 0 31 6.93959 31 15.5C31 24.0604 24.0604 31 15.5 31C6.93959 31 0 24.0604 0 15.5ZM15.5 2.32752C8.22504 2.32752 2.32752 8.22504 2.32752 15.5C2.32752 22.775 8.22504 28.6725 15.5 28.6725C22.775 28.6725 28.6725 22.775 28.6725 15.5C28.6725 8.22504 22.775 2.32752 15.5 2.32752ZM1.62297 15.5C1.62297 7.83593 7.83593 1.62297 15.5 1.62297C23.1641 1.62297 29.377 7.83593 29.377 15.5C29.377 23.1641 23.1641 29.377 15.5 29.377C7.83593 29.377 1.62297 23.1641 1.62297 15.5Z" fill="black"></path></svg>