<svg xmlns="http://www.w3.org/2000/svg" width="112" height="25" viewBox="0 0 112 25" fill="none"><rect width="112" height="25" rx="2.74667" fill="#A64142"></rect><path d="M35.408 13.2321C36.7351 13.4131 37.6821 13.7991 38.2491 14.3902C38.8161 14.9693 39.0996 15.669 39.0996 16.4894C39.0996 17.177 38.9247 17.7863 38.5748 18.3171C38.225 18.8479 37.7243 19.2641 37.0729 19.5657C36.4214 19.8552 35.6493 20 34.7566 20C34.4309 20 34.1534 19.994 33.9242 19.9819C33.1521 19.9578 32.392 19.9457 31.6441 19.9457C30.6548 19.9457 29.9069 19.9638 29.4002 20V19.6381C29.8345 19.614 30.1481 19.5657 30.3412 19.4933C30.5462 19.4209 30.685 19.2822 30.7574 19.0771C30.8298 18.872 30.8659 18.5403 30.8659 18.0818V9.10621C30.8659 8.64778 30.8298 8.31602 30.7574 8.11093C30.685 7.90585 30.5462 7.76711 30.3412 7.69473C30.1481 7.62234 29.8345 7.57409 29.4002 7.54996V7.18804C29.9069 7.22423 30.6428 7.24233 31.6079 7.24233L33.5622 7.22423C33.7915 7.21217 34.0508 7.20613 34.3404 7.20613C35.5709 7.20613 36.5119 7.46551 37.1633 7.98426C37.8269 8.50301 38.1586 9.19066 38.1586 10.0472C38.1586 10.7469 37.9354 11.3742 37.4891 11.9292C37.0548 12.4841 36.3611 12.9064 35.408 13.1959V13.2321ZM33.888 7.54996C33.514 7.54996 33.2305 7.59218 33.0375 7.67663C32.8565 7.76108 32.7298 7.91188 32.6574 8.12903C32.5851 8.34618 32.5489 8.67191 32.5489 9.10621V13.1959H33.7613C34.7505 13.1959 35.4382 12.9305 35.8242 12.3997C36.2224 11.8568 36.4214 11.139 36.4214 10.2463C36.4214 9.34146 36.2224 8.66588 35.8242 8.21951C35.4261 7.77314 34.7807 7.54996 33.888 7.54996ZM33.9061 19.5838C36.162 19.5838 37.29 18.5282 37.29 16.417C37.29 15.4639 37.0306 14.7401 36.5119 14.2455C36.0052 13.7509 35.1909 13.5035 34.0689 13.5035H32.5489V18.0818C32.5489 18.5161 32.5851 18.8358 32.6574 19.0409C32.7298 19.246 32.8565 19.3908 33.0375 19.4752C33.2305 19.5476 33.52 19.5838 33.9061 19.5838ZM46.6284 6.93469C47.7745 6.93469 48.7758 7.19407 49.6323 7.71282C50.5009 8.23157 51.1705 8.98557 51.641 9.97482C52.1235 10.952 52.3648 12.1222 52.3648 13.4854C52.3648 14.8125 52.1175 15.9887 51.6229 17.0142C51.1403 18.0396 50.4587 18.8358 49.578 19.4028C48.7094 19.9698 47.7202 20.2533 46.6103 20.2533C45.4642 20.2533 44.4569 19.994 43.5883 19.4752C42.7317 18.9565 42.0622 18.2085 41.5796 17.2313C41.1091 16.2421 40.8739 15.0658 40.8739 13.7026C40.8739 12.3756 41.1152 11.1993 41.5977 10.1739C42.0923 9.14844 42.774 8.35221 43.6426 7.78521C44.5232 7.2182 45.5185 6.93469 46.6284 6.93469ZM46.556 7.26042C45.7839 7.26042 45.1023 7.53186 44.5112 8.07474C43.9321 8.60556 43.4797 9.35352 43.154 10.3186C42.8403 11.2838 42.6835 12.3876 42.6835 13.6302C42.6835 14.8849 42.8584 15.9887 43.2083 16.9418C43.5702 17.8948 44.0527 18.6307 44.6559 19.1495C45.2591 19.6682 45.9347 19.9276 46.6827 19.9276C47.4548 19.9276 48.1304 19.6622 48.7094 19.1314C49.3006 18.5885 49.753 17.8345 50.0666 16.8694C50.3924 15.9043 50.5552 14.8004 50.5552 13.5578C50.5552 12.3032 50.3743 11.1993 50.0124 10.2463C49.6625 9.2932 49.186 8.5573 48.5828 8.03855C47.9796 7.5198 47.304 7.26042 46.556 7.26042ZM46.7551 3.42407C47.0446 3.89457 47.4849 4.34697 48.0761 4.78127C48.6793 5.20351 49.3669 5.54733 50.139 5.81274L50.0485 6.06609C49.3247 5.90925 48.6069 5.71623 47.8951 5.48701C47.1954 5.2578 46.6405 5.02858 46.2303 4.79937C45.8925 5.02858 45.4341 5.2578 44.855 5.48701C44.288 5.71623 43.7149 5.90925 43.1359 6.06609L43.0454 5.81274C43.8175 5.54733 44.4991 5.20351 45.0902 4.78127C45.6934 4.34697 46.1398 3.89457 46.4293 3.42407H46.7551ZM65.3107 7.54996C64.8884 7.57409 64.5748 7.64044 64.3697 7.74901C64.1646 7.84553 64.0259 8.01442 63.9535 8.2557C63.8811 8.48492 63.8449 8.82874 63.8449 9.28717V20.0905H63.4287L55.8284 8.34618V17.9009C55.8284 18.3714 55.8646 18.7212 55.937 18.9504C56.0214 19.1796 56.1782 19.3485 56.4074 19.4571C56.6367 19.5536 56.9925 19.614 57.4751 19.6381V20C57.0408 19.9638 56.4255 19.9457 55.6293 19.9457C54.9055 19.9457 54.3445 19.9638 53.9464 20V19.6381C54.3686 19.614 54.6823 19.5536 54.8874 19.4571C55.0925 19.3485 55.2312 19.1796 55.3036 18.9504C55.376 18.7092 55.4122 18.3593 55.4122 17.9009V9.10621C55.4122 8.64778 55.376 8.31602 55.3036 8.11093C55.2312 7.90585 55.0925 7.76711 54.8874 7.69473C54.6944 7.62234 54.3807 7.57409 53.9464 7.54996V7.18804C54.3445 7.22423 54.9055 7.24233 55.6293 7.24233C56.1722 7.24233 56.6427 7.22423 57.0408 7.18804L63.4287 17.0323V9.28717C63.4287 8.81668 63.3865 8.46682 63.302 8.23761C63.2296 8.00839 63.0788 7.84553 62.8496 7.74901C62.6204 7.64044 62.2645 7.57409 61.782 7.54996V7.18804C62.2163 7.22423 62.8315 7.24233 63.6277 7.24233C64.3516 7.24233 64.9126 7.22423 65.3107 7.18804V7.54996ZM77.816 7.54996C77.3938 7.57409 77.0801 7.64044 76.875 7.74901C76.6699 7.84553 76.5312 8.01442 76.4588 8.2557C76.3864 8.48492 76.3502 8.82874 76.3502 9.28717V14.7341C76.3502 15.6027 76.2899 16.3506 76.1693 16.978C76.0607 17.5932 75.8737 18.124 75.6083 18.5704C75.3067 19.0892 74.8603 19.4993 74.2692 19.8009C73.6901 20.1025 73.0326 20.2533 72.2967 20.2533C70.9697 20.2533 69.9563 19.9276 69.2566 19.2762C68.7258 18.7815 68.3699 18.2206 68.1889 17.5932C68.008 16.9659 67.9175 16.0309 67.9175 14.7884V9.10621C67.9175 8.64778 67.8813 8.31602 67.8089 8.11093C67.7365 7.90585 67.5978 7.76711 67.3927 7.69473C67.1997 7.62234 66.886 7.57409 66.4517 7.54996V7.18804C66.9584 7.22423 67.7305 7.24233 68.768 7.24233C69.7452 7.24233 70.5112 7.22423 71.0662 7.18804V7.54996C70.6319 7.57409 70.3122 7.62234 70.1071 7.69473C69.9141 7.76711 69.7814 7.90585 69.709 8.11093C69.6366 8.31602 69.6004 8.64778 69.6004 9.10621V15.096C69.6004 16.0611 69.6668 16.8634 69.7995 17.5028C69.9322 18.1421 70.2036 18.6549 70.6138 19.0409C71.036 19.427 71.6513 19.62 72.4596 19.62C73.7384 19.62 74.6371 19.2098 75.1559 18.3895C75.6746 17.5691 75.934 16.417 75.934 14.9331V9.28717C75.934 8.63572 75.8134 8.18935 75.5721 7.94807C75.3429 7.70679 74.9146 7.57409 74.2873 7.54996V7.18804C74.7216 7.22423 75.3368 7.24233 76.1331 7.24233C76.8569 7.24233 77.4179 7.22423 77.816 7.18804V7.54996ZM82.9307 6.98898C83.4615 6.98898 83.8777 7.0493 84.1793 7.16994C84.4929 7.27852 84.8126 7.44138 85.1384 7.65853C85.4038 7.82743 85.6089 7.91188 85.7536 7.91188C85.8622 7.91188 85.9467 7.85156 86.007 7.73092C86.0673 7.59821 86.1155 7.39313 86.1517 7.11565H86.5679C86.5076 7.81537 86.4775 9.04589 86.4775 10.8072H86.0613C85.9889 9.83005 85.7054 9.0097 85.2107 8.34618C84.7282 7.6706 84.0224 7.33281 83.0935 7.33281C82.4421 7.33281 81.9112 7.53186 81.5011 7.92997C81.0909 8.31602 80.8858 8.81668 80.8858 9.43194C80.8858 9.89037 80.9884 10.2885 81.1934 10.6263C81.4106 10.9641 81.682 11.2536 82.0078 11.4949C82.3335 11.7362 82.798 12.0438 83.4012 12.4178L83.9259 12.7435C84.686 13.214 85.2831 13.6302 85.7174 13.9921C86.1638 14.342 86.5197 14.7461 86.7851 15.2046C87.0505 15.663 87.1832 16.1998 87.1832 16.8151C87.1832 17.9129 86.8213 18.7634 86.0975 19.3666C85.3736 19.9578 84.4567 20.2533 83.3469 20.2533C82.7678 20.2533 82.2913 20.193 81.9173 20.0724C81.5554 19.9517 81.2055 19.7889 80.8677 19.5838C80.6023 19.4149 80.3972 19.3304 80.2524 19.3304C80.1439 19.3304 80.0594 19.3968 79.9991 19.5295C79.9388 19.6501 79.8905 19.8492 79.8543 20.1267H79.4381C79.4864 19.4632 79.5105 18.0155 79.5105 15.7836H79.9267C80.0112 17.0021 80.3128 17.9913 80.8315 18.7514C81.3503 19.5114 82.1465 19.8914 83.2202 19.8914C83.8716 19.8914 84.4266 19.6924 84.885 19.2943C85.3435 18.8841 85.5727 18.2809 85.5727 17.4847C85.5727 16.8091 85.3435 16.236 84.885 15.7655C84.4387 15.295 83.7269 14.7642 82.7497 14.1731C82.0379 13.7388 81.4588 13.3527 81.0125 13.0149C80.5782 12.6772 80.2223 12.273 79.9448 11.8025C79.6673 11.32 79.5286 10.759 79.5286 10.1196C79.5286 9.10621 79.8543 8.33412 80.5058 7.8033C81.1572 7.26042 81.9655 6.98898 82.9307 6.98898ZM96.9924 10.4272C97.8369 10.4272 98.5004 10.6263 98.9829 11.0244C99.4655 11.4225 99.7068 11.9835 99.7068 12.7073C99.7068 13.2019 99.5741 13.6845 99.3087 14.155C99.0553 14.6134 98.7417 15.0357 98.3677 15.4217C98.0057 15.8078 97.5232 16.2722 96.92 16.8151C96.4254 17.2735 96.0574 17.6234 95.8161 17.8647C95.5749 18.0939 95.3577 18.3412 95.1647 18.6066H98.8382C99.1639 18.6066 99.4052 18.5825 99.562 18.5342C99.7309 18.4739 99.8455 18.3834 99.9058 18.2628C99.9661 18.1301 100.014 17.9371 100.051 17.6837H100.358C100.358 18.7936 100.382 19.5959 100.431 20.0905C100.165 20.0302 99.2664 20 97.7343 20H93.4998V19.6924C93.7049 19.4752 94.0548 19.1314 94.5494 18.6609C95.2371 18.0215 95.8101 17.4485 96.2685 16.9418C96.727 16.423 97.119 15.8379 97.4448 15.1865C97.7826 14.535 97.9515 13.8413 97.9515 13.1054C97.9515 11.8025 97.3483 11.1511 96.1419 11.1511C95.1526 11.1511 94.3443 11.7181 93.717 12.8521L93.4275 12.6892C93.7411 12.0378 94.1875 11.5009 94.7666 11.0787C95.3456 10.6444 96.0876 10.4272 96.9924 10.4272Z" fill="#FFF1E4"></path><path d="M15.6062 6.97317C14.5261 6.96745 13.4745 8.00755 13.9546 9.29911H12.143C11.8398 9.29911 11.5491 9.41953 11.3348 9.63388C11.1204 9.84822 11 10.1389 11 10.4421V11.585C11 11.7366 11.0602 11.882 11.1674 11.9891C11.2746 12.0963 11.4199 12.1565 11.5715 12.1565H16.7148V10.4421H17.8578V12.1565H23.0012C23.1527 12.1565 23.2981 12.0963 23.4053 11.9891C23.5124 11.882 23.5726 11.7366 23.5726 11.585V10.4421C23.5726 10.1389 23.4522 9.84822 23.2379 9.63388C23.0235 9.41953 22.7328 9.29911 22.4297 9.29911H20.6181C21.2867 7.43036 18.7722 6.11023 17.6121 7.72181L17.2863 8.15614L16.9606 7.71038C16.6005 7.20176 16.1034 6.97888 15.6062 6.97317ZM15.5719 8.15614C16.0805 8.15614 16.3377 8.77334 15.9776 9.13338C15.6176 9.49341 15.0004 9.23624 15.0004 8.72762C15.0004 8.57606 15.0606 8.4307 15.1678 8.32352C15.2749 8.21635 15.4203 8.15614 15.5719 8.15614ZM19.0008 8.15614C19.5094 8.15614 19.7666 8.77334 19.4065 9.13338C19.0465 9.49341 18.4293 9.23624 18.4293 8.72762C18.4293 8.57606 18.4895 8.4307 18.5967 8.32352C18.7038 8.21635 18.8492 8.15614 19.0008 8.15614ZM11.5715 12.728V17.2999C11.5715 17.603 11.6919 17.8937 11.9063 18.1081C12.1206 18.3224 12.4113 18.4429 12.7145 18.4429H21.8582C22.1613 18.4429 22.452 18.3224 22.6664 18.1081C22.8807 17.8937 23.0012 17.603 23.0012 17.2999V12.728H17.8578V17.2999H16.7148V12.728H11.5715Z" fill="#FFF1E4"></path></svg>