<svg xmlns="http://www.w3.org/2000/svg" width="75" height="75" viewBox="0 0 75 75" fill="none"><circle cx="37.5" cy="37.5" r="37.5" fill="white"></circle><rect x="23" y="23" width="30" height="32" fill="#B74A4B"></rect><path d="M71 21.7143V17.6824C71.0004 17.33 70.9315 16.981 70.7971 16.6553C70.6628 16.3297 70.4656 16.0338 70.217 15.7847C69.9684 15.5355 69.6731 15.3379 69.3482 15.2033C69.0232 15.0686 68.675 14.9996 68.3233 15H6.68335C6.33141 14.9996 5.98283 15.0686 5.65751 15.2032C5.33218 15.3377 5.0365 15.5352 4.78732 15.7843C4.53815 16.0333 4.34038 16.3292 4.20529 16.6548C4.0702 16.9805 4.00044 17.3297 4 17.6824V21.7143H10.7V28.4286H4V35.1429H10.7V41.8571H4V48.5714H10.7V55.2857H4V59.3109C3.99956 59.6642 4.06867 60.0141 4.20336 60.3405C4.33806 60.667 4.53569 60.9636 4.78495 61.2134C5.03421 61.4632 5.3302 61.6612 5.65596 61.7962C5.98172 61.9312 6.33085 62.0004 6.68335 62H68.3233C68.6753 61.9996 69.0237 61.9297 69.3487 61.7943C69.6737 61.6589 69.9689 61.4607 70.2174 61.211C70.466 60.9613 70.663 60.665 70.7973 60.339C70.9315 60.0129 71.0004 59.6636 71 59.3109V55.2857H64.3V48.5714H71V41.8571H64.3V35.1429H71V28.4286H64.3V21.7143H71ZM30.8 48.5714V28.4286L47.55 38.5L30.8 48.5714Z" fill="black"></path><path d="M71 21.7143V17.6824C71.0004 17.33 70.9315 16.981 70.7971 16.6553C70.6628 16.3297 70.4656 16.0338 70.217 15.7847C69.9684 15.5355 69.6731 15.3379 69.3482 15.2033C69.0232 15.0686 68.675 14.9996 68.3233 15H6.68335C6.33141 14.9996 5.98283 15.0686 5.65751 15.2032C5.33218 15.3377 5.0365 15.5352 4.78732 15.7843C4.53815 16.0333 4.34038 16.3292 4.20529 16.6548C4.0702 16.9805 4.00044 17.3297 4 17.6824V21.7143H10.7V28.4286H4V35.1429H10.7V41.8571H4V48.5714H10.7V55.2857H4V59.3109C3.99956 59.6642 4.06867 60.0141 4.20336 60.3405C4.33806 60.667 4.53569 60.9636 4.78495 61.2134C5.03421 61.4632 5.3302 61.6612 5.65596 61.7962C5.98172 61.9312 6.33085 62.0004 6.68335 62H68.3233C68.6753 61.9996 69.0237 61.9297 69.3487 61.7943C69.6737 61.6589 69.9689 61.4607 70.2174 61.211C70.466 60.9613 70.663 60.665 70.7973 60.339C70.9315 60.0129 71.0004 59.6636 71 59.3109V55.2857H64.3V48.5714H71V41.8571H64.3V35.1429H71V28.4286H64.3V21.7143H71ZM30.8 48.5714V28.4286L47.55 38.5L30.8 48.5714Z" fill="#0E0101"></path></svg>