<svg xmlns="http://www.w3.org/2000/svg" width="278" height="195" viewBox="0 0 278 195" fill="none"><path d="M278 7.60121C275.062 14.4228 269.969 24.8501 262.722 38.8831C255.084 53.5008 248.914 66.1694 244.213 76.8891C239.512 87.4138 235.497 99.5952 232.167 113.433C228.837 127.076 227.173 141.597 227.173 156.994C227.173 160.892 227.368 165.57 227.76 171.027C228.152 175.315 228.348 178.336 228.348 180.09C228.348 184.573 227.075 188.178 224.528 190.907C221.982 193.636 218.652 195 214.539 195C210.23 195 206.9 193.441 204.55 190.322C202.395 187.204 201.318 183.306 201.318 178.628C201.318 163.621 203.571 148.808 208.075 134.19C212.776 119.573 218.358 106.124 224.822 93.8456C231.482 81.3718 240.1 66.4618 250.677 49.1155L264.485 26.0195H194.854C189.566 26.0195 185.551 26.5068 182.809 27.4813C180.262 28.2609 178.5 29.7226 177.52 31.8666C176.541 33.8156 175.757 36.8366 175.17 40.9295H170.175C170.175 21.6342 169.783 7.99101 169 0C173.505 0.974523 188.097 1.46179 212.776 1.46179H278V7.60121Z" fill="black" fill-opacity="0.2"></path><path d="M24.8437 168.454C24.6817 168.596 24.5613 168.78 24.4953 168.985C24.4292 169.19 24.4199 169.41 24.4685 169.62L26.4657 178.267C26.5184 178.493 26.5036 178.729 26.423 178.947C26.3423 179.164 26.1995 179.353 26.0122 179.49C25.825 179.627 25.6016 179.706 25.3699 179.717C25.1382 179.727 24.9084 179.67 24.7093 179.551L17.1608 174.972C16.9774 174.86 16.7669 174.801 16.5522 174.801C16.3375 174.801 16.127 174.86 15.9436 174.972L8.39514 179.551C8.19597 179.67 7.96623 179.727 7.73454 179.717C7.50285 179.706 7.27945 179.627 7.09219 179.49C6.90493 179.353 6.76209 179.164 6.68146 178.947C6.60083 178.729 6.58598 178.493 6.63876 178.267L8.63592 169.62C8.68447 169.41 8.67522 169.19 8.60915 168.985C8.54309 168.78 8.42268 168.596 8.26072 168.454L1.59709 162.641C1.41894 162.49 1.28971 162.289 1.22575 162.064C1.16178 161.839 1.16597 161.601 1.23776 161.378C1.30956 161.156 1.44575 160.959 1.62909 160.814C1.81243 160.669 2.03469 160.582 2.26774 160.563L11.0511 159.804C11.2654 159.785 11.4704 159.707 11.6441 159.58C11.8177 159.453 11.9534 159.281 12.0364 159.083L15.4679 150.905C15.5596 150.694 15.7111 150.514 15.9037 150.387C16.0964 150.261 16.3218 150.193 16.5522 150.193C16.7826 150.193 17.0081 150.261 17.2007 150.387C17.3933 150.514 17.5448 150.694 17.6365 150.905L21.068 159.083C21.151 159.281 21.2867 159.453 21.4603 159.58C21.634 159.707 21.839 159.785 22.0533 159.804L30.8367 160.563C31.0697 160.582 31.292 160.669 31.4753 160.814C31.6587 160.959 31.7948 161.156 31.8666 161.378C31.9384 161.601 31.9426 161.839 31.8787 162.064C31.8147 162.289 31.6855 162.49 31.5073 162.641L24.8437 168.454Z" fill="#B74A4B"></path><path d="M62.8437 168.454C62.6817 168.596 62.5613 168.78 62.4953 168.985C62.4292 169.19 62.4199 169.41 62.4685 169.62L64.4657 178.267C64.5184 178.493 64.5036 178.729 64.423 178.947C64.3423 179.164 64.1995 179.353 64.0122 179.49C63.825 179.627 63.6016 179.706 63.3699 179.717C63.1382 179.727 62.9084 179.67 62.7093 179.551L55.1608 174.972C54.9774 174.86 54.7669 174.801 54.5522 174.801C54.3375 174.801 54.127 174.86 53.9436 174.972L46.3951 179.551C46.196 179.67 45.9662 179.727 45.7345 179.717C45.5028 179.706 45.2795 179.627 45.0922 179.49C44.9049 179.353 44.7621 179.164 44.6815 178.947C44.6008 178.729 44.586 178.493 44.6388 178.267L46.6359 169.62C46.6845 169.41 46.6752 169.19 46.6092 168.985C46.5431 168.78 46.4227 168.596 46.2607 168.454L39.5971 162.641C39.4189 162.49 39.2897 162.289 39.2257 162.064C39.1618 161.839 39.166 161.601 39.2378 161.378C39.3096 161.156 39.4457 160.959 39.6291 160.814C39.8124 160.669 40.0347 160.582 40.2677 160.563L49.0511 159.804C49.2654 159.785 49.4704 159.707 49.6441 159.58C49.8177 159.453 49.9534 159.281 50.0364 159.083L53.4679 150.905C53.5596 150.694 53.7111 150.514 53.9037 150.387C54.0964 150.261 54.3218 150.193 54.5522 150.193C54.7826 150.193 55.0081 150.261 55.2007 150.387C55.3933 150.514 55.5448 150.694 55.6365 150.905L59.068 159.083C59.151 159.281 59.2867 159.453 59.4603 159.58C59.634 159.707 59.839 159.785 60.0533 159.804L68.8367 160.563C69.0697 160.582 69.292 160.669 69.4753 160.814C69.6587 160.959 69.7948 161.156 69.8666 161.378C69.9384 161.601 69.9426 161.839 69.8787 162.064C69.8147 162.289 69.6855 162.49 69.5073 162.641L62.8437 168.454Z" fill="#B74A4B"></path><path d="M100.844 168.454C100.682 168.596 100.561 168.78 100.495 168.985C100.429 169.19 100.42 169.41 100.468 169.62L102.466 178.267C102.518 178.493 102.504 178.729 102.423 178.947C102.342 179.164 102.199 179.353 102.012 179.49C101.825 179.627 101.602 179.706 101.37 179.717C101.138 179.727 100.908 179.67 100.709 179.551L93.1608 174.972C92.9774 174.86 92.7669 174.801 92.5522 174.801C92.3375 174.801 92.127 174.86 91.9436 174.972L84.3951 179.551C84.196 179.67 83.9662 179.727 83.7345 179.717C83.5028 179.706 83.2795 179.627 83.0922 179.49C82.9049 179.353 82.7621 179.164 82.6815 178.947C82.6008 178.729 82.586 178.493 82.6388 178.267L84.6359 169.62C84.6845 169.41 84.6752 169.19 84.6092 168.985C84.5431 168.78 84.4227 168.596 84.2607 168.454L77.5971 162.641C77.4189 162.49 77.2897 162.289 77.2257 162.064C77.1618 161.839 77.166 161.601 77.2378 161.378C77.3096 161.156 77.4457 160.959 77.6291 160.814C77.8124 160.669 78.0347 160.582 78.2677 160.563L87.0511 159.804C87.2654 159.785 87.4704 159.707 87.6441 159.58C87.8177 159.453 87.9534 159.281 88.0364 159.083L91.4679 150.905C91.5596 150.694 91.7111 150.514 91.9037 150.387C92.0964 150.261 92.3218 150.193 92.5522 150.193C92.7826 150.193 93.0081 150.261 93.2007 150.387C93.3933 150.514 93.5448 150.694 93.6365 150.905L97.068 159.083C97.151 159.281 97.2867 159.453 97.4603 159.58C97.634 159.707 97.839 159.785 98.0533 159.804L106.837 160.563C107.07 160.582 107.292 160.669 107.475 160.814C107.659 160.959 107.795 161.156 107.867 161.378C107.938 161.601 107.943 161.839 107.879 162.064C107.815 162.289 107.685 162.49 107.507 162.641L100.844 168.454Z" fill="#B74A4B"></path><path d="M138.844 168.454C138.682 168.596 138.561 168.78 138.495 168.985C138.429 169.19 138.42 169.41 138.468 169.62L140.466 178.267C140.518 178.493 140.504 178.729 140.423 178.947C140.342 179.164 140.199 179.353 140.012 179.49C139.825 179.627 139.602 179.706 139.37 179.717C139.138 179.727 138.908 179.67 138.709 179.551L131.161 174.972C130.977 174.86 130.767 174.801 130.552 174.801C130.338 174.801 130.127 174.86 129.944 174.972L122.395 179.551C122.196 179.67 121.966 179.727 121.735 179.717C121.503 179.706 121.279 179.627 121.092 179.49C120.905 179.353 120.762 179.164 120.681 178.947C120.601 178.729 120.586 178.493 120.639 178.267L122.636 169.62C122.684 169.41 122.675 169.19 122.609 168.985C122.543 168.78 122.423 168.596 122.261 168.454L115.597 162.641C115.419 162.49 115.29 162.289 115.226 162.064C115.162 161.839 115.166 161.601 115.238 161.378C115.31 161.156 115.446 160.959 115.629 160.814C115.812 160.669 116.035 160.582 116.268 160.563L125.051 159.804C125.265 159.785 125.47 159.707 125.644 159.58C125.818 159.453 125.953 159.281 126.036 159.083L129.468 150.905C129.56 150.694 129.711 150.514 129.904 150.387C130.096 150.261 130.322 150.193 130.552 150.193C130.783 150.193 131.008 150.261 131.201 150.387C131.393 150.514 131.545 150.694 131.636 150.905L135.068 159.083C135.151 159.281 135.287 159.453 135.46 159.58C135.634 159.707 135.839 159.785 136.053 159.804L144.837 160.563C145.07 160.582 145.292 160.669 145.475 160.814C145.659 160.959 145.795 161.156 145.867 161.378C145.938 161.601 145.943 161.839 145.879 162.064C145.815 162.289 145.685 162.49 145.507 162.641L138.844 168.454Z" fill="#B74A4B"></path><path d="M176.844 168.454C176.682 168.596 176.561 168.78 176.495 168.985C176.429 169.19 176.42 169.41 176.468 169.62L178.466 178.267C178.518 178.493 178.504 178.729 178.423 178.947C178.342 179.164 178.199 179.353 178.012 179.49C177.825 179.627 177.602 179.706 177.37 179.717C177.138 179.727 176.908 179.67 176.709 179.551L169.161 174.972C168.977 174.86 168.767 174.801 168.552 174.801C168.338 174.801 168.127 174.86 167.944 174.972L160.395 179.551C160.196 179.67 159.966 179.727 159.735 179.717C159.503 179.706 159.279 179.627 159.092 179.49C158.905 179.353 158.762 179.164 158.681 178.947C158.601 178.729 158.586 178.493 158.639 178.267L160.636 169.62C160.684 169.41 160.675 169.19 160.609 168.985C160.543 168.78 160.423 168.596 160.261 168.454L153.597 162.641C153.419 162.49 153.29 162.289 153.226 162.064C153.162 161.839 153.166 161.601 153.238 161.378C153.31 161.156 153.446 160.959 153.629 160.814C153.812 160.669 154.035 160.582 154.268 160.563L163.051 159.804C163.265 159.785 163.47 159.707 163.644 159.58C163.818 159.453 163.953 159.281 164.036 159.083L167.468 150.905C167.56 150.694 167.711 150.514 167.904 150.387C168.096 150.261 168.322 150.193 168.552 150.193C168.783 150.193 169.008 150.261 169.201 150.387C169.393 150.514 169.545 150.694 169.636 150.905L173.068 159.083C173.151 159.281 173.287 159.453 173.46 159.58C173.634 159.707 173.839 159.785 174.053 159.804L182.837 160.563C183.07 160.582 183.292 160.669 183.475 160.814C183.659 160.959 183.795 161.156 183.867 161.378C183.938 161.601 183.943 161.839 183.879 162.064C183.815 162.289 183.685 162.49 183.507 162.641L176.844 168.454Z" fill="#B74A4B"></path><path d="M26.4 80C25.7867 80.9067 25.1733 81.56 24.56 81.96C23.9467 82.36 23.1333 82.56 22.12 82.56C21.0267 82.56 20.12 82.24 19.4 81.6C18.7067 80.96 18.1867 79.84 17.84 78.24L16.96 74.24C16.64 72.8533 16.3333 71.7867 16.04 71.04C15.7733 70.2933 15.36 69.6933 14.8 69.24C14.24 68.7867 13.4533 68.56 12.44 68.56H8.64V77.76C8.64 78.7733 8.72 79.5067 8.88 79.96C9.04 80.4133 9.33333 80.72 9.76 80.88C10.2133 81.04 10.92 81.1467 11.88 81.2V82C10.6533 81.92 8.96 81.88 6.8 81.88C4.50667 81.88 2.8 81.92 1.68 82V81.2C2.64 81.1467 3.33333 81.04 3.76 80.88C4.21333 80.72 4.52 80.4133 4.68 79.96C4.84 79.5067 4.92 78.7733 4.92 77.76V57.92C4.92 56.9067 4.84 56.1733 4.68 55.72C4.52 55.2667 4.21333 54.96 3.76 54.8C3.33333 54.64 2.64 54.5333 1.68 54.48V53.68C2.8 53.76 4.42667 53.8 6.56 53.8L10.88 53.76C11.3867 53.7333 11.96 53.72 12.6 53.72C15.6933 53.72 18.0667 54.3733 19.72 55.68C21.4 56.96 22.24 58.6267 22.24 60.68C22.24 61.72 21.9867 62.7733 21.48 63.84C21 64.88 20.1733 65.8267 19 66.68C17.8533 67.5067 16.3467 68.0667 14.48 68.36L14.96 68.44C16.72 68.7333 18 69.2667 18.8 70.04C19.6 70.8133 20.1867 72.04 20.56 73.72L21.56 77.8C21.8267 79.0267 22.1067 79.88 22.4 80.36C22.6933 80.84 23.0933 81.08 23.6 81.08C24.0533 81.08 24.4267 80.96 24.72 80.72C25.04 80.48 25.4 80.0933 25.8 79.56L26.4 80ZM11.6 54.48C10.7733 54.48 10.1467 54.5733 9.72 54.76C9.32 54.9467 9.04 55.28 8.88 55.76C8.72 56.24 8.64 56.96 8.64 57.92V67.76H11.32C13.96 67.76 15.7733 67.1733 16.76 66C17.7467 64.8267 18.24 63.2 18.24 61.12C18.24 58.9333 17.72 57.28 16.68 56.16C15.64 55.04 13.9467 54.48 11.6 54.48ZM37.8175 54.48C36.8575 54.5333 36.1508 54.64 35.6975 54.8C35.2708 54.96 34.9775 55.2667 34.8175 55.72C34.6575 56.1733 34.5775 56.9067 34.5775 57.92V77.76C34.5775 78.7733 34.6575 79.5067 34.8175 79.96C34.9775 80.4133 35.2708 80.72 35.6975 80.88C36.1508 81.04 36.8575 81.1467 37.8175 81.2V82C36.5908 81.92 34.8975 81.88 32.7375 81.88C30.4442 81.88 28.7375 81.92 27.6175 82V81.2C28.5775 81.1467 29.2708 81.04 29.6975 80.88C30.1508 80.72 30.4575 80.4133 30.6175 79.96C30.7775 79.5067 30.8575 78.7733 30.8575 77.76V57.92C30.8575 56.9067 30.7775 56.1733 30.6175 55.72C30.4575 55.2667 30.1508 54.96 29.6975 54.8C29.2708 54.64 28.5775 54.5333 27.6175 54.48V53.68C28.7375 53.76 30.4442 53.8 32.7375 53.8C34.8708 53.8 36.5642 53.76 37.8175 53.68V54.48ZM49.7322 53.24C50.9055 53.24 51.8255 53.3733 52.4922 53.64C53.1855 53.88 53.8922 54.24 54.6122 54.72C55.1989 55.0933 55.6522 55.28 55.9722 55.28C56.2122 55.28 56.3989 55.1467 56.5322 54.88C56.6655 54.5867 56.7722 54.1333 56.8522 53.52H57.7722C57.6389 55.0667 57.5722 57.7867 57.5722 61.68H56.6522C56.4922 59.52 55.8655 57.7067 54.7722 56.24C53.7055 54.7467 52.1455 54 50.0922 54C48.6522 54 47.4789 54.44 46.5722 55.32C45.6655 56.1733 45.2122 57.28 45.2122 58.64C45.2122 59.6533 45.4389 60.5333 45.8922 61.28C46.3722 62.0267 46.9722 62.6667 47.6922 63.2C48.4122 63.7333 49.4389 64.4133 50.7722 65.24L51.9322 65.96C53.6122 67 54.9322 67.92 55.8922 68.72C56.8789 69.4933 57.6655 70.3867 58.2522 71.4C58.8389 72.4133 59.1322 73.6 59.1322 74.96C59.1322 77.3867 58.3322 79.2667 56.7322 80.6C55.1322 81.9067 53.1055 82.56 50.6522 82.56C49.3722 82.56 48.3189 82.4267 47.4922 82.16C46.6922 81.8933 45.9189 81.5333 45.1722 81.08C44.5855 80.7067 44.1322 80.52 43.8122 80.52C43.5722 80.52 43.3855 80.6667 43.2522 80.96C43.1189 81.2267 43.0122 81.6667 42.9322 82.28H42.0122C42.1189 80.8133 42.1722 77.6133 42.1722 72.68H43.0922C43.2789 75.3733 43.9455 77.56 45.0922 79.24C46.2389 80.92 47.9989 81.76 50.3722 81.76C51.8122 81.76 53.0389 81.32 54.0522 80.44C55.0655 79.5333 55.5722 78.2 55.5722 76.44C55.5722 74.9467 55.0655 73.68 54.0522 72.64C53.0655 71.6 51.4922 70.4267 49.3322 69.12C47.7589 68.16 46.4789 67.3067 45.4922 66.56C44.5322 65.8133 43.7455 64.92 43.1322 63.88C42.5189 62.8133 42.2122 61.5733 42.2122 60.16C42.2122 57.92 42.9322 56.2133 44.3722 55.04C45.8122 53.84 47.5989 53.24 49.7322 53.24ZM75.9338 53.12C77.5338 53.12 78.8938 53.3467 80.0138 53.8C81.1338 54.2533 82.2271 54.8933 83.2938 55.72C83.5871 55.96 83.8404 56.08 84.0538 56.08C84.5871 56.08 84.9338 55.28 85.0938 53.68H86.0138C85.9071 55.4133 85.8538 58.48 85.8538 62.88H84.9338C84.6404 61.1467 84.3738 59.9067 84.1338 59.16C83.8938 58.3867 83.4938 57.6533 82.9338 56.96C82.1338 55.92 81.1071 55.1467 79.8538 54.64C78.6271 54.1067 77.2938 53.84 75.8538 53.84C74.1204 53.84 72.6004 54.4133 71.2938 55.56C70.0138 56.7067 69.0138 58.3467 68.2938 60.48C67.5738 62.5867 67.2138 65.0667 67.2138 67.92C67.2138 70.8267 67.6004 73.32 68.3738 75.4C69.1471 77.48 70.2138 79.0667 71.5738 80.16C72.9604 81.2267 74.5204 81.76 76.2538 81.76C77.5871 81.76 78.8804 81.5067 80.1338 81C81.3871 80.4933 82.3738 79.7333 83.0938 78.72C83.6271 77.9733 84.0138 77.1733 84.2538 76.32C84.4938 75.4667 84.7204 74.16 84.9338 72.4H85.8538C85.8538 76.9867 85.9071 80.1867 86.0138 82H85.0938C85.0138 81.1467 84.8938 80.5467 84.7338 80.2C84.6004 79.8267 84.4004 79.64 84.1338 79.64C83.9204 79.64 83.6404 79.7467 83.2938 79.96C82.0938 80.8133 80.9471 81.4667 79.8538 81.92C78.7604 82.3467 77.4404 82.56 75.8938 82.56C73.3604 82.56 71.1338 81.9867 69.2138 80.84C67.3204 79.6933 65.8404 78.04 64.7738 75.88C63.7338 73.6933 63.2138 71.0933 63.2138 68.08C63.2138 65.1467 63.7471 62.5467 64.8138 60.28C65.9071 58.0133 67.4138 56.2533 69.3338 55C71.2804 53.7467 73.4804 53.12 75.9338 53.12ZM103.473 53.12C106.006 53.12 108.219 53.6933 110.113 54.84C112.033 55.9867 113.513 57.6533 114.553 59.84C115.619 62 116.153 64.5867 116.153 67.6C116.153 70.5333 115.606 73.1333 114.513 75.4C113.446 77.6667 111.939 79.4267 109.993 80.68C108.073 81.9333 105.886 82.56 103.433 82.56C100.899 82.56 98.6728 81.9867 96.7528 80.84C94.8595 79.6933 93.3795 78.04 92.3128 75.88C91.2728 73.6933 90.7528 71.0933 90.7528 68.08C90.7528 65.1467 91.2861 62.5467 92.3528 60.28C93.4461 58.0133 94.9528 56.2533 96.8728 55C98.8195 53.7467 101.019 53.12 103.473 53.12ZM103.313 53.84C101.606 53.84 100.099 54.44 98.7928 55.64C97.5128 56.8133 96.5128 58.4667 95.7928 60.6C95.0995 62.7333 94.7528 65.1733 94.7528 67.92C94.7528 70.6933 95.1395 73.1333 95.9128 75.24C96.7128 77.3467 97.7795 78.9733 99.1128 80.12C100.446 81.2667 101.939 81.84 103.593 81.84C105.299 81.84 106.793 81.2533 108.073 80.08C109.379 78.88 110.379 77.2133 111.073 75.08C111.793 72.9467 112.153 70.5067 112.153 67.76C112.153 64.9867 111.753 62.5467 110.953 60.44C110.179 58.3333 109.126 56.7067 107.793 55.56C106.459 54.4133 104.966 53.84 103.313 53.84ZM150.242 54.48L134.282 81.08H142.122C143.776 81.08 145.029 80.8533 145.882 80.4C146.762 79.92 147.402 79.16 147.802 78.12C148.202 77.08 148.496 75.5733 148.682 73.6H149.602C149.522 74.4267 149.482 75.52 149.482 76.88C149.482 78.4 149.576 80.1067 149.762 82C147.789 81.92 144.469 81.88 139.802 81.88C135.242 81.88 131.949 81.92 129.922 82V81.2L146.002 54.6H138.202C136.549 54.6 135.282 54.84 134.402 55.32C133.549 55.7733 132.922 56.52 132.522 57.56C132.122 58.6 131.829 60.1067 131.642 62.08H130.722C130.802 61.2267 130.842 60.1333 130.842 58.8C130.842 57.28 130.749 55.5733 130.562 53.68C132.536 53.76 135.856 53.8 140.522 53.8C145.056 53.8 148.296 53.76 150.242 53.68V54.48ZM174.152 76.88C174.152 78.4 174.246 80.1067 174.432 82C172.619 81.92 169.566 81.88 165.272 81.88C160.152 81.88 156.286 81.92 153.672 82V81.2C154.632 81.1467 155.326 81.04 155.752 80.88C156.206 80.72 156.512 80.4133 156.672 79.96C156.832 79.5067 156.912 78.7733 156.912 77.76V57.92C156.912 56.9067 156.832 56.1733 156.672 55.72C156.512 55.2667 156.206 54.96 155.752 54.8C155.326 54.64 154.632 54.5333 153.672 54.48V53.68C156.286 53.76 160.152 53.8 165.272 53.8C169.192 53.8 171.979 53.76 173.632 53.68C173.446 55.44 173.352 57.0133 173.352 58.4C173.352 59.44 173.392 60.2667 173.472 60.88H172.552C172.366 59.1467 172.126 57.8667 171.832 57.04C171.539 56.1867 171.046 55.5733 170.352 55.2C169.659 54.8 168.606 54.6 167.192 54.6H163.872C162.912 54.6 162.206 54.68 161.752 54.84C161.326 54.9733 161.032 55.2667 160.872 55.72C160.712 56.1733 160.632 56.9067 160.632 57.92V67.36H163.272C164.206 67.36 164.926 67.1467 165.432 66.72C165.939 66.2667 166.272 65.7467 166.432 65.16C166.619 64.5467 166.766 63.7867 166.872 62.88L166.992 62.08H167.912C167.832 63.2 167.792 64.4533 167.792 65.84V67.76C167.792 69.12 167.872 71.0133 168.032 73.44H167.112C167.086 73.2533 167.006 72.6133 166.872 71.52C166.739 70.4 166.366 69.56 165.752 69C165.166 68.44 164.339 68.16 163.272 68.16H160.632V77.76C160.632 78.7733 160.712 79.5067 160.872 79.96C161.032 80.4133 161.326 80.72 161.752 80.88C162.206 81.0133 162.912 81.08 163.872 81.08H166.792C168.446 81.08 169.699 80.8667 170.552 80.44C171.432 79.9867 172.072 79.28 172.472 78.32C172.872 77.3333 173.166 75.8933 173.352 74H174.272C174.192 74.72 174.152 75.68 174.152 76.88ZM202.767 80C202.154 80.9067 201.541 81.56 200.927 81.96C200.314 82.36 199.501 82.56 198.487 82.56C197.394 82.56 196.487 82.24 195.767 81.6C195.074 80.96 194.554 79.84 194.207 78.24L193.327 74.24C193.007 72.8533 192.701 71.7867 192.407 71.04C192.141 70.2933 191.727 69.6933 191.167 69.24C190.607 68.7867 189.821 68.56 188.807 68.56H185.007V77.76C185.007 78.7733 185.087 79.5067 185.247 79.96C185.407 80.4133 185.701 80.72 186.127 80.88C186.581 81.04 187.287 81.1467 188.247 81.2V82C187.021 81.92 185.327 81.88 183.167 81.88C180.874 81.88 179.167 81.92 178.047 82V81.2C179.007 81.1467 179.701 81.04 180.127 80.88C180.581 80.72 180.887 80.4133 181.047 79.96C181.207 79.5067 181.287 78.7733 181.287 77.76V57.92C181.287 56.9067 181.207 56.1733 181.047 55.72C180.887 55.2667 180.581 54.96 180.127 54.8C179.701 54.64 179.007 54.5333 178.047 54.48V53.68C179.167 53.76 180.794 53.8 182.927 53.8L187.247 53.76C187.754 53.7333 188.327 53.72 188.967 53.72C192.061 53.72 194.434 54.3733 196.087 55.68C197.767 56.96 198.607 58.6267 198.607 60.68C198.607 61.72 198.354 62.7733 197.847 63.84C197.367 64.88 196.541 65.8267 195.367 66.68C194.221 67.5067 192.714 68.0667 190.847 68.36L191.327 68.44C193.087 68.7333 194.367 69.2667 195.167 70.04C195.967 70.8133 196.554 72.04 196.927 73.72L197.927 77.8C198.194 79.0267 198.474 79.88 198.767 80.36C199.061 80.84 199.461 81.08 199.967 81.08C200.421 81.08 200.794 80.96 201.087 80.72C201.407 80.48 201.767 80.0933 202.167 79.56L202.767 80ZM187.967 54.48C187.141 54.48 186.514 54.5733 186.087 54.76C185.687 54.9467 185.407 55.28 185.247 55.76C185.087 56.24 185.007 56.96 185.007 57.92V67.76H187.687C190.327 67.76 192.141 67.1733 193.127 66C194.114 64.8267 194.607 63.2 194.607 61.12C194.607 58.9333 194.087 57.28 193.047 56.16C192.007 55.04 190.314 54.48 187.967 54.48ZM217.145 53.12C219.678 53.12 221.891 53.6933 223.785 54.84C225.705 55.9867 227.185 57.6533 228.225 59.84C229.291 62 229.825 64.5867 229.825 67.6C229.825 70.5333 229.278 73.1333 228.185 75.4C227.118 77.6667 225.611 79.4267 223.665 80.68C221.745 81.9333 219.558 82.56 217.105 82.56C214.571 82.56 212.345 81.9867 210.425 80.84C208.531 79.6933 207.051 78.04 205.985 75.88C204.945 73.6933 204.425 71.0933 204.425 68.08C204.425 65.1467 204.958 62.5467 206.025 60.28C207.118 58.0133 208.625 56.2533 210.545 55C212.491 53.7467 214.691 53.12 217.145 53.12ZM216.985 53.84C215.278 53.84 213.771 54.44 212.465 55.64C211.185 56.8133 210.185 58.4667 209.465 60.6C208.771 62.7333 208.425 65.1733 208.425 67.92C208.425 70.6933 208.811 73.1333 209.585 75.24C210.385 77.3467 211.451 78.9733 212.785 80.12C214.118 81.2667 215.611 81.84 217.265 81.84C218.971 81.84 220.465 81.2533 221.745 80.08C223.051 78.88 224.051 77.2133 224.745 75.08C225.465 72.9467 225.825 70.5067 225.825 67.76C225.825 64.9867 225.425 62.5467 224.625 60.44C223.851 58.3333 222.798 56.7067 221.465 55.56C220.131 54.4133 218.638 53.84 216.985 53.84ZM8.64 107.56V114.76C8.64 115.773 8.74667 116.507 8.96 116.96C9.17333 117.413 9.54667 117.72 10.08 117.88C10.6133 118.04 11.48 118.147 12.68 118.2V119C11.2933 118.92 9.33333 118.88 6.8 118.88C4.50667 118.88 2.8 118.92 1.68 119V118.2C2.64 118.147 3.33333 118.04 3.76 117.88C4.21333 117.72 4.52 117.413 4.68 116.96C4.84 116.507 4.92 115.773 4.92 114.76V94.92C4.92 93.9067 4.84 93.1733 4.68 92.72C4.52 92.2667 4.21333 91.96 3.76 91.8C3.33333 91.64 2.64 91.5333 1.68 91.48V90.68C2.8 90.76 4.42667 90.8 6.56 90.8L10.88 90.76C11.3867 90.7333 11.96 90.72 12.6 90.72C15.72 90.72 18.1067 91.44 19.76 92.88C21.4133 94.2933 22.24 96.2 22.24 98.6C22.24 100.067 21.9067 101.48 21.24 102.84C20.6 104.173 19.4933 105.293 17.92 106.2C16.3733 107.107 14.3067 107.56 11.72 107.56H8.64ZM11.6 91.48C10.7733 91.48 10.1467 91.5733 9.72 91.76C9.32 91.9467 9.04 92.28 8.88 92.76C8.72 93.24 8.64 93.96 8.64 94.92V106.76H11.32C13.9333 106.76 15.7333 106.067 16.72 104.68C17.7333 103.267 18.24 101.387 18.24 99.04C18.24 96.4533 17.72 94.5467 16.68 93.32C15.6667 92.0933 13.9733 91.48 11.6 91.48ZM44.4378 115.64C45.0778 117.293 45.9978 118.147 47.1978 118.2V119C46.1311 118.92 44.7045 118.88 42.9178 118.88C40.6245 118.88 38.9178 118.92 37.7978 119V118.2C38.8111 118.147 39.5311 118.027 39.9578 117.84C40.4111 117.627 40.6378 117.253 40.6378 116.72C40.6378 116.267 40.4778 115.64 40.1578 114.84L37.7178 108.28H28.0378L26.3978 112.52C25.8645 113.96 25.5978 115.053 25.5978 115.8C25.5978 116.627 25.8778 117.227 26.4378 117.6C27.0245 117.973 27.9045 118.173 29.0778 118.2V119C27.5578 118.92 26.0245 118.88 24.4778 118.88C23.2778 118.88 22.2778 118.92 21.4778 119V118.2C22.8111 117.88 23.8645 116.72 24.6378 114.72L34.0378 90.48H34.6778L44.4378 115.64ZM37.3978 107.48L32.9178 95.52L28.3578 107.48H37.3978ZM72.5719 117C71.9585 117.907 71.3452 118.56 70.7319 118.96C70.1185 119.36 69.3052 119.56 68.2919 119.56C67.1985 119.56 66.2919 119.24 65.5719 118.6C64.8785 117.96 64.3585 116.84 64.0119 115.24L63.1319 111.24C62.8119 109.853 62.5052 108.787 62.2119 108.04C61.9452 107.293 61.5319 106.693 60.9719 106.24C60.4119 105.787 59.6252 105.56 58.6119 105.56H54.8119V114.76C54.8119 115.773 54.8919 116.507 55.0519 116.96C55.2119 117.413 55.5052 117.72 55.9319 117.88C56.3852 118.04 57.0919 118.147 58.0519 118.2V119C56.8252 118.92 55.1319 118.88 52.9719 118.88C50.6785 118.88 48.9719 118.92 47.8519 119V118.2C48.8119 118.147 49.5052 118.04 49.9319 117.88C50.3852 117.72 50.6919 117.413 50.8519 116.96C51.0119 116.507 51.0919 115.773 51.0919 114.76V94.92C51.0919 93.9067 51.0119 93.1733 50.8519 92.72C50.6919 92.2667 50.3852 91.96 49.9319 91.8C49.5052 91.64 48.8119 91.5333 47.8519 91.48V90.68C48.9719 90.76 50.5985 90.8 52.7319 90.8L57.0519 90.76C57.5585 90.7333 58.1319 90.72 58.7719 90.72C61.8652 90.72 64.2385 91.3733 65.8919 92.68C67.5719 93.96 68.4119 95.6267 68.4119 97.68C68.4119 98.72 68.1585 99.7733 67.6519 100.84C67.1719 101.88 66.3452 102.827 65.1719 103.68C64.0252 104.507 62.5185 105.067 60.6519 105.36L61.1319 105.44C62.8919 105.733 64.1719 106.267 64.9719 107.04C65.7719 107.813 66.3585 109.04 66.7319 110.72L67.7319 114.8C67.9985 116.027 68.2785 116.88 68.5719 117.36C68.8652 117.84 69.2652 118.08 69.7719 118.08C70.2252 118.08 70.5985 117.96 70.8919 117.72C71.2119 117.48 71.5719 117.093 71.9719 116.56L72.5719 117ZM57.7719 91.48C56.9452 91.48 56.3185 91.5733 55.8919 91.76C55.4919 91.9467 55.2119 92.28 55.0519 92.76C54.8919 93.24 54.8119 93.96 54.8119 94.92V104.76H57.4919C60.1319 104.76 61.9452 104.173 62.9319 103C63.9185 101.827 64.4119 100.2 64.4119 98.12C64.4119 95.9333 63.8919 94.28 62.8519 93.16C61.8119 92.04 60.1185 91.48 57.7719 91.48ZM94.7894 115.64C95.4294 117.293 96.3494 118.147 97.5494 118.2V119C96.4827 118.92 95.056 118.88 93.2694 118.88C90.976 118.88 89.2694 118.92 88.1494 119V118.2C89.1627 118.147 89.8827 118.027 90.3094 117.84C90.7627 117.627 90.9894 117.253 90.9894 116.72C90.9894 116.267 90.8294 115.64 90.5094 114.84L88.0694 108.28H78.3894L76.7494 112.52C76.216 113.96 75.9494 115.053 75.9494 115.8C75.9494 116.627 76.2294 117.227 76.7894 117.6C77.376 117.973 78.256 118.173 79.4294 118.2V119C77.9094 118.92 76.376 118.88 74.8294 118.88C73.6294 118.88 72.6294 118.92 71.8294 119V118.2C73.1627 117.88 74.216 116.72 74.9894 114.72L84.3894 90.48H85.0294L94.7894 115.64ZM87.7494 107.48L83.2694 95.52L78.7094 107.48H87.7494ZM128.378 90.8C129.578 90.8 130.578 90.76 131.378 90.68V91.48C130.045 91.8 128.992 92.96 128.218 94.96L118.818 119.2H118.498H118.178L108.418 94.04C107.778 92.3867 106.858 91.5333 105.658 91.48V90.68C106.725 90.76 108.152 90.8 109.938 90.8C112.232 90.8 113.938 90.76 115.058 90.68V91.48C114.045 91.5333 113.312 91.6667 112.858 91.88C112.432 92.0667 112.218 92.4267 112.218 92.96C112.218 93.4133 112.378 94.04 112.698 94.84L119.938 114.08L126.458 97.16C126.992 95.72 127.258 94.6267 127.258 93.88C127.258 93.0533 126.965 92.4533 126.378 92.08C125.818 91.7067 124.952 91.5067 123.778 91.48V90.68C125.298 90.76 126.832 90.8 128.378 90.8ZM145.27 90.12C147.803 90.12 150.016 90.6933 151.91 91.84C153.83 92.9867 155.31 94.6533 156.35 96.84C157.416 99 157.95 101.587 157.95 104.6C157.95 107.533 157.403 110.133 156.31 112.4C155.243 114.667 153.736 116.427 151.79 117.68C149.87 118.933 147.683 119.56 145.23 119.56C142.696 119.56 140.47 118.987 138.55 117.84C136.656 116.693 135.176 115.04 134.11 112.88C133.07 110.693 132.55 108.093 132.55 105.08C132.55 102.147 133.083 99.5467 134.15 97.28C135.243 95.0133 136.75 93.2533 138.67 92C140.616 90.7467 142.816 90.12 145.27 90.12ZM145.11 90.84C143.403 90.84 141.896 91.44 140.59 92.64C139.31 93.8133 138.31 95.4667 137.59 97.6C136.896 99.7333 136.55 102.173 136.55 104.92C136.55 107.693 136.936 110.133 137.71 112.24C138.51 114.347 139.576 115.973 140.91 117.12C142.243 118.267 143.736 118.84 145.39 118.84C147.096 118.84 148.59 118.253 149.87 117.08C151.176 115.88 152.176 114.213 152.87 112.08C153.59 109.947 153.95 107.507 153.95 104.76C153.95 101.987 153.55 99.5467 152.75 97.44C151.976 95.3333 150.923 93.7067 149.59 92.56C148.256 91.4133 146.763 90.84 145.11 90.84ZM174.918 90.12C176.518 90.12 177.878 90.3467 178.998 90.8C180.118 91.2533 181.211 91.8933 182.278 92.72C182.571 92.96 182.825 93.08 183.038 93.08C183.571 93.08 183.918 92.28 184.078 90.68H184.998C184.891 92.4133 184.838 95.48 184.838 99.88H183.918C183.625 98.1467 183.358 96.9067 183.118 96.16C182.878 95.3867 182.478 94.6533 181.918 93.96C181.118 92.92 180.091 92.1467 178.838 91.64C177.611 91.1067 176.278 90.84 174.838 90.84C173.105 90.84 171.585 91.4133 170.278 92.56C168.998 93.7067 167.998 95.3467 167.278 97.48C166.558 99.5867 166.198 102.067 166.198 104.92C166.198 107.827 166.585 110.32 167.358 112.4C168.131 114.48 169.198 116.067 170.558 117.16C171.945 118.227 173.505 118.76 175.238 118.76C176.571 118.76 177.865 118.507 179.118 118C180.371 117.493 181.358 116.733 182.078 115.72C182.611 114.973 182.998 114.173 183.238 113.32C183.478 112.467 183.705 111.16 183.918 109.4H184.838C184.838 113.987 184.891 117.187 184.998 119H184.078C183.998 118.147 183.878 117.547 183.718 117.2C183.585 116.827 183.385 116.64 183.118 116.64C182.905 116.64 182.625 116.747 182.278 116.96C181.078 117.813 179.931 118.467 178.838 118.92C177.745 119.347 176.425 119.56 174.878 119.56C172.345 119.56 170.118 118.987 168.198 117.84C166.305 116.693 164.825 115.04 163.758 112.88C162.718 110.693 162.198 108.093 162.198 105.08C162.198 102.147 162.731 99.5467 163.798 97.28C164.891 95.0133 166.398 93.2533 168.318 92C170.265 90.7467 172.465 90.12 174.918 90.12ZM209.777 113.88C209.777 115.4 209.871 117.107 210.057 119C208.244 118.92 205.191 118.88 200.897 118.88C195.777 118.88 191.911 118.92 189.297 119V118.2C190.257 118.147 190.951 118.04 191.377 117.88C191.831 117.72 192.137 117.413 192.297 116.96C192.457 116.507 192.537 115.773 192.537 114.76V94.92C192.537 93.9067 192.457 93.1733 192.297 92.72C192.137 92.2667 191.831 91.96 191.377 91.8C190.951 91.64 190.257 91.5333 189.297 91.48V90.68C191.911 90.76 195.777 90.8 200.897 90.8C204.817 90.8 207.604 90.76 209.257 90.68C209.071 92.44 208.977 94.0133 208.977 95.4C208.977 96.44 209.017 97.2667 209.097 97.88H208.177C207.991 96.1467 207.751 94.8667 207.457 94.04C207.164 93.1867 206.671 92.5733 205.977 92.2C205.284 91.8 204.231 91.6 202.817 91.6H199.497C198.537 91.6 197.831 91.68 197.377 91.84C196.951 91.9733 196.657 92.2667 196.497 92.72C196.337 93.1733 196.257 93.9067 196.257 94.92V104.36H198.897C199.831 104.36 200.551 104.147 201.057 103.72C201.564 103.267 201.897 102.747 202.057 102.16C202.244 101.547 202.391 100.787 202.497 99.88L202.617 99.08H203.537C203.457 100.2 203.417 101.453 203.417 102.84V104.76C203.417 106.12 203.497 108.013 203.657 110.44H202.737C202.711 110.253 202.631 109.613 202.497 108.52C202.364 107.4 201.991 106.56 201.377 106C200.791 105.44 199.964 105.16 198.897 105.16H196.257V114.76C196.257 115.773 196.337 116.507 196.497 116.96C196.657 117.413 196.951 117.72 197.377 117.88C197.831 118.013 198.537 118.08 199.497 118.08H202.417C204.071 118.08 205.324 117.867 206.177 117.44C207.057 116.987 207.697 116.28 208.097 115.32C208.497 114.333 208.791 112.893 208.977 111H209.897C209.817 111.72 209.777 112.68 209.777 113.88ZM200.217 82.36C200.857 83.4 201.831 84.4 203.137 85.36C204.471 86.2933 205.991 87.0533 207.697 87.64L207.497 88.2C205.897 87.8533 204.311 87.4267 202.737 86.92C201.191 86.4133 199.964 85.9067 199.057 85.4C198.311 85.9067 197.297 86.4133 196.017 86.92C194.764 87.4267 193.497 87.8533 192.217 88.2L192.017 87.64C193.724 87.0533 195.231 86.2933 196.537 85.36C197.871 84.4 198.857 83.4 199.497 82.36H200.217Z" fill="black"></path><path d="M12.044 131.852C11.7695 131.129 11.3121 130.553 10.6716 130.123C10.0403 129.693 9.2901 129.478 8.42092 129.478C7.66153 129.478 6.97534 129.656 6.36234 130.013C5.74934 130.37 5.26444 130.878 4.90762 131.537C4.55079 132.195 4.37238 132.964 4.37238 133.842C4.37238 134.72 4.55079 135.489 4.90762 136.148C5.26444 136.807 5.74934 137.314 6.36234 137.671C6.97534 138.019 7.66153 138.193 8.42092 138.193C9.15286 138.193 9.81618 138.028 10.4109 137.699C11.0056 137.369 11.4813 136.903 11.8382 136.299C12.195 135.686 12.3917 134.972 12.4283 134.158H8.13272V133.636H13.0596V134.048C13.0321 134.945 12.8171 135.75 12.4146 136.463C12.012 137.177 11.463 137.735 10.7677 138.138C10.0724 138.54 9.2901 138.742 8.42092 138.742C7.53344 138.742 6.73289 138.536 6.01925 138.124C5.30561 137.703 4.7475 137.122 4.34494 136.381C3.94237 135.631 3.74109 134.785 3.74109 133.842C3.74109 132.891 3.94237 132.044 4.34494 131.303C4.7475 130.553 5.30561 129.972 6.01925 129.56C6.73289 129.139 7.53344 128.929 8.42092 128.929C9.45478 128.929 10.3468 129.19 11.0971 129.711C11.8565 130.224 12.41 130.937 12.7577 131.852H12.044ZM20.3896 136.175H15.8196L14.9001 138.646H14.2276L17.7684 129.231H18.4546L21.9816 138.646H21.3091L20.3896 136.175ZM20.1975 135.654L18.1115 130.041L16.0117 135.654H20.1975ZM28.7331 138.646L26.2628 134.542H26.2079H24.1493V138.646H23.5317V129.011H26.1804C27.2509 129.011 28.0515 129.263 28.5821 129.766C29.1219 130.269 29.3918 130.937 29.3918 131.77C29.3918 132.511 29.1814 133.124 28.7605 133.609C28.3488 134.085 27.745 134.377 26.949 134.487L29.4742 138.646H28.7331ZM24.1493 134.021H26.2079C27.0588 134.021 27.6946 133.815 28.1155 133.403C28.5364 132.991 28.7468 132.447 28.7468 131.77C28.7468 130.297 27.8913 129.56 26.1804 129.56H24.1493V134.021ZM36.6867 136.175H32.1166L31.1971 138.646H30.5247L34.0654 129.231H34.7516L38.2787 138.646H37.6062L36.6867 136.175ZM36.4946 135.654L34.4085 130.041L32.3088 135.654H36.4946ZM46.7182 138.646H46.1006L40.4464 130.027V138.646H39.8288V129.025H40.4464L46.1006 137.616V129.025H46.7182V138.646ZM54.3074 129.011V129.533H51.5626V138.646H50.945V129.533H48.2002V129.011H54.3074ZM56.395 129.011V138.646H55.7774V129.011H56.395ZM64.121 136.175H59.5509L58.6314 138.646H57.959L61.4997 129.231H62.1859L65.7129 138.646H65.0405L64.121 136.175ZM63.9288 135.654L61.8428 130.041L59.7431 135.654H63.9288ZM70.8619 138.646V129.011H73.2086V138.646H70.8619ZM81.1811 129.011H83.5279V138.646H81.1811L77.2561 132.703V138.646H74.9093V129.011H77.2561L81.1811 134.981V129.011ZM84.831 133.815C84.831 130.933 86.8347 128.902 89.6755 128.902C91.9674 128.902 93.6966 130.192 94.2456 132.278H91.6655C91.2675 131.454 90.5401 131.042 89.6481 131.042C88.2071 131.042 87.219 132.113 87.219 133.815C87.219 135.516 88.2071 136.587 89.6481 136.587C90.5401 136.587 91.2675 136.175 91.6655 135.352H94.2456C93.6966 137.438 91.9674 138.714 89.6755 138.714C86.8347 138.714 84.831 136.697 84.831 133.815ZM105.166 133.801C105.166 136.697 102.97 138.742 100.239 138.742C97.508 138.742 95.2847 136.697 95.2847 133.801C95.2847 130.905 97.508 128.874 100.239 128.874C102.984 128.874 105.166 130.905 105.166 133.801ZM97.6864 133.801C97.6864 135.489 98.6745 136.601 100.239 136.601C101.776 136.601 102.778 135.489 102.778 133.801C102.778 132.086 101.776 131.001 100.239 131.001C98.6745 131.001 97.6864 132.086 97.6864 133.801ZM112.743 129.011H115.09V138.646H112.743L108.818 132.703V138.646H106.471V129.011H108.818L112.743 134.981V129.011ZM120.401 129.011C123.475 129.011 125.451 130.96 125.451 133.828C125.451 136.683 123.475 138.646 120.401 138.646H116.791V129.011H120.401ZM119.138 136.614H120.25C122.02 136.614 123.063 135.599 123.063 133.828C123.063 132.058 122.02 131.015 120.25 131.015H119.138V136.614ZM126.762 138.646V129.011H129.109V138.646H126.762ZM130.412 133.815C130.412 130.933 132.416 128.902 135.256 128.902C137.548 128.902 139.277 130.192 139.826 132.278H137.246C136.848 131.454 136.121 131.042 135.229 131.042C133.788 131.042 132.8 132.113 132.8 133.815C132.8 135.516 133.788 136.587 135.229 136.587C136.121 136.587 136.848 136.175 137.246 135.352H139.826C139.277 137.438 137.548 138.714 135.256 138.714C132.416 138.714 130.412 136.697 130.412 133.815ZM141.264 138.646V129.011H143.61V138.646H141.264ZM154.794 133.801C154.794 136.697 152.598 138.742 149.867 138.742C147.136 138.742 144.913 136.697 144.913 133.801C144.913 130.905 147.136 128.874 149.867 128.874C152.612 128.874 154.794 130.905 154.794 133.801ZM147.315 133.801C147.315 135.489 148.303 136.601 149.867 136.601C151.404 136.601 152.406 135.489 152.406 133.801C152.406 132.086 151.404 131.001 149.867 131.001C148.303 131.001 147.315 132.086 147.315 133.801ZM162.372 129.011H164.718V138.646H162.372L158.447 132.703V138.646H156.1V129.011H158.447L162.372 134.981V129.011ZM172.993 138.646L172.417 136.944H168.821L168.245 138.646H165.788L169.274 129.011H171.991L175.477 138.646H172.993ZM171.813 135.132L170.619 131.605L169.439 135.132H171.813ZM176.538 129.011H178.885V136.834H181.959V138.646H176.538V129.011Z" fill="black"></path><path d="M3.01156 30C3.82719 30 4.53302 30.298 5.12906 30.8941C5.72509 31.4901 6.02311 32.1959 6.02311 33.0116C6.02311 33.8272 5.72509 34.533 5.12906 35.1291C4.53302 35.7251 3.82719 36.0231 3.01156 36.0231C2.19593 36.0231 1.49009 35.7251 0.894055 35.1291C0.298018 34.533 0 33.8272 0 33.0116C0 32.1959 0.298018 31.4901 0.894055 30.8941C1.49009 30.298 2.19593 30 3.01156 30Z" fill="#B7B7B7"></path><path d="M14.8674 30C15.683 30 16.3888 30.298 16.9849 30.8941C17.5809 31.4901 17.8789 32.1959 17.8789 33.0116C17.8789 33.8272 17.5809 34.533 16.9849 35.1291C16.3888 35.7251 15.683 36.0231 14.8674 36.0231C14.0517 36.0231 13.3459 35.7251 12.7499 35.1291C12.1538 34.533 11.8558 33.8272 11.8558 33.0116C11.8558 32.1959 12.1538 31.4901 12.7499 30.8941C13.3459 30.298 14.0517 30 14.8674 30Z" fill="#B7B7B7"></path><path d="M26.7231 30C27.5388 30 28.2446 30.298 28.8406 30.8941C29.4367 31.4901 29.7347 32.1959 29.7347 33.0116C29.7347 33.8272 29.4367 34.533 28.8406 35.1291C28.2446 35.7251 27.5388 36.0231 26.7231 36.0231C25.9075 36.0231 25.2017 35.7251 24.6056 35.1291C24.0096 34.533 23.7116 33.8272 23.7116 33.0116C23.7116 32.1959 24.0096 31.4901 24.6056 30.8941C25.2017 30.298 25.9075 30 26.7231 30Z" fill="#B7B7B7"></path><path d="M38.5789 30C39.3946 30 40.1004 30.298 40.6964 30.8941C41.2925 31.4901 41.5905 32.1959 41.5905 33.0116C41.5905 33.8272 41.2925 34.533 40.6964 35.1291C40.1004 35.7251 39.3946 36.0231 38.5789 36.0231C37.7633 36.0231 37.0575 35.7251 36.4614 35.1291C35.8654 34.533 35.5674 33.8272 35.5674 33.0116C35.5674 32.1959 35.8654 31.4901 36.4614 30.8941C37.0575 30.298 37.7633 30 38.5789 30Z" fill="#B7B7B7"></path><path d="M50.4347 30C51.2504 30 51.9562 30.298 52.5522 30.8941C53.1483 31.4901 53.4463 32.1959 53.4463 33.0116C53.4463 33.8272 53.1483 34.533 52.5522 35.1291C51.9562 35.7251 51.2504 36.0231 50.4347 36.0231C49.6191 36.0231 48.9133 35.7251 48.3172 35.1291C47.7212 34.533 47.4232 33.8272 47.4232 33.0116C47.4232 32.1959 47.7212 31.4901 48.3172 30.8941C48.9133 30.298 49.6191 30 50.4347 30Z" fill="#B7B7B7"></path><path d="M62.2905 30C63.1062 30 63.812 30.298 64.408 30.8941C65.0041 31.4901 65.3021 32.1959 65.3021 33.0116C65.3021 33.8272 65.0041 34.533 64.408 35.1291C63.812 35.7251 63.1062 36.0231 62.2905 36.0231C61.4749 36.0231 60.7691 35.7251 60.173 35.1291C59.577 34.533 59.279 33.8272 59.279 33.0116C59.279 32.1959 59.577 31.4901 60.173 30.8941C60.7691 30.298 61.4749 30 62.2905 30Z" fill="#B7B7B7"></path><path d="M74.1463 30C74.962 30 75.6678 30.298 76.2638 30.8941C76.8599 31.4901 77.1579 32.1959 77.1579 33.0116C77.1579 33.8272 76.8599 34.533 76.2638 35.1291C75.6678 35.7251 74.962 36.0231 74.1463 36.0231C73.3307 36.0231 72.6249 35.7251 72.0288 35.1291C71.4328 34.533 71.1348 33.8272 71.1348 33.0116C71.1348 32.1959 71.4328 31.4901 72.0288 30.8941C72.6249 30.298 73.3307 30 74.1463 30Z" fill="#B7B7B7"></path><path d="M86.0021 30C86.8177 30 87.5236 30.298 88.1196 30.8941C88.7157 31.4901 89.0137 32.1959 89.0137 33.0116C89.0137 33.8272 88.7157 34.533 88.1196 35.1291C87.5236 35.7251 86.8177 36.0231 86.0021 36.0231C85.1865 36.0231 84.4807 35.7251 83.8846 35.1291C83.2886 34.533 82.9906 33.8272 82.9906 33.0116C82.9906 32.1959 83.2886 31.4901 83.8846 30.8941C84.4807 30.298 85.1865 30 86.0021 30Z" fill="#B7B7B7"></path><path d="M97.8579 30C98.6735 30 99.3794 30.298 99.9754 30.8941C100.571 31.4901 100.869 32.1959 100.869 33.0116C100.869 33.8272 100.571 34.533 99.9754 35.1291C99.3794 35.7251 98.6735 36.0231 97.8579 36.0231C97.0423 36.0231 96.3365 35.7251 95.7404 35.1291C95.1444 34.533 94.8464 33.8272 94.8464 33.0116C94.8464 32.1959 95.1444 31.4901 95.7404 30.8941C96.3365 30.298 97.0423 30 97.8579 30Z" fill="#B7B7B7"></path><path d="M109.714 30C110.529 30 111.235 30.298 111.831 30.8941C112.427 31.4901 112.725 32.1959 112.725 33.0116C112.725 33.8272 112.427 34.533 111.831 35.1291C111.235 35.7251 110.529 36.0231 109.714 36.0231C108.898 36.0231 108.192 35.7251 107.596 35.1291C107 34.533 106.702 33.8272 106.702 33.0116C106.702 32.1959 107 31.4901 107.596 30.8941C108.192 30.298 108.898 30 109.714 30Z" fill="#B7B7B7"></path><path d="M121.57 30C122.385 30 123.091 30.298 123.687 30.8941C124.283 31.4901 124.581 32.1959 124.581 33.0116C124.581 33.8272 124.283 34.533 123.687 35.1291C123.091 35.7251 122.385 36.0231 121.57 36.0231C120.754 36.0231 120.048 35.7251 119.452 35.1291C118.856 34.533 118.558 33.8272 118.558 33.0116C118.558 32.1959 118.856 31.4901 119.452 30.8941C120.048 30.298 120.754 30 121.57 30Z" fill="#B7B7B7"></path></svg>