<svg xmlns="http://www.w3.org/2000/svg" width="335" height="40" viewBox="0 0 335 40" fill="none"><path fill-rule="evenodd" clip-rule="evenodd" d="M11.4439 7.40984L10.763 7.97728C11.4439 7.40984 11.4437 7.40959 11.4439 7.40984L11.4461 7.41243L11.4496 7.4167L11.4607 7.43024C11.4699 7.44149 11.4826 7.45716 11.4985 7.47715C11.5304 7.51712 11.5754 7.57442 11.6316 7.6483C11.744 7.79603 11.9015 8.0103 12.0889 8.28518C12.4633 8.83441 12.9595 9.62858 13.4551 10.6198C14.4433 12.5963 15.4481 15.3935 15.4481 18.6136C15.4481 21.8338 14.4433 24.631 13.4551 26.6074C12.9595 27.5987 12.4633 28.3929 12.0889 28.9421C11.9015 29.217 11.744 29.4313 11.6316 29.579C11.5754 29.6529 11.5304 29.7102 11.4985 29.7501C11.4892 29.7618 11.481 29.772 11.4739 29.7807C11.4689 29.7869 11.4645 29.7924 11.4607 29.797L11.4496 29.8106L11.4461 29.8149L11.4448 29.8164C11.4446 29.8166 11.4439 29.8174 10.763 29.25L11.4439 29.8174C11.2779 30.0167 11.033 30.1332 10.7737 30.1363C10.5144 30.1394 10.2667 30.0288 10.0959 29.8337L5.0426 24.0584H0.886364C0.396838 24.0584 0 23.6616 0 23.1721V14.0552C0 13.5657 0.396838 13.1688 0.886364 13.1688H5.0426L10.0959 7.3936C10.2667 7.19844 10.5144 7.08785 10.7737 7.09098C11.033 7.0941 11.2779 7.21062 11.4439 7.40984ZM10.6997 27.8317C11.028 27.3415 11.4485 26.6567 11.8695 25.8146C12.7807 23.9924 13.6753 21.4714 13.6753 18.6136C13.6753 15.7558 12.7807 13.2349 11.8695 11.4126C11.4485 10.5706 11.028 9.88575 10.6997 9.3956L6.11186 14.6389C5.94355 14.8312 5.7004 14.9416 5.44481 14.9416H1.77273V22.2857H5.44481C5.7004 22.2857 5.94355 22.3961 6.11186 22.5884L10.6997 27.8317ZM14.6947 7.35052C15.0408 7.00438 15.602 7.00438 15.9482 7.35052L15.3214 7.97728C15.9482 7.35052 15.9486 7.35092 15.949 7.35132L15.9499 7.3522L15.9518 7.35416L15.9565 7.35894L15.9692 7.37198C15.979 7.38222 15.9916 7.39556 16.0069 7.41206C16.0373 7.44505 16.0782 7.49065 16.1279 7.54924C16.2273 7.66642 16.3622 7.83556 16.5204 8.05967C16.8369 8.50808 17.2461 9.17577 17.6509 10.0864C18.4618 11.911 19.2468 14.6929 19.2468 18.6136C19.2468 22.5344 18.4618 25.3163 17.6509 27.1408C17.2461 28.0515 16.8369 28.7192 16.5204 29.1676C16.3622 29.3917 16.2273 29.5609 16.1279 29.678C16.0782 29.7366 16.0373 29.7822 16.0069 29.8152C15.9916 29.8317 15.979 29.8451 15.9692 29.8553L15.9565 29.8683L15.9518 29.8731L15.9499 29.8751L15.949 29.876C15.9486 29.8764 15.9482 29.8768 15.3214 29.25L15.9482 29.8768C15.602 30.2229 15.0408 30.2229 14.6947 29.8768C14.3498 29.5319 14.3485 28.9736 14.6908 28.6271C14.6917 28.6262 14.6927 28.6253 14.6936 28.6244L14.6922 28.6258L14.6908 28.6271L14.7043 28.6128C14.7183 28.5976 14.7428 28.5705 14.7761 28.5311C14.8429 28.4524 14.9454 28.3248 15.0721 28.1453C15.3254 27.7865 15.6759 27.2196 16.0309 26.4209C16.7395 24.8266 17.474 22.2903 17.474 18.6136C17.474 14.937 16.7395 12.4007 16.0309 10.8064C15.6759 10.0077 15.3254 9.44079 15.0721 9.08197C14.9454 8.90248 14.8429 8.77484 14.7761 8.69615C14.7428 8.65681 14.7183 8.6297 14.7043 8.61446L14.6911 8.60047L14.6922 8.60151L14.6933 8.60263L14.6939 8.6033M14.6947 7.35052C14.3498 7.69541 14.3488 8.25403 14.6911 8.60047L14.6947 7.35052ZM19.3481 8.78767C19.7397 8.49395 20.2952 8.57332 20.589 8.96494L19.8799 9.49676C20.589 8.96494 20.5887 8.96458 20.589 8.96494L20.5901 8.96641L20.5914 8.96816L20.5946 8.97253L20.6035 8.98466C20.6105 8.99426 20.6195 9.00689 20.6305 9.02255C20.6526 9.05387 20.6824 9.09732 20.7188 9.1529C20.7918 9.26404 20.8914 9.42374 21.0085 9.63201C21.2428 10.0486 21.5474 10.6595 21.8494 11.4648C22.454 13.0769 23.0455 15.4613 23.0455 18.6136C23.0455 21.7659 22.454 24.1503 21.8494 25.7625C21.5474 26.5678 21.2428 27.1787 21.0085 27.5953C20.8914 27.8035 20.7918 27.9632 20.7188 28.0744C20.6824 28.13 20.6526 28.1734 20.6305 28.2047C20.6195 28.2204 20.6105 28.233 20.6035 28.2426L20.5946 28.2548L20.5914 28.2591L20.5901 28.2609L20.5895 28.2616C20.5892 28.262 20.589 28.2623 19.9261 27.7652L20.5895 28.2616C20.2958 28.6533 19.7397 28.7333 19.3481 28.4396C18.9574 28.1466 18.8775 27.5931 19.1686 27.2016C19.1684 27.2018 19.1688 27.2014 19.1686 27.2016C19.1687 27.2014 19.1694 27.2006 19.1695 27.2004L19.1804 27.1851C19.1918 27.1689 19.2109 27.1412 19.2368 27.1018C19.2885 27.023 19.3669 26.8978 19.4635 26.7262C19.6565 26.383 19.9217 25.8543 20.1896 25.1401C20.7246 23.7133 21.2727 21.5393 21.2727 18.6136C21.2727 15.688 20.7246 13.514 20.1896 12.0872C19.9217 11.373 19.6565 10.8443 19.4635 10.5011C19.3669 10.3295 19.2885 10.2043 19.2368 10.1255C19.2109 10.0861 19.1918 10.0583 19.1804 10.0422L19.1693 10.0267L19.1699 10.0274M19.1686 10.0257C19.1684 10.0253 19.1685 10.0255 19.1686 10.0257V10.0257ZM19.3481 8.78767C18.9574 9.08066 18.8775 9.63422 19.1686 10.0257L19.3481 8.78767Z" fill="black"></path><path d="M43.9257 4.45227H45.0558L40.3847 15H39.2847L34.6136 4.45227H35.819L39.8573 13.6137L43.9257 4.45227ZM51.0945 15.0904C47.9001 15.0904 45.5494 12.8 45.5494 9.72614C45.5494 6.65223 47.9001 4.36186 51.0945 4.36186C54.2588 4.36186 56.6245 6.63716 56.6245 9.72614C56.6245 12.8151 54.2588 15.0904 51.0945 15.0904ZM51.0945 14.0959C53.626 14.0959 55.5095 12.2425 55.5095 9.72614C55.5095 7.20975 53.626 5.35636 51.0945 5.35636C48.548 5.35636 46.6494 7.20975 46.6494 9.72614C46.6494 12.2425 48.548 14.0959 51.0945 14.0959ZM63.7046 15.0904C60.5403 15.0904 58.1896 12.8151 58.1896 9.72614C58.1896 6.63716 60.5403 4.36186 63.7196 4.36186C65.2566 4.36186 66.6429 4.87418 67.5771 5.89882L66.8689 6.60702C66.01 5.73307 64.9552 5.35636 63.7498 5.35636C61.2033 5.35636 59.2896 7.22482 59.2896 9.72614C59.2896 12.2275 61.2033 14.0959 63.7498 14.0959C64.9552 14.0959 66.01 13.7192 66.8689 12.8302L67.5771 13.5384C66.6429 14.563 65.2566 15.0904 63.7046 15.0904ZM73.5855 2.34273L72.0938 3.59339H71.0993L73.0431 1.72493H74.128L76.0718 3.59339H75.0773L73.5855 2.34273ZM71.0691 14.0356H77.4129V15H69.9541V4.45227H77.1868V5.41664H71.0691V9.16861H76.5238V10.1179H71.0691V14.0356ZM91.4061 13.2822V9.72614H92.476V13.7493C91.4815 14.6384 90.0651 15.0904 88.6034 15.0904C85.3939 15.0904 83.0433 12.8151 83.0433 9.72614C83.0433 6.63716 85.3939 4.36186 88.6185 4.36186C90.2157 4.36186 91.602 4.87418 92.5362 5.88375L91.8431 6.59195C90.9541 5.718 89.8993 5.35636 88.6637 5.35636C86.0569 5.35636 84.1433 7.20975 84.1433 9.72614C84.1433 12.2275 86.0569 14.0959 88.6487 14.0959C89.6582 14.0959 90.5924 13.8699 91.4061 13.2822ZM103.512 15L102.247 12.1822H96.3702L95.1044 15H93.9442L98.766 4.45227H99.866L104.688 15H103.512ZM96.777 11.2782H101.84L99.3084 5.61252L96.777 11.2782ZM114.148 4.45227H115.248V15H114.328L107.548 6.44127V15H106.433V4.45227H107.352L114.148 13.011V4.45227ZM126.405 4.45227H127.505V15H126.405V10.133H119.805V15H118.69V4.45227H119.805V9.15355H126.405V4.45227ZM135.559 15.0904C132.364 15.0904 130.014 12.8 130.014 9.72614C130.014 6.65223 132.364 4.36186 135.559 4.36186C138.723 4.36186 141.089 6.63716 141.089 9.72614C141.089 12.8151 138.723 15.0904 135.559 15.0904ZM135.559 14.0959C138.09 14.0959 139.974 12.2425 139.974 9.72614C139.974 7.20975 138.09 5.35636 135.559 5.35636C133.012 5.35636 131.114 7.20975 131.114 9.72614C131.114 12.2425 133.012 14.0959 135.559 14.0959ZM147.837 15.0904C145.14 15.0904 143.498 13.5233 143.498 10.4946V4.45227H144.613V10.4494C144.613 12.9507 145.788 14.0959 147.837 14.0959C149.902 14.0959 151.077 12.9507 151.077 10.4494V4.45227H152.162V10.4946C152.162 13.5233 150.535 15.0904 147.837 15.0904ZM163.715 15.0904C161.018 15.0904 159.375 13.5233 159.375 10.4946V4.45227H160.49V10.4494C160.49 12.9507 161.666 14.0959 163.715 14.0959C165.779 14.0959 166.954 12.9507 166.954 10.4494V4.45227H168.039V10.4946C168.039 13.5233 166.412 15.0904 163.715 15.0904ZM181.435 4.45227H182.354V15H181.284V6.56182L177.14 13.6589H176.613L172.469 6.60702V15H171.399V4.45227H172.319L176.899 12.2727L181.435 4.45227ZM193.671 15L192.406 12.1822H186.529L185.263 15H184.103L188.925 4.45227H190.025L194.847 15H193.671ZM186.936 11.2782H191.999L189.467 5.61252L186.936 11.2782ZM205.176 15.1808C201.846 15.1808 199.405 12.8603 199.405 9.72614C199.405 6.59195 201.846 4.27145 205.176 4.27145C208.491 4.27145 210.947 6.57689 210.947 9.72614C210.947 12.8754 208.491 15.1808 205.176 15.1808ZM205.176 13.1014C207.06 13.1014 208.476 11.7302 208.476 9.72614C208.476 7.72207 207.06 6.35086 205.176 6.35086C203.293 6.35086 201.876 7.72207 201.876 9.72614C201.876 11.7302 203.293 13.1014 205.176 13.1014ZM217.348 4.45227C220.165 4.45227 221.928 5.91389 221.928 8.27959C221.928 10.6302 220.165 12.0918 217.348 12.0918H215.223V15H212.782V4.45227H217.348ZM217.212 10.1028C218.704 10.1028 219.457 9.42477 219.457 8.27959C219.457 7.11934 218.704 6.44127 217.212 6.44127H215.223V10.1028H217.212ZM228.926 15.1808C225.596 15.1808 223.155 12.8603 223.155 9.72614C223.155 6.59195 225.596 4.27145 228.926 4.27145C232.241 4.27145 234.697 6.57689 234.697 9.72614C234.697 12.8754 232.241 15.1808 228.926 15.1808ZM228.926 13.1014C230.81 13.1014 232.226 11.7302 232.226 9.72614C232.226 7.72207 230.81 6.35086 228.926 6.35086C227.043 6.35086 225.626 7.72207 225.626 9.72614C225.626 11.7302 227.043 13.1014 228.926 13.1014ZM245.874 15H243.252L241.218 12.0617H241.098H238.973V15H236.532V4.45227H241.098C243.915 4.45227 245.678 5.91389 245.678 8.27959C245.678 9.86175 244.88 11.022 243.508 11.6097L245.874 15ZM243.207 8.27959C243.207 7.11934 242.454 6.44127 240.962 6.44127H238.973V10.1179H240.962C242.454 10.1179 243.207 9.42477 243.207 8.27959ZM249.65 15V6.44127H246.275V4.45227H255.466V6.44127H252.091V15H249.65ZM261.289 15.1808C258.291 15.1808 256.513 13.463 256.513 10.359V4.45227H258.954V10.2686C258.954 12.2727 259.828 13.1014 261.304 13.1014C262.796 13.1014 263.655 12.2727 263.655 10.2686V4.45227H266.066V10.359C266.066 13.463 264.288 15.1808 261.289 15.1808ZM275.741 4.45227H278.152V15H276.148L270.889 8.59602V15H268.478V4.45227H270.497L275.741 10.8562V4.45227ZM280.648 15V4.45227H283.089V15H280.648ZM285.592 15V4.45227H290.383C293.834 4.45227 296.2 6.53168 296.2 9.72614C296.2 12.9206 293.834 15 290.383 15H285.592ZM288.033 12.9959H290.263C292.357 12.9959 293.729 11.7453 293.729 9.72614C293.729 7.707 292.357 6.45634 290.263 6.45634H288.033V12.9959ZM305.774 15L304.84 12.7398H299.943L299.009 15H296.507L301.209 4.45227H303.619L308.336 15H305.774ZM300.726 10.8864H304.071L302.399 6.84811L300.726 10.8864ZM309.43 15V4.45227H314.222C317.672 4.45227 320.038 6.53168 320.038 9.72614C320.038 12.9206 317.672 15 314.222 15H309.43ZM311.871 12.9959H314.101C316.196 12.9959 317.567 11.7453 317.567 9.72614C317.567 7.707 316.196 6.45634 314.101 6.45634H311.871V12.9959ZM324.305 13.0411H330.046V15H321.879V4.45227H329.85V6.41114H324.305V8.7015H329.202V10.6001H324.305V13.0411ZM332.335 15.0753C331.898 15.0753 331.536 14.7137 331.536 14.2466C331.536 13.7795 331.898 13.4329 332.335 13.4329C332.772 13.4329 333.149 13.7795 333.149 14.2466C333.149 14.7137 332.772 15.0753 332.335 15.0753ZM43.6997 35L42.7655 32.7398H37.8683L36.9341 35H34.4327L39.134 24.4523H41.5449L46.2613 35H43.6997ZM38.6518 30.8864H41.997L40.3244 26.8481L38.6518 30.8864ZM51.9213 24.4523C54.739 24.4523 56.502 25.9139 56.502 28.2796C56.502 30.6302 54.739 32.0918 51.9213 32.0918H49.7966V35H47.3556V24.4523H51.9213ZM51.7856 30.1028C53.2774 30.1028 54.0308 29.4248 54.0308 28.2796C54.0308 27.1193 53.2774 26.4413 51.7856 26.4413H49.7966V30.1028H51.7856ZM60.6707 33.0411H66.4117V35H58.2447V24.4523H66.2158V26.4111H60.6707V28.7015H65.5678V30.6001H60.6707V33.0411ZM77.6962 35H75.0743L73.0401 32.0617H72.9196H70.795V35H68.3539V24.4523H72.9196C75.7373 24.4523 77.5003 25.9139 77.5003 28.2796C77.5003 29.8617 76.7017 31.022 75.3305 31.6097L77.6962 35ZM75.0291 28.2796C75.0291 27.1193 74.2757 26.4413 72.784 26.4413H70.795V30.1179H72.784C74.2757 30.1179 75.0291 29.4248 75.0291 28.2796ZM81.4721 35V26.4413H78.0968V24.4523H87.2884V26.4413H83.9131V35H81.4721ZM91.0278 33.0411H96.7688V35H88.6018V24.4523H96.5729V26.4111H91.0278V28.7015H95.9249V30.6001H91.0278V33.0411ZM108.086 35.1808C104.756 35.1808 102.315 32.8603 102.315 29.7261C102.315 26.592 104.756 24.2715 108.086 24.2715C111.401 24.2715 113.858 26.5769 113.858 29.7261C113.858 32.8754 111.401 35.1808 108.086 35.1808ZM108.086 33.1014C109.97 33.1014 111.386 31.7302 111.386 29.7261C111.386 27.7221 109.97 26.3509 108.086 26.3509C106.203 26.3509 104.787 27.7221 104.787 29.7261C104.787 31.7302 106.203 33.1014 108.086 33.1014ZM124.525 24.4523C127.343 24.4523 129.106 25.9139 129.106 28.2796C129.106 30.6302 127.343 32.0918 124.525 32.0918H122.401V35H119.96V24.4523H124.525ZM124.39 30.1028C125.881 30.1028 126.635 29.4248 126.635 28.2796C126.635 27.1193 125.881 26.4413 124.39 26.4413H122.401V30.1028H124.39ZM130.849 35V24.4523H133.29V33.011H138.579V35H130.849ZM147.911 35L146.977 32.7398H142.08L141.146 35H138.645L143.346 24.4523H145.757L150.473 35H147.911ZM142.864 30.8864H146.209L144.536 26.8481L142.864 30.8864ZM160.081 24.4523L155.983 31.2631V35H153.542V31.233L149.458 24.4523H152.05L154.868 29.1385L157.686 24.4523H160.081ZM166.629 34.0356H172.972V35H165.513V24.4523H172.746V25.4166H166.629V29.1686H172.083V30.1179H166.629V34.0356ZM179.07 35V24.4523H181.511V33.011H186.8V35H179.07ZM188.164 35V24.4523H190.605V35H188.164ZM200.235 32.6494V29.5604H202.465V33.8397C201.305 34.7137 199.708 35.1808 198.201 35.1808C194.886 35.1808 192.445 32.9055 192.445 29.7261C192.445 26.5467 194.886 24.2715 198.246 24.2715C200.1 24.2715 201.636 24.9043 202.661 26.0947L201.094 27.5412C200.326 26.7276 199.437 26.3509 198.367 26.3509C196.317 26.3509 194.916 27.7221 194.916 29.7261C194.916 31.7001 196.317 33.1014 198.337 33.1014C199 33.1014 199.617 32.9809 200.235 32.6494ZM209.419 35.1808C206.42 35.1808 204.642 33.463 204.642 30.359V24.4523H207.083V30.2686C207.083 32.2727 207.957 33.1014 209.434 33.1014C210.926 33.1014 211.785 32.2727 211.785 30.2686V24.4523H214.196V30.359C214.196 33.463 212.418 35.1808 209.419 35.1808ZM219.034 33.0411H224.775V35H216.608V24.4523H224.579V26.4111H219.034V28.7015H223.931V30.6001H219.034V33.0411ZM234.45 35.1808C232.777 35.1808 231.09 34.6836 230.156 33.9603L230.984 32.122C231.873 32.7699 233.199 33.222 234.465 33.222C235.912 33.222 236.499 32.7398 236.499 32.0918C236.499 30.1179 230.367 31.474 230.367 27.5563C230.367 25.7632 231.813 24.2715 234.812 24.2715C236.138 24.2715 237.494 24.5879 238.473 25.2057L237.72 27.0591C236.74 26.5015 235.731 26.2303 234.797 26.2303C233.35 26.2303 232.793 26.7728 232.793 27.4358C232.793 29.3796 238.925 28.0385 238.925 31.911C238.925 33.674 237.464 35.1808 234.45 35.1808ZM243.019 33.0411H248.76V35H240.593V24.4523H248.564V26.4111H243.019V28.7015H247.916V30.6001H243.019V33.0411ZM255.389 35.1808C252.39 35.1808 250.612 33.463 250.612 30.359V24.4523H253.053V30.2686C253.053 32.2727 253.927 33.1014 255.404 33.1014C256.895 33.1014 257.754 32.2727 257.754 30.2686V24.4523H260.165V30.359C260.165 33.463 258.387 35.1808 255.389 35.1808ZM270.311 35.1808C268.638 35.1808 266.95 34.6836 266.016 33.9603L266.845 32.122C267.734 32.7699 269.06 33.222 270.326 33.222C271.772 33.222 272.36 32.7398 272.36 32.0918C272.36 30.1179 266.227 31.474 266.227 27.5563C266.227 25.7632 267.674 24.2715 270.672 24.2715C271.998 24.2715 273.354 24.5879 274.334 25.2057L273.58 27.0591C272.601 26.5015 271.591 26.2303 270.657 26.2303C269.211 26.2303 268.653 26.7728 268.653 27.4358C268.653 29.3796 274.786 28.0385 274.786 31.911C274.786 33.674 273.324 35.1808 270.311 35.1808ZM281.562 35.1808C278.232 35.1808 275.791 32.8603 275.791 29.7261C275.791 26.592 278.232 24.2715 281.562 24.2715C284.877 24.2715 287.333 26.5769 287.333 29.7261C287.333 32.8754 284.877 35.1808 281.562 35.1808ZM281.562 33.1014C283.445 33.1014 284.862 31.7302 284.862 29.7261C284.862 27.7221 283.445 26.3509 281.562 26.3509C279.678 26.3509 278.262 27.7221 278.262 29.7261C278.262 31.7302 279.678 33.1014 281.562 33.1014ZM301.056 35H298.766L298.751 28.6714L295.647 33.885H294.547L291.458 28.807V35H289.168V24.4523H291.187L295.135 31.0069L299.022 24.4523H301.026L301.056 35ZM303.559 31.3384L303.092 24.4523H305.894L305.427 31.3384H303.559ZM304.493 35.1205C303.649 35.1205 303.047 34.5027 303.047 33.7493C303.047 32.9809 303.649 32.4083 304.493 32.4083C305.337 32.4083 305.94 32.9809 305.94 33.7493C305.94 34.5027 305.337 35.1205 304.493 35.1205Z" fill="black"></path></svg>