<svg xmlns="http://www.w3.org/2000/svg" width="75" height="75" viewBox="0 0 75 75" fill="none"><circle cx="37.5" cy="37.5" r="37.5" fill="#FFF1E4"></circle><circle cx="37.5" cy="37.5" r="24.5" fill="#A64142"></circle><path d="M38.0078 11C42.0864 11.0024 46.1114 11.9281 49.7809 13.7079C53.4504 15.4876 56.6691 18.0751 59.1953 21.2761C61.7216 24.4771 63.4898 28.2086 64.3674 32.1904C65.245 36.1723 65.209 40.3011 64.2623 44.2671C63.3156 48.2331 61.4827 51.9332 58.9011 55.0898C56.3195 58.2464 53.0563 60.7775 49.3564 62.4931C45.6565 64.2088 41.6159 65.0644 37.538 64.9959C33.46 64.9273 29.4505 63.9363 25.8104 62.0972L25.4019 61.8778L13.0965 64.9491C12.8597 65.0086 12.6127 65.016 12.3728 64.9709C12.1328 64.9258 11.9054 64.8291 11.7065 64.6876C11.5075 64.5461 11.3416 64.3632 11.2202 64.1513C11.0988 63.9395 11.0248 63.7039 11.0034 63.4607V63.1839L11.0506 62.9038L14.1228 50.6054L13.9101 50.2004C12.3652 47.1601 11.4142 43.8532 11.108 40.4568L11.0236 39.1676L11 37.9998C11 30.839 13.8455 23.9715 18.9104 18.9081C23.9753 13.8446 30.8449 11 38.0078 11ZM38.0078 14.375C33.8839 14.3743 29.8317 15.4525 26.2537 17.5024C22.6757 19.5523 19.6966 22.5025 17.6124 26.0599C15.5282 29.6173 14.4115 33.658 14.3732 37.7804C14.3349 41.9029 15.3763 45.9637 17.3941 49.5591C17.5507 49.8387 17.6245 50.1572 17.6068 50.4771L17.5595 50.7944L15.0073 60.9902L25.2162 58.4455C25.4238 58.3943 25.6391 58.3829 25.8509 58.4117L26.1581 58.4826L26.4518 58.6142C29.6028 60.3777 33.1161 61.3958 36.7219 61.5904C40.3278 61.7849 43.9303 61.1508 47.2528 59.7367C50.5753 58.3225 53.5295 56.166 55.8884 53.4327C58.2474 50.6993 59.9483 47.4619 60.8607 43.969C61.7731 40.4761 61.8727 36.8206 61.1517 33.2833C60.4308 29.7459 58.9086 26.4207 56.7019 23.5632C54.4952 20.7056 51.6628 18.3915 48.4222 16.7988C45.1816 15.206 41.6189 14.3768 38.0078 14.375Z" fill="black"></path><path d="M25.4927 28.8634C24.8596 29.4963 24.5039 30.3548 24.5039 31.2499V44.7498C24.5039 45.6449 24.8596 46.5033 25.4927 47.1362C26.1258 47.7692 26.9845 48.1248 27.8799 48.1248H38.0078C38.9032 48.1248 39.7619 47.7692 40.395 47.1362C41.0281 46.5033 41.3838 45.6449 41.3838 44.7498V31.2499C41.3838 30.3548 41.0281 29.4963 40.395 28.8634C39.7619 28.2305 38.9032 27.8749 38.0078 27.8749H27.8799C26.9845 27.8749 26.1258 28.2305 25.4927 28.8634Z" fill="#FFF1E4"></path><path d="M48.6286 30.7571L44.7598 34.6248V41.3748L48.6286 45.2425C48.8645 45.4789 49.1652 45.6401 49.4928 45.7055C49.8203 45.771 50.1599 45.7379 50.4685 45.6103C50.7772 45.4828 51.0411 45.2665 51.2268 44.989C51.4125 44.7114 51.5116 44.3851 51.5117 44.0512V31.9485C51.5116 31.6146 51.4125 31.2882 51.2268 31.0107C51.0411 30.7331 50.7772 30.5169 50.4685 30.3893C50.1599 30.2618 49.8203 30.2286 49.4928 30.2941C49.1652 30.3596 48.8645 30.5207 48.6286 30.7571Z" fill="#FFF1E4"></path></svg>