<svg xmlns="http://www.w3.org/2000/svg" width="221" height="81" viewBox="0 0 221 81" fill="none"><path d="M49.3818 22.0553C49.4511 21.2585 50.6289 20.6696 51.4257 20.6696H54.8899C59.9475 20.9467 63.2039 24.8959 63.2039 32.4132C63.2039 38.9951 59.7743 44.1567 54.5434 44.1567H51.4257C50.6289 44.1567 49.4511 43.5678 49.3818 42.771V22.0553ZM46.9569 22.0553V42.771C46.9223 43.5678 45.7444 44.1567 44.8784 44.1567V44.5031H54.5434C60.9522 44.5031 65.5942 39.6533 65.5942 32.4132C65.5942 25.173 61.2986 20.6003 54.8899 20.3232H44.8784V20.6696C45.7444 20.6696 46.9223 21.2585 46.9569 22.0553Z" fill="black"></path><path d="M66.9354 44.5031H81.866C82.0739 44.5031 82.2471 44.3992 82.3164 44.1913L83.5981 39.6533H83.2517C82.3164 42.1128 81.1385 44.1567 78.1247 44.1567H73.4827C72.2703 44.1567 71.4389 43.3946 71.4389 42.1475V32.621H78.1247C79.1986 32.621 79.8914 33.591 79.8914 35.0459H80.2379V29.8497H79.8914C79.8914 31.3046 79.164 32.2746 78.1247 32.2746H71.4389V22.6788C71.4389 21.501 72.1663 20.6696 73.1709 20.6696H78.1247C81.1385 20.6696 82.3164 22.7135 83.2517 25.173H83.5981L82.3164 20.635C82.2471 20.4271 82.0739 20.3232 81.866 20.3232H66.9354V20.6696C68.1133 20.6696 69.0139 21.4664 69.0139 22.6788V42.1475C69.0139 43.3253 68.0786 44.1567 66.9354 44.1567V44.5031Z" fill="black"></path><path d="M94.5987 20.6696C98.3747 20.6696 101.181 23.4063 101.181 27.1823C101.181 31.0275 98.34 33.4524 94.2523 33.4524H89.4025V23.7527C89.4025 21.6049 89.9567 20.6696 91.2038 20.6696H94.5987ZM103.606 27.3208C103.606 23.3024 100.349 20.3232 95.2569 20.3232H84.8991V20.6696C85.7651 20.6696 86.9429 21.2585 86.9776 22.0553V42.771C86.9776 43.4639 85.9383 44.1567 84.8991 44.1567V44.5031H91.4117V44.1221C90.4071 44.1567 89.4025 43.4639 89.4025 42.771V33.7988H94.9105C100.557 33.7988 103.606 31.27 103.606 27.3208Z" fill="black"></path><path d="M104.385 20.6696C105.251 20.6696 106.429 21.2585 106.464 22.0553V42.771C106.429 43.5678 105.251 44.1567 104.385 44.1567V44.5031H110.932V44.1567C110.136 44.1567 108.958 43.5678 108.888 42.771V22.0553C108.958 21.2585 110.136 20.6696 110.932 20.6696V20.3232H104.385V20.6696Z" fill="black"></path><path d="M114.278 22.0553V42.1475C114.278 43.3599 113.378 44.1567 112.2 44.1567V44.5031H127.477L128.862 39.6533H128.516C127.581 42.1128 126.403 44.1567 123.389 44.1567H118.435C117.431 44.1567 116.703 43.3253 116.703 42.1475V22.0553C116.772 21.2585 117.95 20.6696 118.747 20.6696V20.3232H112.2V20.6696C113.066 20.6696 114.244 21.2585 114.278 22.0553Z" fill="black"></path><path d="M134.236 35.7041L139.294 23.5102L144.386 35.7041H134.236ZM140.61 20.3232H140.229L131.118 42.2861C130.702 43.2907 129.559 44.0181 128.278 44.1567V44.5031H133.058V44.1567C131.638 44.1567 131.014 43.3946 131.465 42.2861L134.097 36.0505H144.559L147.123 42.2861C147.573 43.3946 146.984 44.1567 145.564 44.1567V44.5031H152.596V44.1567C151.314 44.0181 150.171 43.2214 149.721 42.1821L140.61 20.3232Z" fill="black"></path><path d="M172.888 37.7133C172.818 37.6441 172.749 37.6787 172.714 37.7826C171.086 42.2168 167.726 43.8103 164.504 43.8103C158.234 43.8103 155.567 37.8173 155.567 31.7896C155.567 26.1776 157.853 20.3232 163.638 20.3232C167.033 20.3232 169.146 22.3324 169.146 25.7966C169.146 26.4201 169.077 26.8705 168.8 27.1823C168.8 28.1176 169.424 28.7411 170.29 28.7411C171.121 28.7411 171.814 28.1176 171.814 26.4548C171.814 22.6788 168.28 19.9768 163.604 19.9768C157.195 19.9768 153.142 25.1384 153.142 32.0667C153.142 39.0297 157.264 44.8495 163.846 44.8495C167.934 44.8495 171.363 42.5978 172.957 38.0251C172.992 37.9212 172.992 37.8173 172.922 37.748L172.888 37.7133ZM161.006 50.8772C163.119 51.1197 164.712 49.8726 164.989 48.5562C165.267 47.3784 164.435 46.1659 161.941 46.062L163.049 44.1221H162.703L160.971 47.1012C162.599 46.6856 163.638 47.5862 163.638 48.5562C163.638 49.5955 162.461 50.7386 161.006 50.5308C160.625 50.4615 160.659 50.8426 161.006 50.8772Z" fill="black"></path><path d="M179.094 35.7041L184.152 23.5102L189.244 35.7041H179.094ZM185.468 20.3232H185.087L175.977 42.2861C175.561 43.2907 174.418 44.0181 173.136 44.1567V44.5031H177.916V44.1567C176.496 44.1567 175.873 43.3946 176.323 42.2861L178.956 36.0505H189.417L191.981 42.2861C192.431 43.3946 191.842 44.1567 190.422 44.1567V44.5031H197.454V44.1567C196.173 44.0181 195.029 43.2214 194.579 42.1821L185.468 20.3232ZM181.069 16.3394C181.935 13.187 189.175 21.0853 190.076 14.8844C190.214 13.9491 189.833 13.9838 189.556 14.8844C188.759 17.5172 181.692 9.96532 180.549 16.3394C180.376 17.2401 180.826 17.2747 181.069 16.3394Z" fill="black"></path><path d="M200.46 32.4132C200.46 24.5495 203.855 20.3232 208.774 20.3232C213.693 20.3232 217.053 24.5495 217.053 32.4132C217.053 40.2768 213.693 44.5031 208.774 44.5031C203.855 44.5031 200.46 40.2768 200.46 32.4132ZM198.035 32.4132C198.035 39.9997 202.365 44.8495 208.774 44.8495C215.183 44.8495 219.478 39.9997 219.478 32.4132C219.478 24.8266 215.183 19.9768 208.774 19.9768C202.365 19.9768 198.035 24.8266 198.035 32.4132Z" fill="black"></path><path d="M13.1704 56.6437C16.9463 56.6437 19.7523 59.3804 19.7523 63.1564C19.7523 67.0016 16.9117 69.4265 12.824 69.4265H7.97413V59.7268C7.97413 57.579 8.5284 56.6437 9.7755 56.6437H13.1704ZM22.1772 63.2949C22.1772 59.2765 18.9209 56.2973 13.8286 56.2973H3.4707V56.6437C4.33675 56.6437 5.51457 57.2326 5.54921 58.0294V78.7451C5.54921 79.438 4.50995 80.1308 3.4707 80.1308V80.4772H9.98335V80.0962C8.97874 80.1308 7.97413 79.438 7.97413 78.7451V69.7729H13.4822C19.1288 69.7729 22.1772 67.2441 22.1772 63.2949Z" fill="black"></path><path d="M31.9635 56.6437C35.3931 56.6437 38.199 59.3804 38.199 63.1564C38.199 67.0016 35.3584 69.4265 31.6171 69.4265H27.4601V59.7268C27.4601 57.579 28.0144 56.6437 29.2615 56.6437H31.9635ZM40.624 63.2949C40.624 58.9647 37.2637 56.2973 31.9635 56.2973H22.9567V56.6437C23.8227 56.6437 25.0005 57.2326 25.0352 58.0294V78.7451C25.0352 79.438 23.9959 80.1308 22.9567 80.1308V80.4772H29.4693V80.0962C28.4647 80.1308 27.4601 79.438 27.4601 78.7451V69.7729H31.0282L35.8088 78.3987C36.363 79.4033 36.0166 80.1308 34.8734 80.1308V80.4772H41.2475V80.1308C39.4461 79.9576 38.9958 79.1608 38.2683 77.8445L33.7649 69.6344C37.9565 69.0455 40.624 67.2094 40.624 63.2949Z" fill="black"></path><path d="M45.1133 68.3873C45.1133 60.5236 48.5082 56.2973 53.4273 56.2973C58.3465 56.2973 61.7067 60.5236 61.7067 68.3873C61.7067 76.2509 58.3465 80.4772 53.4273 80.4772C48.5082 80.4772 45.1133 76.2509 45.1133 68.3873ZM42.6884 68.3873C42.6884 75.9738 47.0186 80.8236 53.4273 80.8236C59.836 80.8236 64.1316 75.9738 64.1316 68.3873C64.1316 60.8007 59.836 55.9509 53.4273 55.9509C47.0186 55.9509 42.6884 60.8007 42.6884 68.3873Z" fill="black"></path><path d="M65.5146 80.4772H72.0619V80.1308C71.2651 80.1308 70.0873 79.5419 70.018 78.7451V68.5951H76.7039C77.7778 68.5951 78.4706 69.5651 78.4706 71.02H78.817V65.8238H78.4706C78.4706 67.2787 77.7431 68.2487 76.7039 68.2487H70.018V58.6529C70.018 57.4751 70.7455 56.6437 71.7501 56.6437H76.7039C79.7177 56.6437 80.8955 58.6876 81.8308 61.1471H82.1773L80.8955 56.6091C80.8262 56.4012 80.653 56.2973 80.4452 56.2973H65.5146V56.6437C66.6924 56.6437 67.5931 57.4405 67.5931 58.6529V78.7451C67.5584 79.5419 66.3806 80.1308 65.5146 80.1308V80.4772Z" fill="black"></path><path d="M82.8693 56.6437C83.7353 56.6437 84.9131 57.2326 84.9478 58.0294V78.7451C84.9131 79.5419 83.7353 80.1308 82.8693 80.1308V80.4772H89.4166V80.1308C88.6198 80.1308 87.442 79.5419 87.3727 78.7451V58.0294C87.442 57.2326 88.6198 56.6437 89.4166 56.6437V56.2973H82.8693V56.6437Z" fill="black"></path><path d="M93.3933 61.0779C93.3933 58.3412 95.7836 56.2973 99.1785 56.2973C102.608 56.2973 104.721 58.3065 104.721 61.7707C104.721 62.3942 104.652 62.8446 104.375 63.1564C104.375 64.0917 104.998 64.7152 105.864 64.7152C106.696 64.7152 107.389 64.0917 107.389 62.4289C107.389 58.6529 103.855 55.9509 99.1438 55.9509C94.5711 55.9509 91.3841 58.5144 91.3841 62.1864C91.3841 70.0501 105.726 68.7337 105.726 75.4542C105.726 78.3641 103.024 80.4772 99.2131 80.4772C95.5065 80.4772 93.3933 78.468 93.3933 74.9692C93.3933 74.3456 93.4626 73.9299 93.7397 73.6182C93.7397 72.6828 93.1162 72.0593 92.2848 72.0593C91.4187 72.0593 90.7259 72.6828 90.7259 74.311C90.7259 78.1216 94.2594 80.8236 99.3171 80.8236C104.236 80.8236 107.735 78.3294 107.735 74.5188C107.735 66.8284 93.3933 67.7291 93.3933 61.0779Z" fill="black"></path><path d="M112.44 61.0779C112.44 58.3412 114.83 56.2973 118.225 56.2973C121.654 56.2973 123.767 58.3065 123.767 61.7707C123.767 62.3942 123.698 62.8446 123.421 63.1564C123.421 64.0917 124.044 64.7152 124.911 64.7152C125.742 64.7152 126.435 64.0917 126.435 62.4289C126.435 58.6529 122.901 55.9509 118.19 55.9509C113.617 55.9509 110.43 58.5144 110.43 62.1864C110.43 70.0501 124.772 68.7337 124.772 75.4542C124.772 78.3641 122.07 80.4772 118.259 80.4772C114.553 80.4772 112.44 78.468 112.44 74.9692C112.44 74.3456 112.509 73.9299 112.786 73.6182C112.786 72.6828 112.162 72.0593 111.331 72.0593C110.465 72.0593 109.772 72.6828 109.772 74.311C109.772 78.1216 113.306 80.8236 118.363 80.8236C123.282 80.8236 126.781 78.3294 126.781 74.5188C126.781 66.8284 112.44 67.7291 112.44 61.0779Z" fill="black"></path><path d="M128.167 56.6437C129.033 56.6437 130.211 57.2326 130.246 58.0294V78.7451C130.211 79.5419 129.033 80.1308 128.167 80.1308V80.4772H134.715V80.1308C133.918 80.1308 132.74 79.5419 132.671 78.7451V58.0294C132.74 57.2326 133.918 56.6437 134.715 56.6437V56.2973H128.167V56.6437Z" fill="black"></path><path d="M138.517 68.3873C138.517 60.5236 141.912 56.2973 146.831 56.2973C151.751 56.2973 155.111 60.5236 155.111 68.3873C155.111 76.2509 151.751 80.4772 146.831 80.4772C141.912 80.4772 138.517 76.2509 138.517 68.3873ZM136.092 68.3873C136.092 75.9738 140.423 80.8236 146.831 80.8236C153.24 80.8236 157.536 75.9738 157.536 68.3873C157.536 60.8007 153.24 55.9509 146.831 55.9509C140.423 55.9509 136.092 60.8007 136.092 68.3873Z" fill="black"></path><path d="M161.032 78.7451C161.032 79.5419 159.819 80.1308 158.953 80.1308V80.4772H163.457V80.1308C162.625 80.1308 161.378 79.5419 161.378 78.7451V59.8308L176.967 80.4772H177.313V58.0294C177.313 57.2326 178.526 56.6437 179.357 56.6437V56.2973H174.889V56.6437C175.755 56.6437 176.967 57.2326 176.967 58.0294V76.4241L161.725 56.2973H158.953V56.6784C159.577 57.4405 160.166 58.2719 161.032 59.4497V78.7451Z" fill="black"></path><path d="M185.42 71.6782L190.478 59.4843L195.57 71.6782H185.42ZM191.795 56.2973H191.413L182.303 78.2602C181.887 79.2648 180.744 79.9922 179.462 80.1308V80.4772H184.243V80.1308C182.822 80.1308 182.199 79.3687 182.649 78.2602L185.282 72.0246H195.744L198.307 78.2602C198.757 79.3687 198.169 80.1308 196.748 80.1308V80.4772H203.781V80.1308C202.499 79.9922 201.356 79.1955 200.905 78.1562L191.795 56.2973Z" fill="black"></path><path d="M206.059 58.0294V78.1216C206.059 79.334 205.158 80.1308 203.98 80.1308V80.4772H219.257L220.643 75.6274H220.296C219.361 78.0869 218.183 80.1308 215.169 80.1308H210.216C209.211 80.1308 208.483 79.2994 208.483 78.1216V58.0294C208.553 57.2326 209.731 56.6437 210.527 56.6437V56.2973H203.98V56.6437C204.846 56.6437 206.024 57.2326 206.059 58.0294Z" fill="black"></path><path d="M44.6348 5.00941C44.6348 7.85047 46.7817 10.0045 49.6227 10.0045C51.3259 10.0045 52.8502 9.12429 53.7734 7.81469L53.3011 7.44971C52.3636 8.71638 51.0683 9.42486 49.6227 9.42486C47.1681 9.42486 45.3146 7.54275 45.3146 5.00941C45.3146 2.46893 47.1323 0.579661 49.5798 0.579661C51.0611 0.579661 52.3206 1.23804 53.2223 2.51186L53.7161 2.14689C52.7715 0.815819 51.2973 0 49.5798 0C46.753 0 44.6348 2.1612 44.6348 5.00941Z" fill="black"></path><path d="M65.5398 10.0045C68.0373 10.0045 69.6332 8.54463 69.6332 6.34764V0.143126H68.9748V6.34764C68.9748 8.15819 67.6509 9.41054 65.5398 9.41054C63.4287 9.41054 62.1047 8.15819 62.1047 6.34764V0.143126H61.4464V6.34764C61.4464 8.54463 63.0422 10.0045 65.5398 10.0045Z" fill="black"></path><path d="M78.8519 9.86139V5.54614H82.2369L84.6915 9.86139H85.4644L82.931 5.5032C84.3981 5.20979 85.3069 4.22222 85.3069 2.84105C85.3069 1.17363 84.119 0.143126 82.2798 0.143126H78.1935V9.86139H78.8519ZM78.8519 0.722787H82.2369C83.8112 0.722787 84.6271 1.55292 84.6271 2.84105C84.6271 4.10772 83.8112 4.95932 82.2369 4.95932H78.8519V0.722787Z" fill="black"></path><path d="M92.6722 8.02222C93.3019 9.11713 94.5829 10.0045 96.3935 10.0045C97.9464 10.0045 99.5852 9.16723 99.5852 7.44256C99.5852 6.01845 98.4831 5.32429 96.1502 4.58004C94.7189 4.12203 93.6669 3.67834 93.6669 2.48324C93.6669 1.25235 94.8334 0.60113 96.1001 0.60113C97.3381 0.60113 98.3185 1.25235 98.8195 1.99661L99.3132 1.63164C98.7622 0.787194 97.6673 0 96.1001 0C94.5543 0 93.0085 0.8516 93.0085 2.49755C93.0085 4.06478 94.3468 4.67307 95.9784 5.19548C97.9392 5.82523 98.9268 6.29755 98.9268 7.45687C98.9268 8.68776 97.7031 9.40339 96.3792 9.40339C94.7618 9.40339 93.7743 8.68776 93.1445 7.65725L92.6722 8.02222Z" fill="black"></path><path d="M106.993 5.00226C106.993 7.92919 109.054 10.0045 111.967 10.0045C114.88 10.0045 116.941 7.92919 116.941 5.00226C116.941 2.07533 114.88 0 111.967 0C109.054 0 106.993 2.07533 106.993 5.00226ZM111.967 0.579661C114.486 0.579661 116.261 2.41883 116.261 5.00226C116.261 7.58568 114.486 9.42486 111.967 9.42486C109.448 9.42486 107.673 7.58568 107.673 5.00226C107.673 2.41883 109.448 0.579661 111.967 0.579661Z" fill="black"></path><path d="M49.2978 35.6492L41.5042 37.7486C33.5441 39.8891 27.5075 46.5702 26.0166 54.8858L24.6523 62.4902L23.2812 54.879C21.7837 46.5702 15.7537 39.8959 7.79368 37.7486L0 35.6492L7.80699 33.5977C15.7604 31.5051 21.8236 24.8923 23.381 16.6109L24.6523 9.86139L25.9168 16.6041C27.4676 24.8923 33.5374 31.5119 41.4909 33.5977L49.2978 35.6492Z" fill="black"></path></svg>